<?xml version="1.0" encoding="UTF-8" standalone="no"?>
<!-- Created with Inkscape (http://www.inkscape.org/) -->

<svg
   xmlns:dc="http://purl.org/dc/elements/1.1/"
   xmlns:cc="http://creativecommons.org/ns#"
   xmlns:rdf="http://www.w3.org/1999/02/22-rdf-syntax-ns#"
   xmlns:svg="http://www.w3.org/2000/svg"
   xmlns="http://www.w3.org/2000/svg"
   xmlns:sodipodi="http://sodipodi.sourceforge.net/DTD/sodipodi-0.dtd"
   xmlns:inkscape="http://www.inkscape.org/namespaces/inkscape"
   width="744.09448819"
   height="1052.3622047"
   id="svg3774"
   version="1.1"
   inkscape:version="0.48.4 r9939"
   sodipodi:docname="eyes_M_1.svg">
  <defs
     id="defs3776" />
  <sodipodi:namedview
     id="base"
     pagecolor="#ffffff"
     bordercolor="#666666"
     borderopacity="1.0"
     inkscape:pageopacity="0.0"
     inkscape:pageshadow="2"
     inkscape:zoom="0.98994948"
     inkscape:cx="-157.4896"
     inkscape:cy="858.4624"
     inkscape:document-units="px"
     inkscape:current-layer="svg3774"
     showgrid="false"
     inkscape:window-width="1920"
     inkscape:window-height="1145"
     inkscape:window-x="-2"
     inkscape:window-y="-3"
     inkscape:window-maximized="1" />
  <metadata
     id="metadata3779">
    <rdf:RDF>
      <cc:Work
         rdf:about="">
        <dc:format>image/svg+xml</dc:format>
        <dc:type
           rdf:resource="http://purl.org/dc/dcmitype/StillImage" />
        <dc:title />
      </cc:Work>
    </rdf:RDF>
  </metadata>
  <g
     inkscape:label="Layer 6"
     inkscape:groupmode="layer"
     id="layer6"
     style="display:inline">
    <path
       style="fill:#000000;fill-opacity:1;stroke:none"
       d="M 8.1530578e-5,166.91911 C -0.05581847,120.84871 28.632352,45.727164 89.351383,46.472522 149.01529,47.204934 172.96762,121.65454 172.05674,166.9191 171.16514,211.2246 144.80491,282.80265 86.397623,282.88394 27.869612,282.96539 0.05395153,211.32133 8.1530578e-5,166.91911 z"
       id="path3049"
       inkscape:connector-curvature="0"
       sodipodi:nodetypes="aaaaa" />
    <path
       style="fill:#000000;fill-opacity:1;stroke:none"
       d="m 215.99483,164.00951 c -0.0428,-32.68476 21.90919,-85.979935 68.37093,-85.451139 45.65437,0.519611 63.98251,53.338079 63.28551,85.451119 -0.68225,31.43265 -20.85289,82.21388 -65.5457,82.27155 -44.78519,0.0578 -66.06952,-50.77027 -66.11074,-82.27153 z"
       id="path3051"
       inkscape:connector-curvature="0"
       sodipodi:nodetypes="aaaaa" />
  </g>
  <g
     style="display:inline"
     id="layer5"
     inkscape:groupmode="layer"
     inkscape:label="Layer 5">
    <path
       sodipodi:nodetypes="aaaaa"
       inkscape:connector-curvature="0"
       id="path3043"
       d="M 8.1530578e-5,160.08829 C -0.05581847,140.19863 28.632352,107.76691 89.351383,108.0887 149.01529,108.4049 172.96762,140.54652 172.05674,160.08828 171.16514,179.216 144.80491,210.1179 86.397623,210.153 27.869612,210.18816 0.05395153,179.25776 8.1530578e-5,160.08829 z"
       style="fill:#000000;fill-opacity:1;stroke:none" />
    <path
       sodipodi:nodetypes="aaaaa"
       inkscape:connector-curvature="0"
       id="path3045"
       d="m 215.99483,165.64335 c -0.0428,-14.37792 21.90919,-37.82231 68.37093,-37.58969 45.65437,0.22857 63.98251,23.46326 63.28551,37.58969 -0.68225,13.82712 -20.85289,36.16563 -65.5457,36.191 -44.78519,0.0255 -66.06952,-22.33368 -66.11074,-36.191 z"
       style="fill:#000000;fill-opacity:1;stroke:none" />
  </g>
  <g
     style="display:inline"
     id="layer4"
     inkscape:groupmode="layer"
     inkscape:label="Layer 4">
    <path
       sodipodi:nodetypes="aaaaa"
       inkscape:connector-curvature="0"
       id="path3037"
       d="M 8.1530578e-5,150.64881 C -0.05581847,148.27858 28.632352,144.41375 89.351383,144.45209 c 59.663907,0.0377 83.616237,3.86795 82.705357,6.19672 -0.8916,2.27942 -27.25183,5.96195 -85.659117,5.96613 -58.528011,0.004 -86.34367147,-3.68174 -86.397541469422,-5.96613 z"
       style="fill:#000000;fill-opacity:1;stroke:none" />
    <path
       sodipodi:nodetypes="aaaaa"
       inkscape:connector-curvature="0"
       id="path3039"
       d="m 215.99483,158.91139 c -0.0428,-0.59859 21.90919,-1.57464 68.37093,-1.56495 45.65437,0.01 63.98251,0.97683 63.28551,1.56495 -0.68225,0.57566 -20.85289,1.50567 -65.5457,1.50673 -44.78519,0.001 -66.06952,-0.92981 -66.11074,-1.50673 z"
       style="fill:#000000;fill-opacity:1;stroke:none" />
  </g>
  <g
     inkscape:label="Layer 3"
     inkscape:groupmode="layer"
     id="layer3"
     style="display:inline">
    <path
       style="fill:#000000;fill-opacity:1;stroke:none"
       d="M 8.1530578e-5,160.08829 C -0.05581847,140.19863 28.632352,107.76691 89.351383,108.0887 149.01529,108.4049 172.96762,140.54652 172.05674,160.08828 171.16514,179.216 144.80491,210.1179 86.397623,210.153 27.869612,210.18816 0.05395153,179.25776 8.1530578e-5,160.08829 z"
       id="path3031"
       inkscape:connector-curvature="0"
       sodipodi:nodetypes="aaaaa" />
    <path
       style="fill:#000000;fill-opacity:1;stroke:none"
       d="m 215.99483,165.64335 c -0.0428,-14.37792 21.90919,-37.82231 68.37093,-37.58969 45.65437,0.22857 63.98251,23.46326 63.28551,37.58969 -0.68225,13.82712 -20.85289,36.16563 -65.5457,36.191 -44.78519,0.0255 -66.06952,-22.33368 -66.11074,-36.191 z"
       id="path3033"
       inkscape:connector-curvature="0"
       sodipodi:nodetypes="aaaaa" />
  </g>
  <g
     style="display:inline"
     id="layer2"
     inkscape:groupmode="layer"
     inkscape:label="Layer 2">
    <path
       sodipodi:nodetypes="aaaaa"
       inkscape:connector-curvature="0"
       id="path3025"
       d="M 8.1530578e-5,166.91911 C -0.05581847,120.84871 28.632352,45.727164 89.351383,46.472522 149.01529,47.204934 172.96762,121.65454 172.05674,166.9191 171.16514,211.2246 144.80491,282.80265 86.397623,282.88394 27.869612,282.96539 0.05395153,211.32133 8.1530578e-5,166.91911 z"
       style="fill:#000000;fill-opacity:1;stroke:none" />
    <path
       sodipodi:nodetypes="aaaaa"
       inkscape:connector-curvature="0"
       id="path3027"
       d="m 215.99483,164.00951 c -0.0428,-32.68476 21.90919,-85.979935 68.37093,-85.451139 45.65437,0.519611 63.98251,53.338079 63.28551,85.451119 -0.68225,31.43265 -20.85289,82.21388 -65.5457,82.27155 -44.78519,0.0578 -66.06952,-50.77027 -66.11074,-82.27153 z"
       style="fill:#000000;fill-opacity:1;stroke:none" />
  </g>
  <g
     inkscape:label="Layer 1"
     inkscape:groupmode="layer"
     id="layer1"
     style="display:inline">
    <path
       style="fill:#000000;fill-opacity:1;stroke:none"
       d="M 8.1530578e-5,175.00633 C -0.05581847,108.07008 28.632352,-1.0749423 89.351383,0.00799771 149.01529,1.0721277 172.96762,109.24088 172.05674,175.00631 171.16514,239.37832 144.80491,343.37496 86.397623,343.49307 27.869612,343.6114 0.05395153,239.51886 8.1530578e-5,175.00633 z"
       id="path2985"
       inkscape:connector-curvature="0"
       sodipodi:nodetypes="aaaaa" />
    <path
       style="fill:#000000;fill-opacity:1;stroke:none"
       d="m 215.99483,174.89711 c -0.0428,-48.82626 21.90919,-128.441484 68.37093,-127.651539 45.65437,0.776223 63.98251,79.679309 63.28551,127.651519 -0.68225,46.9558 -20.85289,122.81556 -65.5457,122.90171 -44.78519,0.0863 -66.06952,-75.84339 -66.11074,-122.90169 z"
       id="path2985-4"
       inkscape:connector-curvature="0"
       sodipodi:nodetypes="aaaaa" />
  </g>
</svg>
