<?xml version="1.0" encoding="UTF-8" standalone="no"?>
<!-- Created with Inkscape (http://www.inkscape.org/) -->

<svg
   xmlns:dc="http://purl.org/dc/elements/1.1/"
   xmlns:cc="http://creativecommons.org/ns#"
   xmlns:rdf="http://www.w3.org/1999/02/22-rdf-syntax-ns#"
   xmlns:svg="http://www.w3.org/2000/svg"
   xmlns="http://www.w3.org/2000/svg"
   xmlns:sodipodi="http://sodipodi.sourceforge.net/DTD/sodipodi-0.dtd"
   xmlns:inkscape="http://www.inkscape.org/namespaces/inkscape"
   id="svg2"
   version="1.1"
   inkscape:version="0.48.4 r9939"
   width="708.66125"
   height="708.66125"
   xml:space="preserve"
   sodipodi:docname="head_F_7.svg"><metadata
     id="metadata8"><rdf:RDF><cc:Work
         rdf:about=""><dc:format>image/svg+xml</dc:format><dc:type
           rdf:resource="http://purl.org/dc/dcmitype/StillImage" /><dc:title /></cc:Work></rdf:RDF></metadata><defs
     id="defs6"><clipPath
       clipPathUnits="userSpaceOnUse"
       id="clipPath18"><path
         d="m 0,566.929 566.929,0 L 566.929,0 0,0 0,566.929 z"
         id="path20" /></clipPath><clipPath
       clipPathUnits="userSpaceOnUse"
       id="clipPath5400"><path
         d="m 512.125,57.678 -12.313,2.001 c 0,0 -2.917,-12.25 -2.999,-13.334 l 0,0 c -0.083,-1.082 5.167,-3.501 15.583,-3.751 l 0,0 c 10.417,-0.249 15.333,1.669 15.333,2.919 l 0,0 c 0,1.25 -2.827,14.166 -2.827,14.166 l 0,0 -12.777,-2.001 z"
         id="path5402" /></clipPath><clipPath
       clipPathUnits="userSpaceOnUse"
       id="clipPath5432"><path
         d="m 495.045,77.3867 35.577,0 0,-36.999 -35.577,0 0,36.999 z"
         id="path5434" /></clipPath><clipPath
       clipPathUnits="userSpaceOnUse"
       id="clipPath5436"><path
         d="m 495.045,77.3867 35.577,0 0,-1.4228 -35.577,0 0,1.4228 z"
         id="path5438" /></clipPath><clipPath
       clipPathUnits="userSpaceOnUse"
       id="clipPath5440"><path
         d="m 495.045,74.1523 35.577,0 0,-1.4228 -35.577,0 0,1.4228 z"
         id="path5442" /></clipPath><clipPath
       clipPathUnits="userSpaceOnUse"
       id="clipPath5444"><path
         d="m 495.045,70.918 35.577,0 0,-1.4229 -35.577,0 0,1.4229 z"
         id="path5446" /></clipPath><clipPath
       clipPathUnits="userSpaceOnUse"
       id="clipPath5448"><path
         d="m 495.045,67.6846 35.577,0 0,-1.4229 -35.577,0 0,1.4229 z"
         id="path5450" /></clipPath><clipPath
       clipPathUnits="userSpaceOnUse"
       id="clipPath5452"><path
         d="m 495.045,64.4502 35.577,0 0,-1.4229 -35.577,0 0,1.4229 z"
         id="path5454" /></clipPath><clipPath
       clipPathUnits="userSpaceOnUse"
       id="clipPath5456"><path
         d="m 495.045,61.2158 35.577,0 0,-1.4228 -35.577,0 0,1.4228 z"
         id="path5458" /></clipPath><clipPath
       clipPathUnits="userSpaceOnUse"
       id="clipPath5460"><path
         d="m 495.045,57.9814 35.577,0 0,-1.4228 -35.577,0 0,1.4228 z"
         id="path5462" /></clipPath><clipPath
       clipPathUnits="userSpaceOnUse"
       id="clipPath5464"><path
         d="m 495.045,54.7471 35.577,0 0,-1.4229 -35.577,0 0,1.4229 z"
         id="path5466" /></clipPath><clipPath
       clipPathUnits="userSpaceOnUse"
       id="clipPath5468"><path
         d="m 495.045,51.5127 35.577,0 0,-1.4229 -35.577,0 0,1.4229 z"
         id="path5470" /></clipPath><clipPath
       clipPathUnits="userSpaceOnUse"
       id="clipPath5472"><path
         d="m 495.045,48.2793 35.577,0 0,-1.4229 -35.577,0 0,1.4229 z"
         id="path5474" /></clipPath><clipPath
       clipPathUnits="userSpaceOnUse"
       id="clipPath5476"><path
         d="m 495.045,45.0449 35.577,0 0,-1.4228 -35.577,0 0,1.4228 z"
         id="path5478" /></clipPath><clipPath
       clipPathUnits="userSpaceOnUse"
       id="clipPath5480"><path
         d="m 495.045,41.8105 35.577,0 0,-1.4228 -35.577,0 0,1.4228 z"
         id="path5482" /></clipPath><clipPath
       clipPathUnits="userSpaceOnUse"
       id="clipPath5612"><path
         d="m 0,566.929 566.929,0 L 566.929,0 0,0 0,566.929 z"
         id="path5614" /></clipPath></defs><sodipodi:namedview
     pagecolor="#ffffff"
     bordercolor="#666666"
     borderopacity="1"
     objecttolerance="10"
     gridtolerance="10"
     guidetolerance="10"
     inkscape:pageopacity="0"
     inkscape:pageshadow="2"
     inkscape:window-width="1920"
     inkscape:window-height="1135"
     id="namedview4"
     showgrid="false"
     inkscape:zoom="0.9419293"
     inkscape:cx="34.179395"
     inkscape:cy="383.59574"
     inkscape:window-x="-3"
     inkscape:window-y="-3"
     inkscape:window-maximized="1"
     inkscape:current-layer="svg2" /><g
     inkscape:groupmode="layer"
     id="layer1"
     inkscape:label="layer1"
     style="display:inline"><g
       style="display:inline"
       id="g14851"
       transform="matrix(11.148398,0,0,-11.148398,1593.111,2876.0133)"><g
         transform="translate(-160.5216,-27.178261)"
         id="g12702"><g
           id="g1528"
           transform="translate(27.0752,255.4375)"><path
             d="m 0,0 c 0,-1.519 -1.063,-2.75 -2.375,-2.75 -1.312,0 -2.375,1.231 -2.375,2.75 0,1.519 1.063,2.75 2.375,2.75 C -1.063,2.75 0,1.519 0,0"
             style="fill:#19181b;fill-opacity:1;fill-rule:nonzero;stroke:none"
             id="path1530"
             inkscape:connector-curvature="0" /></g><g
           id="g1532"
           transform="translate(25.0752,252.75)"><path
             d="m 0,0 c 0,-1.277 -1.091,-2.313 -2.438,-2.313 -1.346,0 -2.437,1.036 -2.437,2.313 0,1.277 1.091,2.313 2.437,2.313 C -1.091,2.313 0,1.277 0,0"
             style="fill:#19181b;fill-opacity:1;fill-rule:nonzero;stroke:none"
             id="path1534"
             inkscape:connector-curvature="0" /></g><g
           id="g1536"
           transform="translate(27.0752,250.0625)"><path
             d="m 0,0 c 0,-1.312 -1.063,-2.375 -2.375,-2.375 -1.312,0 -2.375,1.063 -2.375,2.375 0,1.312 1.063,2.375 2.375,2.375 C -1.063,2.375 0,1.312 0,0"
             style="fill:#19181b;fill-opacity:1;fill-rule:nonzero;stroke:none"
             id="path1538"
             inkscape:connector-curvature="0" /></g><g
           id="g1540"
           transform="translate(26.0752,246.5625)"><path
             d="m 0,0 c 0,-1.035 -0.839,-1.875 -1.875,-1.875 -1.036,0 -1.875,0.84 -1.875,1.875 0,1.035 0.839,1.875 1.875,1.875 C -0.839,1.875 0,1.035 0,0"
             style="fill:#19181b;fill-opacity:1;fill-rule:nonzero;stroke:none"
             id="path1542"
             inkscape:connector-curvature="0" /></g><g
           id="g1544"
           transform="translate(30.2002,246.5625)"><path
             d="m 0,0 c 0,-1.519 -1.231,-2.75 -2.75,-2.75 -1.519,0 -2.75,1.231 -2.75,2.75 0,1.519 1.231,2.75 2.75,2.75 C -1.231,2.75 0,1.519 0,0"
             style="fill:#19181b;fill-opacity:1;fill-rule:nonzero;stroke:none"
             id="path1546"
             inkscape:connector-curvature="0" /></g><g
           id="g1548"
           transform="translate(30.2002,241.5)"><path
             d="m 0,0 c 0,-1.968 -1.595,-3.563 -3.563,-3.563 -1.967,0 -3.562,1.595 -3.562,3.563 0,1.968 1.595,3.563 3.562,3.563 C -1.595,3.563 0,1.968 0,0"
             style="fill:#19181b;fill-opacity:1;fill-rule:nonzero;stroke:none"
             id="path1550"
             inkscape:connector-curvature="0" /></g><g
           id="g1552"
           transform="translate(32.7002,243.4375)"><path
             d="m 0,0 c 0,-1.242 -1.007,-2.25 -2.25,-2.25 -1.243,0 -2.25,1.008 -2.25,2.25 0,1.242 1.007,2.25 2.25,2.25 C -1.007,2.25 0,1.242 0,0"
             style="fill:#19181b;fill-opacity:1;fill-rule:nonzero;stroke:none"
             id="path1554"
             inkscape:connector-curvature="0" /></g><g
           id="g1556"
           transform="translate(35.5752,239.25)"><path
             d="m 0,0 c 0,-1.554 -1.259,-2.813 -2.813,-2.813 -1.553,0 -2.812,1.259 -2.812,2.813 0,1.554 1.259,2.813 2.812,2.813 C -1.259,2.813 0,1.554 0,0"
             style="fill:#19181b;fill-opacity:1;fill-rule:nonzero;stroke:none"
             id="path1558"
             inkscape:connector-curvature="0" /></g><g
           id="g1560"
           transform="translate(34.0752,236.3125)"><path
             d="m 0,0 c 0,-1.242 -1.007,-2.25 -2.25,-2.25 -1.243,0 -2.25,1.008 -2.25,2.25 0,1.242 1.007,2.25 2.25,2.25 C -1.007,2.25 0,1.242 0,0"
             style="fill:#19181b;fill-opacity:1;fill-rule:nonzero;stroke:none"
             id="path1562"
             inkscape:connector-curvature="0" /></g><g
           id="g1564"
           transform="translate(38.8252,238.4375)"><path
             d="M 0,0 C 0,-1.381 -1.119,-2.5 -2.5,-2.5 -3.881,-2.5 -5,-1.381 -5,0 -5,1.381 -3.881,2.5 -2.5,2.5 -1.119,2.5 0,1.381 0,0"
             style="fill:#19181b;fill-opacity:1;fill-rule:nonzero;stroke:none"
             id="path1566"
             inkscape:connector-curvature="0" /></g><g
           id="g1568"
           transform="translate(40.3252,237.25)"><path
             d="m 0,0 c 0,-0.725 -0.587,-1.313 -1.313,-1.313 -0.725,0 -1.312,0.588 -1.312,1.313 0,0.725 0.587,1.313 1.312,1.313 C -0.587,1.313 0,0.725 0,0"
             style="fill:#19181b;fill-opacity:1;fill-rule:nonzero;stroke:none"
             id="path1570"
             inkscape:connector-curvature="0" /></g><g
           id="g1572"
           transform="translate(31.2002,238)"><path
             d="m 0,0 c 0,-1.346 -1.091,-2.438 -2.438,-2.438 -1.346,0 -2.437,1.092 -2.437,2.438 0,1.346 1.091,2.438 2.437,2.438 C -1.091,2.438 0,1.346 0,0"
             style="fill:#19181b;fill-opacity:1;fill-rule:nonzero;stroke:none"
             id="path1574"
             inkscape:connector-curvature="0" /></g><g
           id="g1576"
           transform="translate(35.9502,236.625)"><path
             d="m 0,0 c 0,-0.863 -0.7,-1.563 -1.563,-1.563 -0.862,0 -1.562,0.7 -1.562,1.563 0,0.863 0.7,1.563 1.562,1.563 C -0.7,1.563 0,0.863 0,0"
             style="fill:#19181b;fill-opacity:1;fill-rule:nonzero;stroke:none"
             id="path1578"
             inkscape:connector-curvature="0" /></g><g
           id="g1580"
           transform="translate(27.4502,244.625)"><path
             d="m 0,0 c 0,-1.001 -0.812,-1.813 -1.813,-1.813 -1,0 -1.812,0.812 -1.812,1.813 0,1.001 0.812,1.813 1.812,1.813 C -0.812,1.813 0,1.001 0,0"
             style="fill:#19181b;fill-opacity:1;fill-rule:nonzero;stroke:none"
             id="path1582"
             inkscape:connector-curvature="0" /></g><g
           id="g1584"
           transform="translate(27.7002,259.125)"><path
             d="m 0,0 c 0,-1.346 -1.091,-2.438 -2.438,-2.438 -1.346,0 -2.437,1.092 -2.437,2.438 0,1.346 1.091,2.438 2.437,2.438 C -1.091,2.438 0,1.346 0,0"
             style="fill:#19181b;fill-opacity:1;fill-rule:nonzero;stroke:none"
             id="path1586"
             inkscape:connector-curvature="0" /></g><g
           id="g1588"
           transform="translate(28.9502,261.4375)"><path
             d="m 0,0 c 0,-0.69 -0.56,-1.25 -1.25,-1.25 -0.69,0 -1.25,0.56 -1.25,1.25 0,0.69 0.56,1.25 1.25,1.25 C -0.56,1.25 0,0.69 0,0"
             style="fill:#19181b;fill-opacity:1;fill-rule:nonzero;stroke:none"
             id="path1590"
             inkscape:connector-curvature="0" /></g><g
           id="g1592"
           transform="translate(24.5898,260.3203)"><path
             d="m 0,0 c 0,-12.118 14.753,-21.938 25.218,-21.938 10.465,0 24.841,9.82 24.841,21.938 0,12.117 -12.793,21.94 -24.841,21.94 C 13.171,21.94 0,12.117 0,0"
             style="fill:#19181b;fill-opacity:1;fill-rule:nonzero;stroke:none"
             id="path1594"
             inkscape:connector-curvature="0" /></g><g
           id="g1632"
           transform="translate(73.1787,257.1494)"><path
             d="m 0,0 c -1.357,10.597 -13.105,18.885 -23.91,18.885 -10.795,0 -22.219,-8.277 -23.551,-18.865 -0.086,-0.676 -0.131,-1.361 -0.131,-2.055 0,-11.552 13.705,-20.917 23.682,-20.917 9.98,0 24.047,9.365 24.047,20.917 C 0.137,-1.348 0.088,-0.669 0,0"
             style="fill:#f9cdb9;fill-opacity:1;fill-rule:nonzero;stroke:none"
             id="path1634"
             inkscape:connector-curvature="0" /></g><g
           id="g1636"
           transform="translate(46.4795,252.2979)"><path
             d="M 0,0 C 1.381,1.438 3.662,1.484 5.1,0.104"
             style="fill:#e3b09f;fill-opacity:1;fill-rule:nonzero;stroke:none"
             id="path1638"
             inkscape:connector-curvature="0" /></g><g
           id="g1660"
           transform="translate(28.1104,252.7705)"><path
             d="m 0,0 c 0,-1.492 -1.238,-2.704 -2.764,-2.704 -1.527,0 -2.765,1.212 -2.765,2.704 0,1.495 1.238,2.706 2.765,2.706 C -1.238,2.706 0,1.495 0,0"
             style="fill:#f9cdb9;fill-opacity:1;fill-rule:nonzero;stroke:none"
             id="path1662"
             inkscape:connector-curvature="0" /></g><g
           id="g1664"
           transform="translate(76.2002,252.7705)"><path
             d="m 0,0 c 0,-1.492 -1.24,-2.704 -2.766,-2.704 -1.527,0 -2.767,1.212 -2.767,2.704 0,1.495 1.24,2.706 2.767,2.706 C -1.24,2.706 0,1.495 0,0"
             style="fill:#f9cdb9;fill-opacity:1;fill-rule:nonzero;stroke:none"
             id="path1666"
             inkscape:connector-curvature="0" /></g><g
           id="g1728"
           transform="translate(55.0117,276.3633)"><path
             d="m 0,0 c 0,0 -0.065,-2.638 1.057,-5.763 1.122,-3.127 2.111,-6.374 5.941,-6.613 3.829,-0.24 4.818,0.121 6.535,-0.24 1.717,-0.362 2.84,-1.444 3.367,-2.526 0.528,-1.082 1.321,-2.523 1.387,-3.125 0.066,-0.599 -0.462,4.448 -0.462,4.448 L 14.919,-5.284 8.517,1.089 3.104,1.69 0,0 z"
             style="fill:#19181b;fill-opacity:1;fill-rule:nonzero;stroke:none"
             id="path1730"
             inkscape:connector-curvature="0" /></g><g
           id="g1732"
           transform="translate(55.6372,276.3633)"><path
             d="m 0,0 c 0,0 0.106,-2.638 -1.742,-5.763 -1.85,-3.127 -3.48,-6.374 -9.792,-6.613 -6.31,-0.24 -7.94,0.121 -10.769,-0.24 -2.828,-0.362 -4.679,-1.444 -5.55,-2.526 -0.869,-1.082 -2.175,-2.523 -2.284,-3.125 -0.109,-0.599 0.762,4.448 0.762,4.448 l 4.788,8.535 10.551,6.373 8.92,0.601 L 0,0 z"
             style="fill:#19181b;fill-opacity:1;fill-rule:nonzero;stroke:none"
             id="path1734"
             inkscape:connector-curvature="0" /></g><g
           id="g1980"
           transform="translate(31.667,239.9912)"><path
             d="m 0,0 c 0,-1.208 -0.979,-2.188 -2.188,-2.188 -1.208,0 -2.187,0.98 -2.187,2.188 0,1.208 0.979,2.188 2.187,2.188 C -0.979,2.188 0,1.208 0,0"
             style="fill:#19181b;fill-opacity:1;fill-rule:nonzero;stroke:none"
             id="path1982"
             inkscape:connector-curvature="0" /></g></g></g></g></svg>