<?xml version="1.0" encoding="UTF-8" standalone="no"?>
<!-- Created with Inkscape (http://www.inkscape.org/) -->

<svg
   xmlns:dc="http://purl.org/dc/elements/1.1/"
   xmlns:cc="http://creativecommons.org/ns#"
   xmlns:rdf="http://www.w3.org/1999/02/22-rdf-syntax-ns#"
   xmlns:svg="http://www.w3.org/2000/svg"
   xmlns="http://www.w3.org/2000/svg"
   xmlns:sodipodi="http://sodipodi.sourceforge.net/DTD/sodipodi-0.dtd"
   xmlns:inkscape="http://www.inkscape.org/namespaces/inkscape"
   id="svg2"
   version="1.1"
   inkscape:version="0.48.4 r9939"
   width="708.66125"
   height="708.66125"
   xml:space="preserve"
   sodipodi:docname="head_F_3.svg"><metadata
     id="metadata8"><rdf:RDF><cc:Work
         rdf:about=""><dc:format>image/svg+xml</dc:format><dc:type
           rdf:resource="http://purl.org/dc/dcmitype/StillImage" /><dc:title /></cc:Work></rdf:RDF></metadata><defs
     id="defs6"><clipPath
       clipPathUnits="userSpaceOnUse"
       id="clipPath18"><path
         d="m 0,566.929 566.929,0 L 566.929,0 0,0 0,566.929 z"
         id="path20" /></clipPath><clipPath
       clipPathUnits="userSpaceOnUse"
       id="clipPath5400"><path
         d="m 512.125,57.678 -12.313,2.001 c 0,0 -2.917,-12.25 -2.999,-13.334 l 0,0 c -0.083,-1.082 5.167,-3.501 15.583,-3.751 l 0,0 c 10.417,-0.249 15.333,1.669 15.333,2.919 l 0,0 c 0,1.25 -2.827,14.166 -2.827,14.166 l 0,0 -12.777,-2.001 z"
         id="path5402" /></clipPath><clipPath
       clipPathUnits="userSpaceOnUse"
       id="clipPath5432"><path
         d="m 495.045,77.3867 35.577,0 0,-36.999 -35.577,0 0,36.999 z"
         id="path5434" /></clipPath><clipPath
       clipPathUnits="userSpaceOnUse"
       id="clipPath5436"><path
         d="m 495.045,77.3867 35.577,0 0,-1.4228 -35.577,0 0,1.4228 z"
         id="path5438" /></clipPath><clipPath
       clipPathUnits="userSpaceOnUse"
       id="clipPath5440"><path
         d="m 495.045,74.1523 35.577,0 0,-1.4228 -35.577,0 0,1.4228 z"
         id="path5442" /></clipPath><clipPath
       clipPathUnits="userSpaceOnUse"
       id="clipPath5444"><path
         d="m 495.045,70.918 35.577,0 0,-1.4229 -35.577,0 0,1.4229 z"
         id="path5446" /></clipPath><clipPath
       clipPathUnits="userSpaceOnUse"
       id="clipPath5448"><path
         d="m 495.045,67.6846 35.577,0 0,-1.4229 -35.577,0 0,1.4229 z"
         id="path5450" /></clipPath><clipPath
       clipPathUnits="userSpaceOnUse"
       id="clipPath5452"><path
         d="m 495.045,64.4502 35.577,0 0,-1.4229 -35.577,0 0,1.4229 z"
         id="path5454" /></clipPath><clipPath
       clipPathUnits="userSpaceOnUse"
       id="clipPath5456"><path
         d="m 495.045,61.2158 35.577,0 0,-1.4228 -35.577,0 0,1.4228 z"
         id="path5458" /></clipPath><clipPath
       clipPathUnits="userSpaceOnUse"
       id="clipPath5460"><path
         d="m 495.045,57.9814 35.577,0 0,-1.4228 -35.577,0 0,1.4228 z"
         id="path5462" /></clipPath><clipPath
       clipPathUnits="userSpaceOnUse"
       id="clipPath5464"><path
         d="m 495.045,54.7471 35.577,0 0,-1.4229 -35.577,0 0,1.4229 z"
         id="path5466" /></clipPath><clipPath
       clipPathUnits="userSpaceOnUse"
       id="clipPath5468"><path
         d="m 495.045,51.5127 35.577,0 0,-1.4229 -35.577,0 0,1.4229 z"
         id="path5470" /></clipPath><clipPath
       clipPathUnits="userSpaceOnUse"
       id="clipPath5472"><path
         d="m 495.045,48.2793 35.577,0 0,-1.4229 -35.577,0 0,1.4229 z"
         id="path5474" /></clipPath><clipPath
       clipPathUnits="userSpaceOnUse"
       id="clipPath5476"><path
         d="m 495.045,45.0449 35.577,0 0,-1.4228 -35.577,0 0,1.4228 z"
         id="path5478" /></clipPath><clipPath
       clipPathUnits="userSpaceOnUse"
       id="clipPath5480"><path
         d="m 495.045,41.8105 35.577,0 0,-1.4228 -35.577,0 0,1.4228 z"
         id="path5482" /></clipPath><clipPath
       clipPathUnits="userSpaceOnUse"
       id="clipPath5612"><path
         d="m 0,566.929 566.929,0 L 566.929,0 0,0 0,566.929 z"
         id="path5614" /></clipPath></defs><sodipodi:namedview
     pagecolor="#ffffff"
     bordercolor="#666666"
     borderopacity="1"
     objecttolerance="10"
     gridtolerance="10"
     guidetolerance="10"
     inkscape:pageopacity="0"
     inkscape:pageshadow="2"
     inkscape:window-width="1920"
     inkscape:window-height="1135"
     id="namedview4"
     showgrid="false"
     inkscape:zoom="0.9419293"
     inkscape:cx="34.179395"
     inkscape:cy="383.59574"
     inkscape:window-x="-3"
     inkscape:window-y="-3"
     inkscape:window-maximized="1"
     inkscape:current-layer="svg2" /><g
     inkscape:groupmode="layer"
     id="layer1"
     inkscape:label="layer1"
     style="display:inline"><g
       style="display:inline"
       id="g14902"
       transform="matrix(11.148398,0,0,-11.148398,1594.3581,1214.9145)"><g
         transform="translate(-89.7296,79.259239)"
         id="g2236"><path
           inkscape:connector-curvature="0"
           id="path2238"
           style="fill:#19181b;fill-opacity:1;fill-rule:nonzero;stroke:none"
           d="M 0,0 C 0,-1.519 1.063,-2.75 2.375,-2.75 3.687,-2.75 4.75,-1.519 4.75,0 4.75,1.519 3.687,2.75 2.375,2.75 1.063,2.75 0,1.519 0,0" /></g><g
         transform="translate(-87.7296,76.571739)"
         id="g2240"><path
           inkscape:connector-curvature="0"
           id="path2242"
           style="fill:#19181b;fill-opacity:1;fill-rule:nonzero;stroke:none"
           d="m 0,0 c 0,-1.277 1.091,-2.313 2.438,-2.313 1.346,0 2.437,1.036 2.437,2.313 0,1.277 -1.091,2.313 -2.437,2.313 C 1.091,2.313 0,1.277 0,0" /></g><g
         transform="translate(-89.7296,73.884239)"
         id="g2244"><path
           inkscape:connector-curvature="0"
           id="path2246"
           style="fill:#19181b;fill-opacity:1;fill-rule:nonzero;stroke:none"
           d="M 0,0 C 0,-1.312 1.063,-2.375 2.375,-2.375 3.687,-2.375 4.75,-1.312 4.75,0 4.75,1.312 3.687,2.375 2.375,2.375 1.063,2.375 0,1.312 0,0" /></g><g
         transform="translate(-88.7296,70.384239)"
         id="g2248"><path
           inkscape:connector-curvature="0"
           id="path2250"
           style="fill:#19181b;fill-opacity:1;fill-rule:nonzero;stroke:none"
           d="M 0,0 C 0,-1.035 0.839,-1.875 1.875,-1.875 2.911,-1.875 3.75,-1.035 3.75,0 3.75,1.035 2.911,1.875 1.875,1.875 0.839,1.875 0,1.035 0,0" /></g><g
         transform="translate(-92.8546,70.384239)"
         id="g2252"><path
           inkscape:connector-curvature="0"
           id="path2254"
           style="fill:#19181b;fill-opacity:1;fill-rule:nonzero;stroke:none"
           d="M 0,0 C 0,-1.519 1.231,-2.75 2.75,-2.75 4.269,-2.75 5.5,-1.519 5.5,0 5.5,1.519 4.269,2.75 2.75,2.75 1.231,2.75 0,1.519 0,0" /></g><g
         transform="translate(-92.8546,65.321739)"
         id="g2256"><path
           inkscape:connector-curvature="0"
           id="path2258"
           style="fill:#19181b;fill-opacity:1;fill-rule:nonzero;stroke:none"
           d="M 0,0 C 0,-1.968 1.595,-3.563 3.563,-3.563 5.53,-3.563 7.125,-1.968 7.125,0 7.125,1.968 5.53,3.563 3.563,3.563 1.595,3.563 0,1.968 0,0" /></g><g
         transform="translate(-95.3546,67.259239)"
         id="g2260"><path
           inkscape:connector-curvature="0"
           id="path2262"
           style="fill:#19181b;fill-opacity:1;fill-rule:nonzero;stroke:none"
           d="M 0,0 C 0,-1.242 1.007,-2.25 2.25,-2.25 3.493,-2.25 4.5,-1.242 4.5,0 4.5,1.242 3.493,2.25 2.25,2.25 1.007,2.25 0,1.242 0,0" /></g><g
         transform="translate(-98.2296,63.071739)"
         id="g2264"><path
           inkscape:connector-curvature="0"
           id="path2266"
           style="fill:#19181b;fill-opacity:1;fill-rule:nonzero;stroke:none"
           d="m 0,0 c 0,-1.554 1.259,-2.813 2.813,-2.813 1.553,0 2.812,1.259 2.812,2.813 0,1.554 -1.259,2.813 -2.812,2.813 C 1.259,2.813 0,1.554 0,0" /></g><g
         transform="translate(-96.7296,60.134239)"
         id="g2268"><path
           inkscape:connector-curvature="0"
           id="path2270"
           style="fill:#19181b;fill-opacity:1;fill-rule:nonzero;stroke:none"
           d="M 0,0 C 0,-1.242 1.007,-2.25 2.25,-2.25 3.493,-2.25 4.5,-1.242 4.5,0 4.5,1.242 3.493,2.25 2.25,2.25 1.007,2.25 0,1.242 0,0" /></g><g
         transform="translate(-101.4796,62.259239)"
         id="g2272"><path
           inkscape:connector-curvature="0"
           id="path2274"
           style="fill:#19181b;fill-opacity:1;fill-rule:nonzero;stroke:none"
           d="M 0,0 C 0,-1.381 1.119,-2.5 2.5,-2.5 3.881,-2.5 5,-1.381 5,0 5,1.381 3.881,2.5 2.5,2.5 1.119,2.5 0,1.381 0,0" /></g><g
         transform="translate(-102.9796,61.071739)"
         id="g2276"><path
           inkscape:connector-curvature="0"
           id="path2278"
           style="fill:#19181b;fill-opacity:1;fill-rule:nonzero;stroke:none"
           d="m 0,0 c 0,-0.725 0.587,-1.313 1.313,-1.313 0.725,0 1.312,0.588 1.312,1.313 0,0.725 -0.587,1.313 -1.312,1.313 C 0.587,1.313 0,0.725 0,0" /></g><g
         transform="translate(-93.8546,61.821739)"
         id="g2280"><path
           inkscape:connector-curvature="0"
           id="path2282"
           style="fill:#19181b;fill-opacity:1;fill-rule:nonzero;stroke:none"
           d="m 0,0 c 0,-1.346 1.091,-2.438 2.438,-2.438 1.346,0 2.437,1.092 2.437,2.438 0,1.346 -1.091,2.438 -2.437,2.438 C 1.091,2.438 0,1.346 0,0" /></g><g
         transform="translate(-98.6046,60.446739)"
         id="g2284"><path
           inkscape:connector-curvature="0"
           id="path2286"
           style="fill:#19181b;fill-opacity:1;fill-rule:nonzero;stroke:none"
           d="m 0,0 c 0,-0.863 0.7,-1.563 1.563,-1.563 0.862,0 1.562,0.7 1.562,1.563 0,0.863 -0.7,1.563 -1.562,1.563 C 0.7,1.563 0,0.863 0,0" /></g><g
         transform="translate(-90.1046,68.446739)"
         id="g2288"><path
           inkscape:connector-curvature="0"
           id="path2290"
           style="fill:#19181b;fill-opacity:1;fill-rule:nonzero;stroke:none"
           d="m 0,0 c 0,-1.001 0.812,-1.813 1.813,-1.813 1,0 1.812,0.812 1.812,1.813 0,1.001 -0.812,1.813 -1.812,1.813 C 0.812,1.813 0,1.001 0,0" /></g><g
         transform="translate(-90.3546,82.946739)"
         id="g2292"><path
           inkscape:connector-curvature="0"
           id="path2294"
           style="fill:#19181b;fill-opacity:1;fill-rule:nonzero;stroke:none"
           d="m 0,0 c 0,-1.346 1.091,-2.438 2.438,-2.438 1.346,0 2.437,1.092 2.437,2.438 0,1.346 -1.091,2.438 -2.437,2.438 C 1.091,2.438 0,1.346 0,0" /></g><g
         transform="translate(-91.6046,85.259239)"
         id="g2296"><path
           inkscape:connector-curvature="0"
           id="path2298"
           style="fill:#19181b;fill-opacity:1;fill-rule:nonzero;stroke:none"
           d="M 0,0 C 0,-0.69 0.56,-1.25 1.25,-1.25 1.94,-1.25 2.5,-0.69 2.5,0 2.5,0.69 1.94,1.25 1.25,1.25 0.56,1.25 0,0.69 0,0" /></g><g
         transform="translate(-133.4464,79.259239)"
         id="g2300"><path
           inkscape:connector-curvature="0"
           id="path2302"
           style="fill:#19181b;fill-opacity:1;fill-rule:nonzero;stroke:none"
           d="m 0,0 c 0,-1.519 -1.063,-2.75 -2.375,-2.75 -1.312,0 -2.375,1.231 -2.375,2.75 0,1.519 1.063,2.75 2.375,2.75 C -1.063,2.75 0,1.519 0,0" /></g><g
         transform="translate(-135.4464,76.571739)"
         id="g2304"><path
           inkscape:connector-curvature="0"
           id="path2306"
           style="fill:#19181b;fill-opacity:1;fill-rule:nonzero;stroke:none"
           d="m 0,0 c 0,-1.277 -1.091,-2.313 -2.438,-2.313 -1.346,0 -2.437,1.036 -2.437,2.313 0,1.277 1.091,2.313 2.437,2.313 C -1.091,2.313 0,1.277 0,0" /></g><g
         transform="translate(-133.4464,73.884239)"
         id="g2308"><path
           inkscape:connector-curvature="0"
           id="path2310"
           style="fill:#19181b;fill-opacity:1;fill-rule:nonzero;stroke:none"
           d="m 0,0 c 0,-1.312 -1.063,-2.375 -2.375,-2.375 -1.312,0 -2.375,1.063 -2.375,2.375 0,1.312 1.063,2.375 2.375,2.375 C -1.063,2.375 0,1.312 0,0" /></g><g
         transform="translate(-134.4464,70.384239)"
         id="g2312"><path
           inkscape:connector-curvature="0"
           id="path2314"
           style="fill:#19181b;fill-opacity:1;fill-rule:nonzero;stroke:none"
           d="m 0,0 c 0,-1.035 -0.839,-1.875 -1.875,-1.875 -1.036,0 -1.875,0.84 -1.875,1.875 0,1.035 0.839,1.875 1.875,1.875 C -0.839,1.875 0,1.035 0,0" /></g><g
         transform="translate(-130.3214,70.384239)"
         id="g2316"><path
           inkscape:connector-curvature="0"
           id="path2318"
           style="fill:#19181b;fill-opacity:1;fill-rule:nonzero;stroke:none"
           d="m 0,0 c 0,-1.519 -1.231,-2.75 -2.75,-2.75 -1.519,0 -2.75,1.231 -2.75,2.75 0,1.519 1.231,2.75 2.75,2.75 C -1.231,2.75 0,1.519 0,0" /></g><g
         transform="translate(-130.3214,65.321739)"
         id="g2320"><path
           inkscape:connector-curvature="0"
           id="path2322"
           style="fill:#19181b;fill-opacity:1;fill-rule:nonzero;stroke:none"
           d="m 0,0 c 0,-1.968 -1.595,-3.563 -3.563,-3.563 -1.967,0 -3.562,1.595 -3.562,3.563 0,1.968 1.595,3.563 3.562,3.563 C -1.595,3.563 0,1.968 0,0" /></g><g
         transform="translate(-127.8214,67.259239)"
         id="g2324"><path
           inkscape:connector-curvature="0"
           id="path2326"
           style="fill:#19181b;fill-opacity:1;fill-rule:nonzero;stroke:none"
           d="m 0,0 c 0,-1.242 -1.007,-2.25 -2.25,-2.25 -1.243,0 -2.25,1.008 -2.25,2.25 0,1.242 1.007,2.25 2.25,2.25 C -1.007,2.25 0,1.242 0,0" /></g><g
         transform="translate(-124.9464,63.071739)"
         id="g2328"><path
           inkscape:connector-curvature="0"
           id="path2330"
           style="fill:#19181b;fill-opacity:1;fill-rule:nonzero;stroke:none"
           d="m 0,0 c 0,-1.554 -1.259,-2.813 -2.813,-2.813 -1.553,0 -2.812,1.259 -2.812,2.813 0,1.554 1.259,2.813 2.812,2.813 C -1.259,2.813 0,1.554 0,0" /></g><g
         transform="translate(-126.4464,60.134239)"
         id="g2332"><path
           inkscape:connector-curvature="0"
           id="path2334"
           style="fill:#19181b;fill-opacity:1;fill-rule:nonzero;stroke:none"
           d="m 0,0 c 0,-1.242 -1.007,-2.25 -2.25,-2.25 -1.243,0 -2.25,1.008 -2.25,2.25 0,1.242 1.007,2.25 2.25,2.25 C -1.007,2.25 0,1.242 0,0" /></g><g
         transform="translate(-121.6964,62.259239)"
         id="g2336"><path
           inkscape:connector-curvature="0"
           id="path2338"
           style="fill:#19181b;fill-opacity:1;fill-rule:nonzero;stroke:none"
           d="M 0,0 C 0,-1.381 -1.119,-2.5 -2.5,-2.5 -3.881,-2.5 -5,-1.381 -5,0 -5,1.381 -3.881,2.5 -2.5,2.5 -1.119,2.5 0,1.381 0,0" /></g><g
         transform="translate(-120.1964,61.071739)"
         id="g2340"><path
           inkscape:connector-curvature="0"
           id="path2342"
           style="fill:#19181b;fill-opacity:1;fill-rule:nonzero;stroke:none"
           d="m 0,0 c 0,-0.725 -0.587,-1.313 -1.313,-1.313 -0.725,0 -1.312,0.588 -1.312,1.313 0,0.725 0.587,1.313 1.312,1.313 C -0.587,1.313 0,0.725 0,0" /></g><g
         transform="translate(-129.3214,61.821739)"
         id="g2344"><path
           inkscape:connector-curvature="0"
           id="path2346"
           style="fill:#19181b;fill-opacity:1;fill-rule:nonzero;stroke:none"
           d="m 0,0 c 0,-1.346 -1.091,-2.438 -2.438,-2.438 -1.346,0 -2.437,1.092 -2.437,2.438 0,1.346 1.091,2.438 2.437,2.438 C -1.091,2.438 0,1.346 0,0" /></g><g
         transform="translate(-124.5714,60.446739)"
         id="g2348"><path
           inkscape:connector-curvature="0"
           id="path2350"
           style="fill:#19181b;fill-opacity:1;fill-rule:nonzero;stroke:none"
           d="m 0,0 c 0,-0.863 -0.7,-1.563 -1.563,-1.563 -0.862,0 -1.562,0.7 -1.562,1.563 0,0.863 0.7,1.563 1.562,1.563 C -0.7,1.563 0,0.863 0,0" /></g><g
         transform="translate(-133.0714,68.446739)"
         id="g2352"><path
           inkscape:connector-curvature="0"
           id="path2354"
           style="fill:#19181b;fill-opacity:1;fill-rule:nonzero;stroke:none"
           d="m 0,0 c 0,-1.001 -0.812,-1.813 -1.813,-1.813 -1,0 -1.812,0.812 -1.812,1.813 0,1.001 0.812,1.813 1.812,1.813 C -0.812,1.813 0,1.001 0,0" /></g><g
         transform="translate(-132.8214,82.946739)"
         id="g2356"><path
           inkscape:connector-curvature="0"
           id="path2358"
           style="fill:#19181b;fill-opacity:1;fill-rule:nonzero;stroke:none"
           d="m 0,0 c 0,-1.346 -1.091,-2.438 -2.438,-2.438 -1.346,0 -2.437,1.092 -2.437,2.438 0,1.346 1.091,2.438 2.437,2.438 C -1.091,2.438 0,1.346 0,0" /></g><g
         transform="translate(-131.5714,85.259239)"
         id="g2360"><path
           inkscape:connector-curvature="0"
           id="path2362"
           style="fill:#19181b;fill-opacity:1;fill-rule:nonzero;stroke:none"
           d="m 0,0 c 0,-0.69 -0.56,-1.25 -1.25,-1.25 -0.69,0 -1.25,0.56 -1.25,1.25 0,0.69 0.56,1.25 1.25,1.25 C -0.56,1.25 0,0.69 0,0" /></g><g
         transform="translate(-135.9318,84.142039)"
         id="g2364"><path
           inkscape:connector-curvature="0"
           id="path2366"
           style="fill:#19181b;fill-opacity:1;fill-rule:nonzero;stroke:none"
           d="m 0,0 c 0,-12.118 14.753,-21.938 25.218,-21.938 10.465,0 24.841,9.82 24.841,21.938 0,12.117 -12.793,21.94 -24.841,21.94 C 13.171,21.94 0,12.117 0,0" /></g><g
         transform="translate(-87.3429,80.971139)"
         id="g2404"><path
           inkscape:connector-curvature="0"
           id="path2406"
           style="fill:#c3724b;fill-opacity:1;fill-rule:nonzero;stroke:none"
           d="m 0,0 c -1.357,10.597 -13.105,18.885 -23.91,18.885 -10.795,0 -22.219,-8.277 -23.551,-18.865 -0.086,-0.676 -0.131,-1.361 -0.131,-2.055 0,-11.552 13.705,-20.917 23.682,-20.917 9.98,0 24.047,9.365 24.047,20.917 C 0.137,-1.348 0.088,-0.669 0,0" /></g><g
         transform="translate(-114.0421,76.119639)"
         id="g2408"><path
           inkscape:connector-curvature="0"
           id="path2410"
           style="fill:#a35738;fill-opacity:1;fill-rule:nonzero;stroke:none"
           d="M 0,0 C 1.381,1.438 3.662,1.484 5.1,0.104" /></g><g
         transform="translate(-132.4112,76.592239)"
         id="g2432"><path
           inkscape:connector-curvature="0"
           id="path2434"
           style="fill:#c3724b;fill-opacity:1;fill-rule:nonzero;stroke:none"
           d="m 0,0 c 0,-1.492 -1.238,-2.704 -2.764,-2.704 -1.527,0 -2.765,1.212 -2.765,2.704 0,1.495 1.238,2.706 2.765,2.706 C -1.238,2.706 0,1.495 0,0" /></g><g
         transform="translate(-84.3214,76.592239)"
         id="g2436"><path
           inkscape:connector-curvature="0"
           id="path2438"
           style="fill:#c3724b;fill-opacity:1;fill-rule:nonzero;stroke:none"
           d="m 0,0 c 0,-1.492 -1.24,-2.704 -2.766,-2.704 -1.527,0 -2.767,1.212 -2.767,2.704 0,1.495 1.24,2.706 2.767,2.706 C -1.24,2.706 0,1.495 0,0" /></g><g
         transform="translate(-105.5099,100.18504)"
         id="g2500"><path
           inkscape:connector-curvature="0"
           id="path2502"
           style="fill:#19181b;fill-opacity:1;fill-rule:nonzero;stroke:none"
           d="m 0,0 c 0,0 -0.065,-2.638 1.057,-5.763 1.122,-3.127 2.111,-6.374 5.941,-6.613 3.829,-0.24 4.818,0.121 6.535,-0.24 1.717,-0.362 2.84,-1.444 3.367,-2.526 0.528,-1.082 1.321,-2.523 1.387,-3.125 0.066,-0.599 -0.462,4.448 -0.462,4.448 L 14.919,-5.284 8.517,1.089 3.104,1.69 0,0 z" /></g><g
         transform="translate(-104.8844,100.18504)"
         id="g2504"><path
           inkscape:connector-curvature="0"
           id="path2506"
           style="fill:#19181b;fill-opacity:1;fill-rule:nonzero;stroke:none"
           d="m 0,0 c 0,0 0.106,-2.638 -1.742,-5.763 -1.85,-3.127 -3.48,-6.374 -9.792,-6.613 -6.31,-0.24 -7.94,0.121 -10.769,-0.24 -2.828,-0.362 -4.679,-1.444 -5.55,-2.526 -0.869,-1.082 -2.175,-2.523 -2.284,-3.125 -0.109,-0.599 0.762,4.448 0.762,4.448 l 4.788,8.535 10.551,6.373 8.92,0.601 L 0,0 z" /></g><g
         transform="translate(-128.8546,63.812939)"
         id="g2508"><path
           inkscape:connector-curvature="0"
           id="path2510"
           style="fill:#19181b;fill-opacity:1;fill-rule:nonzero;stroke:none"
           d="m 0,0 c 0,-1.208 -0.979,-2.188 -2.188,-2.188 -1.208,0 -2.187,0.98 -2.187,2.188 0,1.208 0.979,2.188 2.187,2.188 C -0.979,2.188 0,1.208 0,0" /></g><g
         transform="translate(-94.4796,64.062939)"
         id="g2512"><path
           inkscape:connector-curvature="0"
           id="path2514"
           style="fill:#19181b;fill-opacity:1;fill-rule:nonzero;stroke:none"
           d="m 0,0 c 0,-0.863 0.7,-1.563 1.563,-1.563 0.862,0 1.562,0.7 1.562,1.563 0,0.863 -0.7,1.563 -1.562,1.563 C 0.7,1.563 0,0.863 0,0" /></g><g
         transform="translate(-132.7296,83.875439)"
         id="g2516"><path
           inkscape:connector-curvature="0"
           id="path2518"
           style="fill:#19181b;fill-opacity:1;fill-rule:nonzero;stroke:none"
           d="m 0,0 c 0,-0.621 -0.504,-1.125 -1.125,-1.125 -0.621,0 -1.125,0.504 -1.125,1.125 0,0.621 0.504,1.125 1.125,1.125 C -0.504,1.125 0,0.621 0,0" /></g><g
         transform="translate(-130.9796,85.375439)"
         id="g2520"><path
           inkscape:connector-curvature="0"
           id="path2522"
           style="fill:#19181b;fill-opacity:1;fill-rule:nonzero;stroke:none"
           d="m 0,0 c 0,-0.76 -0.616,-1.375 -1.375,-1.375 -0.759,0 -1.375,0.615 -1.375,1.375 0,0.76 0.616,1.375 1.375,1.375 C -0.616,1.375 0,0.76 0,0" /></g><g
         transform="translate(-129.3546,87.375439)"
         id="g2524"><path
           inkscape:connector-curvature="0"
           id="path2526"
           style="fill:#19181b;fill-opacity:1;fill-rule:nonzero;stroke:none"
           d="M 0,0 C 0,-0.828 -0.671,-1.5 -1.5,-1.5 -2.329,-1.5 -3,-0.828 -3,0 -3,0.828 -2.329,1.5 -1.5,1.5 -0.671,1.5 0,0.828 0,0" /></g><g
         transform="translate(-127.4796,87.562939)"
         id="g2528"><path
           inkscape:connector-curvature="0"
           id="path2530"
           style="fill:#19181b;fill-opacity:1;fill-rule:nonzero;stroke:none"
           d="m 0,0 c 0,-0.656 -0.532,-1.188 -1.188,-1.188 -0.655,0 -1.187,0.532 -1.187,1.188 0,0.656 0.532,1.188 1.187,1.188 C -0.532,1.188 0,0.656 0,0" /></g><g
         transform="translate(-125.3546,88.375439)"
         id="g2532"><path
           inkscape:connector-curvature="0"
           id="path2534"
           style="fill:#19181b;fill-opacity:1;fill-rule:nonzero;stroke:none"
           d="m 0,0 c 0,-0.897 -0.728,-1.625 -1.625,-1.625 -0.897,0 -1.625,0.728 -1.625,1.625 0,0.897 0.728,1.625 1.625,1.625 C -0.728,1.625 0,0.897 0,0" /></g><g
         transform="translate(-122.4796,89.312939)"
         id="g2536"><path
           inkscape:connector-curvature="0"
           id="path2538"
           style="fill:#19181b;fill-opacity:1;fill-rule:nonzero;stroke:none"
           d="m 0,0 c 0,-1.346 -1.091,-2.438 -2.438,-2.438 -1.346,0 -2.437,1.092 -2.437,2.438 0,1.346 1.091,2.438 2.437,2.438 C -1.091,2.438 0,1.346 0,0" /></g><g
         transform="translate(-119.8546,87.812939)"
         id="g2540"><path
           inkscape:connector-curvature="0"
           id="path2542"
           style="fill:#19181b;fill-opacity:1;fill-rule:nonzero;stroke:none"
           d="m 0,0 c 0,-1.001 -0.812,-1.813 -1.813,-1.813 -1,0 -1.812,0.812 -1.812,1.813 0,1.001 0.812,1.813 1.812,1.813 C -0.812,1.813 0,1.001 0,0" /></g><g
         transform="translate(-117.6046,88.937939)"
         id="g2544"><path
           inkscape:connector-curvature="0"
           id="path2546"
           style="fill:#19181b;fill-opacity:1;fill-rule:nonzero;stroke:none"
           d="m 0,0 c 0,-1.139 -0.923,-2.063 -2.063,-2.063 -1.139,0 -2.062,0.924 -2.062,2.063 0,1.139 0.923,2.063 2.062,2.063 C -0.923,2.063 0,1.139 0,0" /></g><g
         transform="translate(-114.8546,89.000439)"
         id="g2548"><path
           inkscape:connector-curvature="0"
           id="path2550"
           style="fill:#19181b;fill-opacity:1;fill-rule:nonzero;stroke:none"
           d="m 0,0 c 0,-0.897 -0.728,-1.625 -1.625,-1.625 -0.897,0 -1.625,0.728 -1.625,1.625 0,0.897 0.728,1.625 1.625,1.625 C -0.728,1.625 0,0.897 0,0" /></g><g
         transform="translate(-112.6046,89.687939)"
         id="g2552"><path
           inkscape:connector-curvature="0"
           id="path2554"
           style="fill:#19181b;fill-opacity:1;fill-rule:nonzero;stroke:none"
           d="m 0,0 c 0,-1.277 -1.035,-2.313 -2.313,-2.313 -1.277,0 -2.312,1.036 -2.312,2.313 0,1.277 1.035,2.313 2.312,2.313 C -1.035,2.313 0,1.277 0,0" /></g><g
         transform="translate(-108.2296,91.562939)"
         id="g2556"><path
           inkscape:connector-curvature="0"
           id="path2558"
           style="fill:#19181b;fill-opacity:1;fill-rule:nonzero;stroke:none"
           d="m 0,0 c 0,-1.691 -1.371,-3.063 -3.063,-3.063 -1.691,0 -3.062,1.372 -3.062,3.063 0,1.691 1.371,3.063 3.062,3.063 C -1.371,3.063 0,1.691 0,0" /></g><g
         transform="translate(-105.9796,93.812939)"
         id="g2560"><path
           inkscape:connector-curvature="0"
           id="path2562"
           style="fill:#19181b;fill-opacity:1;fill-rule:nonzero;stroke:none"
           d="m 0,0 c 0,-1.139 -0.923,-2.063 -2.063,-2.063 -1.139,0 -2.062,0.924 -2.062,2.063 0,1.139 0.923,2.063 2.062,2.063 C -0.923,2.063 0,1.139 0,0" /></g><g
         transform="translate(-104.8546,95.500439)"
         id="g2564"><path
           inkscape:connector-curvature="0"
           id="path2566"
           style="fill:#19181b;fill-opacity:1;fill-rule:nonzero;stroke:none"
           d="m 0,0 c 0,-0.76 -0.616,-1.375 -1.375,-1.375 -0.759,0 -1.375,0.615 -1.375,1.375 0,0.76 0.616,1.375 1.375,1.375 C -0.616,1.375 0,0.76 0,0" /></g><g
         transform="translate(-103.7296,97.125439)"
         id="g2568"><path
           inkscape:connector-curvature="0"
           id="path2570"
           style="fill:#19181b;fill-opacity:1;fill-rule:nonzero;stroke:none"
           d="m 0,0 c 0,-0.76 -0.616,-1.375 -1.375,-1.375 -0.759,0 -1.375,0.615 -1.375,1.375 0,0.76 0.616,1.375 1.375,1.375 C -0.616,1.375 0,0.76 0,0" /></g><g
         transform="translate(-103.4796,96.000439)"
         id="g2572"><path
           inkscape:connector-curvature="0"
           id="path2574"
           style="fill:#19181b;fill-opacity:1;fill-rule:nonzero;stroke:none"
           d="m 0,0 c 0,-0.621 -0.504,-1.125 -1.125,-1.125 -0.621,0 -1.125,0.504 -1.125,1.125 0,0.621 0.504,1.125 1.125,1.125 C -0.504,1.125 0,0.621 0,0" /></g><g
         transform="translate(-102.1046,93.812939)"
         id="g2576"><path
           inkscape:connector-curvature="0"
           id="path2578"
           style="fill:#19181b;fill-opacity:1;fill-rule:nonzero;stroke:none"
           d="m 0,0 c 0,-0.863 -0.7,-1.563 -1.563,-1.563 -0.862,0 -1.562,0.7 -1.562,1.563 0,0.863 0.7,1.563 1.562,1.563 C -0.7,1.563 0,0.863 0,0" /></g><g
         transform="translate(-101.1046,91.750439)"
         id="g2580"><path
           inkscape:connector-curvature="0"
           id="path2582"
           style="fill:#19181b;fill-opacity:1;fill-rule:nonzero;stroke:none"
           d="m 0,0 c 0,-0.897 -0.728,-1.625 -1.625,-1.625 -0.897,0 -1.625,0.728 -1.625,1.625 0,0.897 0.728,1.625 1.625,1.625 C -0.728,1.625 0,0.897 0,0" /></g><g
         transform="translate(-99.6046,89.062939)"
         id="g2584"><path
           inkscape:connector-curvature="0"
           id="path2586"
           style="fill:#19181b;fill-opacity:1;fill-rule:nonzero;stroke:none"
           d="m 0,0 c 0,-0.932 -0.755,-1.688 -1.688,-1.688 -0.932,0 -1.687,0.756 -1.687,1.688 0,0.932 0.755,1.688 1.687,1.688 C -0.755,1.688 0,0.932 0,0" /></g><g
         transform="translate(-97.9796,88.312939)"
         id="g2588"><path
           inkscape:connector-curvature="0"
           id="path2590"
           style="fill:#19181b;fill-opacity:1;fill-rule:nonzero;stroke:none"
           d="m 0,0 c 0,-0.725 -0.587,-1.313 -1.313,-1.313 -0.725,0 -1.312,0.588 -1.312,1.313 0,0.725 0.587,1.313 1.312,1.313 C -0.587,1.313 0,0.725 0,0" /></g><g
         transform="translate(-94.8546,88.437939)"
         id="g2592"><path
           inkscape:connector-curvature="0"
           id="path2594"
           style="fill:#19181b;fill-opacity:1;fill-rule:nonzero;stroke:none"
           d="m 0,0 c 0,-1.139 -0.923,-2.063 -2.063,-2.063 -1.139,0 -2.062,0.924 -2.062,2.063 0,1.139 0.923,2.063 2.062,2.063 C -0.923,2.063 0,1.139 0,0" /></g><g
         transform="translate(-93.1046,87.250439)"
         id="g2596"><path
           inkscape:connector-curvature="0"
           id="path2598"
           style="fill:#19181b;fill-opacity:1;fill-rule:nonzero;stroke:none"
           d="m 0,0 c 0,-0.76 -0.616,-1.375 -1.375,-1.375 -0.759,0 -1.375,0.615 -1.375,1.375 0,0.76 0.616,1.375 1.375,1.375 C -0.616,1.375 0,0.76 0,0" /></g><g
         transform="translate(-90.9796,87.812939)"
         id="g2600"><path
           inkscape:connector-curvature="0"
           id="path2602"
           style="fill:#19181b;fill-opacity:1;fill-rule:nonzero;stroke:none"
           d="m 0,0 c 0,-0.932 -0.755,-1.688 -1.688,-1.688 -0.932,0 -1.687,0.756 -1.687,1.688 0,0.932 0.755,1.688 1.687,1.688 C -0.755,1.688 0,0.932 0,0" /></g><g
         transform="translate(-88.9796,86.437939)"
         id="g2604"><path
           inkscape:connector-curvature="0"
           id="path2606"
           style="fill:#19181b;fill-opacity:1;fill-rule:nonzero;stroke:none"
           d="m 0,0 c 0,-0.932 -0.755,-1.688 -1.688,-1.688 -0.932,0 -1.687,0.756 -1.687,1.688 0,0.932 0.755,1.688 1.687,1.688 C -0.755,1.688 0,0.932 0,0" /></g><g
         transform="translate(-86.8546,85.125439)"
         id="g2608"><path
           inkscape:connector-curvature="0"
           id="path2610"
           style="fill:#19181b;fill-opacity:1;fill-rule:nonzero;stroke:none"
           d="M 0,0 C 0,-0.828 -0.671,-1.5 -1.5,-1.5 -2.329,-1.5 -3,-0.828 -3,0 -3,0.828 -2.329,1.5 -1.5,1.5 -0.671,1.5 0,0.828 0,0" /></g><g
         transform="translate(-86.8546,83.125439)"
         id="g2612"><path
           inkscape:connector-curvature="0"
           id="path2614"
           style="fill:#19181b;fill-opacity:1;fill-rule:nonzero;stroke:none"
           d="m 0,0 c 0,-0.621 -0.504,-1.125 -1.125,-1.125 -0.621,0 -1.125,0.504 -1.125,1.125 0,0.621 0.504,1.125 1.125,1.125 C -0.504,1.125 0,0.621 0,0" /></g><g
         transform="translate(-86.3546,81.000439)"
         id="g2616"><path
           inkscape:connector-curvature="0"
           id="path2618"
           style="fill:#19181b;fill-opacity:1;fill-rule:nonzero;stroke:none"
           d="m 0,0 c 0,-0.69 -0.56,-1.25 -1.25,-1.25 -0.69,0 -1.25,0.56 -1.25,1.25 0,0.69 0.56,1.25 1.25,1.25 C -0.56,1.25 0,0.69 0,0" /></g><g
         transform="translate(-134.2296,86.375439)"
         id="g2620"><path
           inkscape:connector-curvature="0"
           id="path2622"
           style="fill:#19181b;fill-opacity:1;fill-rule:nonzero;stroke:none"
           d="m 0,0 c 0,-1.035 -0.839,-1.875 -1.875,-1.875 -1.036,0 -1.875,0.84 -1.875,1.875 0,1.035 0.839,1.875 1.875,1.875 C -0.839,1.875 0,1.035 0,0" /></g><g
         transform="translate(-132.8546,88.875439)"
         id="g2624"><path
           inkscape:connector-curvature="0"
           id="path2626"
           style="fill:#19181b;fill-opacity:1;fill-rule:nonzero;stroke:none"
           d="M 0,0 C 0,-0.828 -0.671,-1.5 -1.5,-1.5 -2.329,-1.5 -3,-0.828 -3,0 -3,0.828 -2.329,1.5 -1.5,1.5 -0.671,1.5 0,0.828 0,0" /></g><g
         transform="translate(-131.4796,90.562939)"
         id="g2628"><path
           inkscape:connector-curvature="0"
           id="path2630"
           style="fill:#19181b;fill-opacity:1;fill-rule:nonzero;stroke:none"
           d="m 0,0 c 0,-1.139 -0.923,-2.063 -2.063,-2.063 -1.139,0 -2.062,0.924 -2.062,2.063 0,1.139 0.923,2.063 2.062,2.063 C -0.923,2.063 0,1.139 0,0" /></g><g
         transform="translate(-130.7296,93.500439)"
         id="g2632"><path
           inkscape:connector-curvature="0"
           id="path2634"
           style="fill:#19181b;fill-opacity:1;fill-rule:nonzero;stroke:none"
           d="M 0,0 C 0,-0.828 -0.671,-1.5 -1.5,-1.5 -2.329,-1.5 -3,-0.828 -3,0 -3,0.828 -2.329,1.5 -1.5,1.5 -0.671,1.5 0,0.828 0,0" /></g><g
         transform="translate(-129.1046,95.625439)"
         id="g2636"><path
           inkscape:connector-curvature="0"
           id="path2638"
           style="fill:#19181b;fill-opacity:1;fill-rule:nonzero;stroke:none"
           d="m 0,0 c 0,-0.967 -0.784,-1.75 -1.75,-1.75 -0.966,0 -1.75,0.783 -1.75,1.75 0,0.967 0.784,1.75 1.75,1.75 C -0.784,1.75 0,0.967 0,0" /></g><g
         transform="translate(-128.3546,97.875439)"
         id="g2640"><path
           inkscape:connector-curvature="0"
           id="path2642"
           style="fill:#19181b;fill-opacity:1;fill-rule:nonzero;stroke:none"
           d="M 0,0 C 0,-0.828 -0.671,-1.5 -1.5,-1.5 -2.329,-1.5 -3,-0.828 -3,0 -3,0.828 -2.329,1.5 -1.5,1.5 -0.671,1.5 0,0.828 0,0" /></g><g
         transform="translate(-126.4796,99.000439)"
         id="g2644"><path
           inkscape:connector-curvature="0"
           id="path2646"
           style="fill:#19181b;fill-opacity:1;fill-rule:nonzero;stroke:none"
           d="m 0,0 c 0,-0.897 -0.728,-1.625 -1.625,-1.625 -0.897,0 -1.625,0.728 -1.625,1.625 0,0.897 0.728,1.625 1.625,1.625 C -0.728,1.625 0,0.897 0,0" /></g><g
         transform="translate(-124.2296,100.50044)"
         id="g2648"><path
           inkscape:connector-curvature="0"
           id="path2650"
           style="fill:#19181b;fill-opacity:1;fill-rule:nonzero;stroke:none"
           d="m 0,0 c 0,-1.104 -0.896,-2 -2,-2 -1.104,0 -2,0.896 -2,2 0,1.104 0.896,2 2,2 1.104,0 2,-0.896 2,-2" /></g><g
         transform="translate(-122.4796,102.37544)"
         id="g2652"><path
           inkscape:connector-curvature="0"
           id="path2654"
           style="fill:#19181b;fill-opacity:1;fill-rule:nonzero;stroke:none"
           d="m 0,0 c 0,-0.967 -0.784,-1.75 -1.75,-1.75 -0.966,0 -1.75,0.783 -1.75,1.75 0,0.967 0.784,1.75 1.75,1.75 C -0.784,1.75 0,0.967 0,0" /></g><g
         transform="translate(-118.4796,102.81294)"
         id="g2656"><path
           inkscape:connector-curvature="0"
           id="path2658"
           style="fill:#19181b;fill-opacity:1;fill-rule:nonzero;stroke:none"
           d="m 0,0 c 0,-1.484 -1.203,-2.688 -2.688,-2.688 -1.484,0 -2.687,1.204 -2.687,2.688 0,1.484 1.203,2.688 2.687,2.688 C -1.203,2.688 0,1.484 0,0" /></g><g
         transform="translate(-116.3546,104.25044)"
         id="g2660"><path
           inkscape:connector-curvature="0"
           id="path2662"
           style="fill:#19181b;fill-opacity:1;fill-rule:nonzero;stroke:none"
           d="m 0,0 c 0,-1.035 -0.839,-1.875 -1.875,-1.875 -1.036,0 -1.875,0.84 -1.875,1.875 0,1.035 0.839,1.875 1.875,1.875 C -0.839,1.875 0,1.035 0,0" /></g><g
         transform="translate(-113.8546,104.75044)"
         id="g2664"><path
           inkscape:connector-curvature="0"
           id="path2666"
           style="fill:#19181b;fill-opacity:1;fill-rule:nonzero;stroke:none"
           d="m 0,0 c 0,-1.035 -0.839,-1.875 -1.875,-1.875 -1.036,0 -1.875,0.84 -1.875,1.875 0,1.035 0.839,1.875 1.875,1.875 C -0.839,1.875 0,1.035 0,0" /></g><g
         transform="translate(-111.2296,105.18794)"
         id="g2668"><path
           inkscape:connector-curvature="0"
           id="path2670"
           style="fill:#19181b;fill-opacity:1;fill-rule:nonzero;stroke:none"
           d="m 0,0 c 0,-1.07 -0.868,-1.938 -1.938,-1.938 -1.069,0 -1.937,0.868 -1.937,1.938 0,1.07 0.868,1.938 1.937,1.938 C -0.868,1.938 0,1.07 0,0" /></g><g
         transform="translate(-107.8546,105.50044)"
         id="g2672"><path
           inkscape:connector-curvature="0"
           id="path2674"
           style="fill:#19181b;fill-opacity:1;fill-rule:nonzero;stroke:none"
           d="m 0,0 c 0,-1.174 -0.951,-2.125 -2.125,-2.125 -1.174,0 -2.125,0.951 -2.125,2.125 0,1.174 0.951,2.125 2.125,2.125 C -0.951,2.125 0,1.174 0,0" /></g><g
         transform="translate(-105.1046,105.56294)"
         id="g2676"><path
           inkscape:connector-curvature="0"
           id="path2678"
           style="fill:#19181b;fill-opacity:1;fill-rule:nonzero;stroke:none"
           d="m 0,0 c 0,-0.932 -0.755,-1.688 -1.688,-1.688 -0.932,0 -1.687,0.756 -1.687,1.688 0,0.932 0.755,1.688 1.687,1.688 C -0.755,1.688 0,0.932 0,0" /></g><g
         transform="translate(-102.4796,103.93794)"
         id="g2680"><path
           inkscape:connector-curvature="0"
           id="path2682"
           style="fill:#19181b;fill-opacity:1;fill-rule:nonzero;stroke:none"
           d="m 0,0 c 0,-1.001 -0.812,-1.813 -1.813,-1.813 -1,0 -1.812,0.812 -1.812,1.813 0,1.001 0.812,1.813 1.812,1.813 C -0.812,1.813 0,1.001 0,0" /></g><g
         transform="translate(-99.9796,104.06294)"
         id="g2684"><path
           inkscape:connector-curvature="0"
           id="path2686"
           style="fill:#19181b;fill-opacity:1;fill-rule:nonzero;stroke:none"
           d="m 0,0 c 0,-0.794 -0.644,-1.438 -1.438,-1.438 -0.793,0 -1.437,0.644 -1.437,1.438 0,0.794 0.644,1.438 1.437,1.438 C -0.644,1.438 0,0.794 0,0" /></g><g
         transform="translate(-97.3546,103.12544)"
         id="g2688"><path
           inkscape:connector-curvature="0"
           id="path2690"
           style="fill:#19181b;fill-opacity:1;fill-rule:nonzero;stroke:none"
           d="m 0,0 c 0,-0.897 -0.728,-1.625 -1.625,-1.625 -0.897,0 -1.625,0.728 -1.625,1.625 0,0.897 0.728,1.625 1.625,1.625 C -0.728,1.625 0,0.897 0,0" /></g><g
         transform="translate(-95.6046,102.00044)"
         id="g2692"><path
           inkscape:connector-curvature="0"
           id="path2694"
           style="fill:#19181b;fill-opacity:1;fill-rule:nonzero;stroke:none"
           d="M 0,0 C 0,-0.828 -0.671,-1.5 -1.5,-1.5 -2.329,-1.5 -3,-0.828 -3,0 -3,0.828 -2.329,1.5 -1.5,1.5 -0.671,1.5 0,0.828 0,0" /></g><g
         transform="translate(-93.3546,100.12544)"
         id="g2696"><path
           inkscape:connector-curvature="0"
           id="path2698"
           style="fill:#19181b;fill-opacity:1;fill-rule:nonzero;stroke:none"
           d="m 0,0 c 0,-1.035 -0.839,-1.875 -1.875,-1.875 -1.036,0 -1.875,0.84 -1.875,1.875 0,1.035 0.839,1.875 1.875,1.875 C -0.839,1.875 0,1.035 0,0" /></g><g
         transform="translate(-91.1046,98.750439)"
         id="g2700"><path
           inkscape:connector-curvature="0"
           id="path2702"
           style="fill:#19181b;fill-opacity:1;fill-rule:nonzero;stroke:none"
           d="m 0,0 c 0,-0.897 -0.728,-1.625 -1.625,-1.625 -0.897,0 -1.625,0.728 -1.625,1.625 0,0.897 0.728,1.625 1.625,1.625 C -0.728,1.625 0,0.897 0,0" /></g><g
         transform="translate(-87.7296,96.437939)"
         id="g2704"><path
           inkscape:connector-curvature="0"
           id="path2706"
           style="fill:#19181b;fill-opacity:1;fill-rule:nonzero;stroke:none"
           d="m 0,0 c 0,-1.277 -1.035,-2.313 -2.313,-2.313 -1.277,0 -2.312,1.036 -2.312,2.313 0,1.277 1.035,2.313 2.312,2.313 C -1.035,2.313 0,1.277 0,0" /></g><g
         transform="translate(-87.1046,93.875439)"
         id="g2708"><path
           inkscape:connector-curvature="0"
           id="path2710"
           style="fill:#19181b;fill-opacity:1;fill-rule:nonzero;stroke:none"
           d="m 0,0 c 0,-1.242 -1.007,-2.25 -2.25,-2.25 -1.243,0 -2.25,1.008 -2.25,2.25 0,1.242 1.007,2.25 2.25,2.25 C -1.007,2.25 0,1.242 0,0" /></g><g
         transform="translate(-85.4796,90.625439)"
         id="g2712"><path
           inkscape:connector-curvature="0"
           id="path2714"
           style="fill:#19181b;fill-opacity:1;fill-rule:nonzero;stroke:none"
           d="m 0,0 c 0,-0.897 -0.728,-1.625 -1.625,-1.625 -0.897,0 -1.625,0.728 -1.625,1.625 0,0.897 0.728,1.625 1.625,1.625 C -0.728,1.625 0,0.897 0,0" /></g><g
         transform="translate(-85.6046,88.250439)"
         id="g2716"><path
           inkscape:connector-curvature="0"
           id="path2718"
           style="fill:#19181b;fill-opacity:1;fill-rule:nonzero;stroke:none"
           d="m 0,0 c 0,-0.69 -0.56,-1.25 -1.25,-1.25 -0.69,0 -1.25,0.56 -1.25,1.25 0,0.69 0.56,1.25 1.25,1.25 C -0.56,1.25 0,0.69 0,0" /></g><g
         transform="translate(-84.6046,85.562939)"
         id="g2720"><path
           inkscape:connector-curvature="0"
           id="path2722"
           style="fill:#19181b;fill-opacity:1;fill-rule:nonzero;stroke:none"
           d="m 0,0 c 0,-0.932 -0.755,-1.688 -1.688,-1.688 -0.932,0 -1.687,0.756 -1.687,1.688 0,0.932 0.755,1.688 1.687,1.688 C -0.755,1.688 0,0.932 0,0" /></g><g
         transform="translate(-133.7296,82.625439)"
         id="g2724"><path
           inkscape:connector-curvature="0"
           id="path2726"
           style="fill:#19181b;fill-opacity:1;fill-rule:nonzero;stroke:none"
           d="m 0,0 c 0,-0.553 -0.448,-1 -1,-1 -0.552,0 -1,0.447 -1,1 0,0.553 0.448,1 1,1 0.552,0 1,-0.447 1,-1" /></g><g
         transform="translate(-134.1046,80.812939)"
         id="g2728"><path
           inkscape:connector-curvature="0"
           id="path2730"
           style="fill:#19181b;fill-opacity:1;fill-rule:nonzero;stroke:none"
           d="m 0,0 c 0,-0.656 -0.532,-1.188 -1.188,-1.188 -0.655,0 -1.187,0.532 -1.187,1.188 0,0.656 0.532,1.188 1.187,1.188 C -0.532,1.188 0,0.656 0,0" /></g></g></g></svg>