<?xml version="1.0" encoding="UTF-8" standalone="no"?>
<!-- Created with Inkscape (http://www.inkscape.org/) -->

<svg
   xmlns:dc="http://purl.org/dc/elements/1.1/"
   xmlns:cc="http://creativecommons.org/ns#"
   xmlns:rdf="http://www.w3.org/1999/02/22-rdf-syntax-ns#"
   xmlns:svg="http://www.w3.org/2000/svg"
   xmlns="http://www.w3.org/2000/svg"
   xmlns:sodipodi="http://sodipodi.sourceforge.net/DTD/sodipodi-0.dtd"
   xmlns:inkscape="http://www.inkscape.org/namespaces/inkscape"
   id="svg2"
   version="1.1"
   inkscape:version="0.48.4 r9939"
   width="708.66125"
   height="708.66125"
   xml:space="preserve"
   sodipodi:docname="head_F_6.svg"><metadata
     id="metadata8"><rdf:RDF><cc:Work
         rdf:about=""><dc:format>image/svg+xml</dc:format><dc:type
           rdf:resource="http://purl.org/dc/dcmitype/StillImage" /><dc:title /></cc:Work></rdf:RDF></metadata><defs
     id="defs6"><clipPath
       clipPathUnits="userSpaceOnUse"
       id="clipPath18"><path
         d="m 0,566.929 566.929,0 L 566.929,0 0,0 0,566.929 z"
         id="path20" /></clipPath><clipPath
       clipPathUnits="userSpaceOnUse"
       id="clipPath5400"><path
         d="m 512.125,57.678 -12.313,2.001 c 0,0 -2.917,-12.25 -2.999,-13.334 l 0,0 c -0.083,-1.082 5.167,-3.501 15.583,-3.751 l 0,0 c 10.417,-0.249 15.333,1.669 15.333,2.919 l 0,0 c 0,1.25 -2.827,14.166 -2.827,14.166 l 0,0 -12.777,-2.001 z"
         id="path5402" /></clipPath><clipPath
       clipPathUnits="userSpaceOnUse"
       id="clipPath5432"><path
         d="m 495.045,77.3867 35.577,0 0,-36.999 -35.577,0 0,36.999 z"
         id="path5434" /></clipPath><clipPath
       clipPathUnits="userSpaceOnUse"
       id="clipPath5436"><path
         d="m 495.045,77.3867 35.577,0 0,-1.4228 -35.577,0 0,1.4228 z"
         id="path5438" /></clipPath><clipPath
       clipPathUnits="userSpaceOnUse"
       id="clipPath5440"><path
         d="m 495.045,74.1523 35.577,0 0,-1.4228 -35.577,0 0,1.4228 z"
         id="path5442" /></clipPath><clipPath
       clipPathUnits="userSpaceOnUse"
       id="clipPath5444"><path
         d="m 495.045,70.918 35.577,0 0,-1.4229 -35.577,0 0,1.4229 z"
         id="path5446" /></clipPath><clipPath
       clipPathUnits="userSpaceOnUse"
       id="clipPath5448"><path
         d="m 495.045,67.6846 35.577,0 0,-1.4229 -35.577,0 0,1.4229 z"
         id="path5450" /></clipPath><clipPath
       clipPathUnits="userSpaceOnUse"
       id="clipPath5452"><path
         d="m 495.045,64.4502 35.577,0 0,-1.4229 -35.577,0 0,1.4229 z"
         id="path5454" /></clipPath><clipPath
       clipPathUnits="userSpaceOnUse"
       id="clipPath5456"><path
         d="m 495.045,61.2158 35.577,0 0,-1.4228 -35.577,0 0,1.4228 z"
         id="path5458" /></clipPath><clipPath
       clipPathUnits="userSpaceOnUse"
       id="clipPath5460"><path
         d="m 495.045,57.9814 35.577,0 0,-1.4228 -35.577,0 0,1.4228 z"
         id="path5462" /></clipPath><clipPath
       clipPathUnits="userSpaceOnUse"
       id="clipPath5464"><path
         d="m 495.045,54.7471 35.577,0 0,-1.4229 -35.577,0 0,1.4229 z"
         id="path5466" /></clipPath><clipPath
       clipPathUnits="userSpaceOnUse"
       id="clipPath5468"><path
         d="m 495.045,51.5127 35.577,0 0,-1.4229 -35.577,0 0,1.4229 z"
         id="path5470" /></clipPath><clipPath
       clipPathUnits="userSpaceOnUse"
       id="clipPath5472"><path
         d="m 495.045,48.2793 35.577,0 0,-1.4229 -35.577,0 0,1.4229 z"
         id="path5474" /></clipPath><clipPath
       clipPathUnits="userSpaceOnUse"
       id="clipPath5476"><path
         d="m 495.045,45.0449 35.577,0 0,-1.4228 -35.577,0 0,1.4228 z"
         id="path5478" /></clipPath><clipPath
       clipPathUnits="userSpaceOnUse"
       id="clipPath5480"><path
         d="m 495.045,41.8105 35.577,0 0,-1.4228 -35.577,0 0,1.4228 z"
         id="path5482" /></clipPath><clipPath
       clipPathUnits="userSpaceOnUse"
       id="clipPath5612"><path
         d="m 0,566.929 566.929,0 L 566.929,0 0,0 0,566.929 z"
         id="path5614" /></clipPath></defs><sodipodi:namedview
     pagecolor="#ffffff"
     bordercolor="#666666"
     borderopacity="1"
     objecttolerance="10"
     gridtolerance="10"
     guidetolerance="10"
     inkscape:pageopacity="0"
     inkscape:pageshadow="2"
     inkscape:window-width="1920"
     inkscape:window-height="1135"
     id="namedview4"
     showgrid="false"
     inkscape:zoom="0.9419293"
     inkscape:cx="34.179395"
     inkscape:cy="383.59574"
     inkscape:window-x="-3"
     inkscape:window-y="-3"
     inkscape:window-maximized="1"
     inkscape:current-layer="svg2" /><g
     inkscape:groupmode="layer"
     id="layer1"
     inkscape:label="layer1"
     style="display:inline"><g
       style="display:inline"
       id="g15094"
       transform="matrix(11.148398,0,0,-11.148398,293.47322,1208.9179)"><g
         transform="translate(-17.88,51.728039)"
         id="g2800"><path
           inkscape:connector-curvature="0"
           id="path2802"
           style="fill:#19181b;fill-opacity:1;fill-rule:nonzero;stroke:none"
           d="m 0,0 c -0.617,-0.847 -1.275,-1.418 -1.469,-1.276 -0.193,0.14 0.149,0.941 0.766,1.789 0.617,0.845 1.275,1.418 1.469,1.276 C 0.96,1.647 0.617,0.847 0,0" /></g><g
         transform="translate(-17.3351,51.549239)"
         id="g2804"><path
           inkscape:connector-curvature="0"
           id="path2806"
           style="fill:#19181b;fill-opacity:1;fill-rule:nonzero;stroke:none"
           d="m 0,0 c -0.49,-0.926 -1.061,-1.585 -1.271,-1.473 -0.213,0.112 0.013,0.953 0.503,1.88 C -0.277,1.333 0.293,1.992 0.504,1.88 0.716,1.768 0.491,0.926 0,0" /></g><g
         transform="translate(-16.8058,51.353039)"
         id="g2808"><path
           inkscape:connector-curvature="0"
           id="path2810"
           style="fill:#19181b;fill-opacity:1;fill-rule:nonzero;stroke:none"
           d="m 0,0 c -0.406,-0.966 -0.916,-1.673 -1.137,-1.579 -0.22,0.093 -0.071,0.951 0.335,1.917 0.407,0.964 0.916,1.673 1.138,1.579 C 0.557,1.824 0.406,0.966 0,0" /></g><g
         transform="translate(-16.7316,51.210439)"
         id="g2812"><path
           inkscape:connector-curvature="0"
           id="path2814"
           style="fill:#19181b;fill-opacity:1;fill-rule:nonzero;stroke:none"
           d="M 0,0 C -0.228,-1.022 -0.221,-1.895 0.014,-1.946 0.247,-1.998 0.621,-1.212 0.848,-0.188 1.074,0.835 1.068,1.706 0.834,1.757 0.6,1.81 0.227,1.022 0,0" /></g><g
         transform="translate(-17.2277,51.500439)"
         id="g2816"><path
           inkscape:connector-curvature="0"
           id="path2818"
           style="fill:#19181b;fill-opacity:1;fill-rule:nonzero;stroke:none"
           d="m 0,0 c -0.369,-0.979 -0.486,-1.844 -0.262,-1.928 0.223,-0.085 0.705,0.641 1.076,1.621 0.37,0.981 0.488,1.844 0.263,1.928 C 0.853,1.707 0.371,0.98 0,0" /></g><g
         transform="translate(-9.67,66.703539)"
         id="g2820"><path
           inkscape:connector-curvature="0"
           id="path2822"
           style="fill:#19181b;fill-opacity:1;fill-rule:nonzero;stroke:none"
           d="m 0,0 c 0.076,-1.57 -0.46,-2.872 -1.198,-2.908 -0.74,-0.037 -1.401,1.207 -1.477,2.777 -0.077,1.57 0.46,2.871 1.199,2.907 C -0.737,2.813 -0.077,1.568 0,0" /></g><g
         transform="translate(-11.3976,66.502439)"
         id="g2824"><path
           inkscape:connector-curvature="0"
           id="path2826"
           style="fill:#19181b;fill-opacity:1;fill-rule:nonzero;stroke:none"
           d="M 0,0 C -1.227,-0.98 -1.85,-2.244 -1.387,-2.822 -0.926,-3.4 0.444,-3.073 1.672,-2.092 2.9,-1.111 3.521,0.152 3.06,0.73 2.598,1.309 1.229,0.98 0,0" /></g><g
         transform="translate(-11.1398,63.447739)"
         id="g2828"><path
           inkscape:connector-curvature="0"
           id="path2830"
           style="fill:#19181b;fill-opacity:1;fill-rule:nonzero;stroke:none"
           d="m 0,0 c 0.076,-1.569 -0.459,-2.872 -1.199,-2.908 -0.739,-0.035 -1.4,1.208 -1.477,2.777 -0.076,1.57 0.461,2.872 1.2,2.908 C -0.736,2.813 -0.076,1.57 0,0" /></g><g
         transform="translate(-12.8663,63.247539)"
         id="g2832"><path
           inkscape:connector-curvature="0"
           id="path2834"
           style="fill:#19181b;fill-opacity:1;fill-rule:nonzero;stroke:none"
           d="M 0,0 C -1.228,-0.981 -1.85,-2.244 -1.388,-2.822 -0.926,-3.4 0.443,-3.073 1.672,-2.093 2.9,-1.112 3.521,0.151 3.059,0.729 2.598,1.308 1.228,0.981 0,0" /></g><g
         transform="translate(-12.4562,60.521939)"
         id="g2836"><path
           inkscape:connector-curvature="0"
           id="path2838"
           style="fill:#19181b;fill-opacity:1;fill-rule:nonzero;stroke:none"
           d="m 0,0 c 0.067,-1.393 -0.408,-2.547 -1.064,-2.579 -0.655,-0.032 -1.242,1.071 -1.309,2.464 -0.068,1.392 0.408,2.547 1.063,2.579 C -0.654,2.495 -0.068,1.393 0,0" /></g><g
         transform="translate(-13.9874,60.344239)"
         id="g2840"><path
           inkscape:connector-curvature="0"
           id="path2842"
           style="fill:#19181b;fill-opacity:1;fill-rule:nonzero;stroke:none"
           d="m 0,0 c -1.09,-0.869 -1.641,-1.99 -1.231,-2.503 0.409,-0.513 1.624,-0.222 2.713,0.648 1.089,0.87 1.641,1.99 1.231,2.502 C 2.303,1.16 1.088,0.871 0,0" /></g><g
         transform="translate(-13.7706,57.855939)"
         id="g2844"><path
           inkscape:connector-curvature="0"
           id="path2846"
           style="fill:#19181b;fill-opacity:1;fill-rule:nonzero;stroke:none"
           d="m 0,0 c 0.063,-1.271 -0.373,-2.324 -0.971,-2.354 -0.597,-0.029 -1.133,0.977 -1.195,2.249 -0.061,1.269 0.373,2.324 0.971,2.353 C -0.597,2.277 -0.062,1.27 0,0" /></g><g
         transform="translate(-15.2911,57.457439)"
         id="g2848"><path
           inkscape:connector-curvature="0"
           id="path2850"
           style="fill:#19181b;fill-opacity:1;fill-rule:nonzero;stroke:none"
           d="m 0,0 c -1.089,-0.87 -1.64,-1.99 -1.231,-2.504 0.41,-0.512 1.625,-0.223 2.713,0.649 1.089,0.869 1.64,1.99 1.232,2.503 C 2.304,1.16 1.089,0.87 0,0" /></g><g
         transform="translate(-14.9816,55.693839)"
         id="g2852"><path
           inkscape:connector-curvature="0"
           id="path2854"
           style="fill:#19181b;fill-opacity:1;fill-rule:nonzero;stroke:none"
           d="m 0,0 c 0.052,-1.059 -0.311,-1.936 -0.809,-1.959 -0.498,-0.025 -0.943,0.813 -0.996,1.871 -0.05,1.059 0.311,1.938 0.809,1.961 C -0.498,1.897 -0.053,1.059 0,0" /></g><g
         transform="translate(-16.2491,55.363739)"
         id="g2856"><path
           inkscape:connector-curvature="0"
           id="path2858"
           style="fill:#19181b;fill-opacity:1;fill-rule:nonzero;stroke:none"
           d="m 0,0 c -0.906,-0.726 -1.365,-1.658 -1.025,-2.086 0.341,-0.427 1.353,-0.185 2.26,0.539 0.908,0.726 1.367,1.658 1.026,2.086 C 1.92,0.966 0.906,0.725 0,0" /></g><g
         transform="translate(-15.1652,53.086339)"
         id="g2860"><path
           inkscape:connector-curvature="0"
           id="path2862"
           style="fill:#ffbb3c;fill-opacity:1;fill-rule:nonzero;stroke:none"
           d="m 0,0 c -0.216,-0.479 -0.777,-0.691 -1.256,-0.475 l -0.712,0.322 c -0.477,0.216 -0.689,0.776 -0.473,1.255 0.214,0.476 0.777,0.689 1.253,0.474 L -0.475,1.254 C 0.003,1.039 0.215,0.477 0,0" /></g><g
         transform="translate(28.1122,51.728039)"
         id="g2864"><path
           inkscape:connector-curvature="0"
           id="path2866"
           style="fill:#19181b;fill-opacity:1;fill-rule:nonzero;stroke:none"
           d="M 0,0 C 0.617,-0.847 1.275,-1.418 1.469,-1.276 1.662,-1.136 1.32,-0.335 0.703,0.513 0.086,1.358 -0.572,1.931 -0.766,1.789 -0.96,1.647 -0.617,0.847 0,0" /></g><g
         transform="translate(27.5673,51.549239)"
         id="g2868"><path
           inkscape:connector-curvature="0"
           id="path2870"
           style="fill:#19181b;fill-opacity:1;fill-rule:nonzero;stroke:none"
           d="M 0,0 C 0.49,-0.926 1.061,-1.585 1.271,-1.473 1.484,-1.361 1.258,-0.52 0.768,0.407 0.277,1.333 -0.293,1.992 -0.504,1.88 -0.716,1.768 -0.491,0.926 0,0" /></g><g
         transform="translate(27.038,51.353039)"
         id="g2872"><path
           inkscape:connector-curvature="0"
           id="path2874"
           style="fill:#19181b;fill-opacity:1;fill-rule:nonzero;stroke:none"
           d="M 0,0 C 0.406,-0.966 0.916,-1.673 1.137,-1.579 1.357,-1.486 1.208,-0.628 0.802,0.338 0.395,1.302 -0.114,2.011 -0.336,1.917 -0.557,1.824 -0.406,0.966 0,0" /></g><g
         transform="translate(26.9638,51.210439)"
         id="g2876"><path
           inkscape:connector-curvature="0"
           id="path2878"
           style="fill:#19181b;fill-opacity:1;fill-rule:nonzero;stroke:none"
           d="m 0,0 c 0.228,-1.022 0.221,-1.895 -0.014,-1.946 -0.233,-0.052 -0.607,0.734 -0.834,1.758 -0.226,1.023 -0.22,1.894 0.014,1.945 C -0.6,1.81 -0.227,1.022 0,0" /></g><g
         transform="translate(27.4598,51.500439)"
         id="g2880"><path
           inkscape:connector-curvature="0"
           id="path2882"
           style="fill:#19181b;fill-opacity:1;fill-rule:nonzero;stroke:none"
           d="M 0,0 C 0.369,-0.979 0.486,-1.844 0.262,-1.928 0.039,-2.013 -0.443,-1.287 -0.814,-0.307 -1.184,0.674 -1.302,1.537 -1.077,1.621 -0.853,1.707 -0.371,0.98 0,0" /></g><g
         transform="translate(19.9022,66.703539)"
         id="g2884"><path
           inkscape:connector-curvature="0"
           id="path2886"
           style="fill:#19181b;fill-opacity:1;fill-rule:nonzero;stroke:none"
           d="m 0,0 c -0.076,-1.57 0.46,-2.872 1.198,-2.908 0.74,-0.037 1.401,1.207 1.477,2.777 C 2.752,1.439 2.215,2.74 1.476,2.776 0.737,2.813 0.077,1.568 0,0" /></g><g
         transform="translate(21.6298,66.502439)"
         id="g2888"><path
           inkscape:connector-curvature="0"
           id="path2890"
           style="fill:#19181b;fill-opacity:1;fill-rule:nonzero;stroke:none"
           d="M 0,0 C 1.227,-0.98 1.85,-2.244 1.387,-2.822 0.926,-3.4 -0.444,-3.073 -1.672,-2.092 -2.9,-1.111 -3.521,0.152 -3.06,0.73 -2.598,1.309 -1.229,0.98 0,0" /></g><g
         transform="translate(21.372,63.447739)"
         id="g2892"><path
           inkscape:connector-curvature="0"
           id="path2894"
           style="fill:#19181b;fill-opacity:1;fill-rule:nonzero;stroke:none"
           d="m 0,0 c -0.076,-1.569 0.459,-2.872 1.199,-2.908 0.739,-0.035 1.4,1.208 1.477,2.777 0.076,1.57 -0.461,2.872 -1.2,2.908 C 0.736,2.813 0.076,1.57 0,0" /></g><g
         transform="translate(23.0985,63.247539)"
         id="g2896"><path
           inkscape:connector-curvature="0"
           id="path2898"
           style="fill:#19181b;fill-opacity:1;fill-rule:nonzero;stroke:none"
           d="M 0,0 C 1.228,-0.981 1.85,-2.244 1.388,-2.822 0.926,-3.4 -0.443,-3.073 -1.672,-2.093 -2.9,-1.112 -3.521,0.151 -3.059,0.729 -2.598,1.308 -1.228,0.981 0,0" /></g><g
         transform="translate(22.6884,60.521939)"
         id="g2900"><path
           inkscape:connector-curvature="0"
           id="path2902"
           style="fill:#19181b;fill-opacity:1;fill-rule:nonzero;stroke:none"
           d="M 0,0 C -0.067,-1.393 0.408,-2.547 1.064,-2.579 1.719,-2.611 2.306,-1.508 2.373,-0.115 2.441,1.277 1.965,2.432 1.31,2.464 0.654,2.495 0.068,1.393 0,0" /></g><g
         transform="translate(24.2196,60.344239)"
         id="g2904"><path
           inkscape:connector-curvature="0"
           id="path2906"
           style="fill:#19181b;fill-opacity:1;fill-rule:nonzero;stroke:none"
           d="m 0,0 c 1.09,-0.869 1.641,-1.99 1.231,-2.503 -0.409,-0.513 -1.624,-0.222 -2.713,0.648 -1.089,0.87 -1.641,1.99 -1.231,2.502 C -2.303,1.16 -1.088,0.871 0,0" /></g><g
         transform="translate(24.0028,57.855939)"
         id="g2908"><path
           inkscape:connector-curvature="0"
           id="path2910"
           style="fill:#19181b;fill-opacity:1;fill-rule:nonzero;stroke:none"
           d="M 0,0 C -0.063,-1.271 0.373,-2.324 0.971,-2.354 1.568,-2.383 2.104,-1.377 2.166,-0.105 2.227,1.164 1.793,2.219 1.195,2.248 0.597,2.277 0.062,1.27 0,0" /></g><g
         transform="translate(25.5233,57.457439)"
         id="g2912"><path
           inkscape:connector-curvature="0"
           id="path2914"
           style="fill:#19181b;fill-opacity:1;fill-rule:nonzero;stroke:none"
           d="m 0,0 c 1.089,-0.87 1.64,-1.99 1.231,-2.504 -0.41,-0.512 -1.625,-0.223 -2.713,0.649 -1.089,0.869 -1.64,1.99 -1.232,2.503 C -2.304,1.16 -1.089,0.87 0,0" /></g><g
         transform="translate(25.2138,55.693839)"
         id="g2916"><path
           inkscape:connector-curvature="0"
           id="path2918"
           style="fill:#19181b;fill-opacity:1;fill-rule:nonzero;stroke:none"
           d="M 0,0 C -0.052,-1.059 0.311,-1.936 0.809,-1.959 1.307,-1.984 1.752,-1.146 1.805,-0.088 1.855,0.971 1.494,1.85 0.996,1.873 0.498,1.897 0.053,1.059 0,0" /></g><g
         transform="translate(26.4813,55.363739)"
         id="g2920"><path
           inkscape:connector-curvature="0"
           id="path2922"
           style="fill:#19181b;fill-opacity:1;fill-rule:nonzero;stroke:none"
           d="M 0,0 C 0.906,-0.726 1.365,-1.658 1.025,-2.086 0.684,-2.513 -0.328,-2.271 -1.235,-1.547 -2.143,-0.821 -2.602,0.111 -2.261,0.539 -1.92,0.966 -0.906,0.725 0,0" /></g><g
         transform="translate(25.3973,53.086339)"
         id="g2924"><path
           inkscape:connector-curvature="0"
           id="path2926"
           style="fill:#ffbb3c;fill-opacity:1;fill-rule:nonzero;stroke:none"
           d="m 0,0 c 0.216,-0.479 0.777,-0.691 1.256,-0.475 l 0.712,0.322 C 2.445,0.063 2.657,0.623 2.441,1.102 2.227,1.578 1.664,1.791 1.188,1.576 L 0.475,1.254 C -0.003,1.039 -0.215,0.477 0,0" /></g><g
         transform="translate(30.3895,84.267039)"
         id="g2948"><path
           inkscape:connector-curvature="0"
           id="path2950"
           style="fill:#19181b;fill-opacity:1;fill-rule:nonzero;stroke:none"
           d="m 0,0 c 0,-12.118 -14.754,-21.938 -25.218,-21.938 -10.465,0 -24.841,9.82 -24.841,21.938 0,12.117 12.793,21.94 24.841,21.94 C -13.172,21.94 0,12.117 0,0" /></g><g
         transform="translate(29.1571,80.471139)"
         id="g2952"><path
           inkscape:connector-curvature="0"
           id="path2954"
           style="fill:#f9cdb9;fill-opacity:1;fill-rule:nonzero;stroke:none"
           d="m 0,0 c -1.357,10.597 -13.105,18.885 -23.91,18.885 -10.795,0 -22.219,-8.277 -23.55,-18.865 -0.086,-0.676 -0.132,-1.361 -0.132,-2.055 0,-11.552 13.705,-20.917 23.682,-20.917 9.98,0 24.047,9.365 24.047,20.917 C 0.137,-1.348 0.088,-0.669 0,0" /></g><g
         transform="translate(2.4574,75.619639)"
         id="g2964"><path
           inkscape:connector-curvature="0"
           id="path2966"
           style="fill:#e3b09f;fill-opacity:1;fill-rule:nonzero;stroke:none"
           d="M 0,0 C 1.382,1.438 3.662,1.484 5.101,0.104" /></g><g
         transform="translate(-15.9108,76.092239)"
         id="g2988"><path
           inkscape:connector-curvature="0"
           id="path2990"
           style="fill:#f9cdb9;fill-opacity:1;fill-rule:nonzero;stroke:none"
           d="m 0,0 c 0,-1.492 -1.238,-2.704 -2.764,-2.704 -1.527,0 -2.765,1.212 -2.765,2.704 0,1.495 1.238,2.706 2.765,2.706 C -1.238,2.706 0,1.495 0,0" /></g><g
         transform="translate(32.1786,76.092239)"
         id="g2992"><path
           inkscape:connector-curvature="0"
           id="path2994"
           style="fill:#f9cdb9;fill-opacity:1;fill-rule:nonzero;stroke:none"
           d="m 0,0 c 0,-1.492 -1.24,-2.704 -2.766,-2.704 -1.527,0 -2.767,1.212 -2.767,2.704 0,1.495 1.24,2.706 2.767,2.706 C -1.24,2.706 0,1.495 0,0" /></g><g
         transform="translate(6.5243,101.14494)"
         id="g3004"><path
           inkscape:connector-curvature="0"
           id="path3006"
           style="fill:#19181b;fill-opacity:1;fill-rule:nonzero;stroke:none"
           d="m 0,0 c 0,0 0.14,-3.473 -1.388,-6.598 -1.527,-3.127 -2.874,-6.374 -8.087,-6.613 -5.212,-0.24 -6.56,0.121 -8.896,-0.24 -2.337,-0.362 -3.865,-1.444 -4.584,-2.526 -0.717,-1.082 -1.797,-2.523 -1.887,-3.125 -0.09,-0.599 0.629,4.448 0.629,4.448 l 3.955,8.535 8.716,6.373 7.368,0.601 L 0,0 z" /></g><g
         transform="translate(4.223,101.63324)"
         id="g3008"><path
           inkscape:connector-curvature="0"
           id="path3010"
           style="fill:#19181b;fill-opacity:1;fill-rule:nonzero;stroke:none"
           d="m 0,0 c 0,0 -0.029,-3.961 1.499,-7.086 1.526,-3.127 2.874,-6.374 8.087,-6.613 5.212,-0.24 6.56,0.121 8.895,-0.24 2.337,-0.362 3.866,-1.444 4.585,-2.526 0.717,-1.082 1.797,-2.523 1.887,-3.125 0.089,-0.599 -0.629,4.447 -0.629,4.447 L 20.369,-6.607 11.652,-0.234 4.285,0.367 0,0 z" /></g><g
         transform="translate(6.1054,83.433039)"
         id="g3056"><path
           inkscape:connector-curvature="0"
           id="path3058"
           style="fill:#d8669a;fill-opacity:1;fill-rule:nonzero;stroke:none"
           d="m 0,0 c 0,-0.501 -0.406,-0.906 -0.906,-0.906 -0.501,0 -0.907,0.405 -0.907,0.906 0,0.5 0.406,0.906 0.907,0.906 C -0.406,0.906 0,0.5 0,0" /></g></g></g></svg>