<?xml version="1.0" encoding="UTF-8" standalone="no"?>
<!-- Created with Inkscape (http://www.inkscape.org/) -->

<svg
   xmlns:dc="http://purl.org/dc/elements/1.1/"
   xmlns:cc="http://creativecommons.org/ns#"
   xmlns:rdf="http://www.w3.org/1999/02/22-rdf-syntax-ns#"
   xmlns:svg="http://www.w3.org/2000/svg"
   xmlns="http://www.w3.org/2000/svg"
   xmlns:sodipodi="http://sodipodi.sourceforge.net/DTD/sodipodi-0.dtd"
   xmlns:inkscape="http://www.inkscape.org/namespaces/inkscape"
   id="svg2"
   version="1.1"
   inkscape:version="0.48.4 r9939"
   width="708.66125"
   height="708.66125"
   xml:space="preserve"
   sodipodi:docname="head_F_1.svg"><metadata
     id="metadata8"><rdf:RDF><cc:Work
         rdf:about=""><dc:format>image/svg+xml</dc:format><dc:type
           rdf:resource="http://purl.org/dc/dcmitype/StillImage" /><dc:title></dc:title></cc:Work></rdf:RDF></metadata><defs
     id="defs6"><clipPath
       clipPathUnits="userSpaceOnUse"
       id="clipPath18"><path
         d="m 0,566.929 566.929,0 L 566.929,0 0,0 0,566.929 z"
         id="path20" /></clipPath><clipPath
       clipPathUnits="userSpaceOnUse"
       id="clipPath5400"><path
         d="m 512.125,57.678 -12.313,2.001 c 0,0 -2.917,-12.25 -2.999,-13.334 l 0,0 c -0.083,-1.082 5.167,-3.501 15.583,-3.751 l 0,0 c 10.417,-0.249 15.333,1.669 15.333,2.919 l 0,0 c 0,1.25 -2.827,14.166 -2.827,14.166 l 0,0 -12.777,-2.001 z"
         id="path5402" /></clipPath><clipPath
       clipPathUnits="userSpaceOnUse"
       id="clipPath5432"><path
         d="m 495.045,77.3867 35.577,0 0,-36.999 -35.577,0 0,36.999 z"
         id="path5434" /></clipPath><clipPath
       clipPathUnits="userSpaceOnUse"
       id="clipPath5436"><path
         d="m 495.045,77.3867 35.577,0 0,-1.4228 -35.577,0 0,1.4228 z"
         id="path5438" /></clipPath><clipPath
       clipPathUnits="userSpaceOnUse"
       id="clipPath5440"><path
         d="m 495.045,74.1523 35.577,0 0,-1.4228 -35.577,0 0,1.4228 z"
         id="path5442" /></clipPath><clipPath
       clipPathUnits="userSpaceOnUse"
       id="clipPath5444"><path
         d="m 495.045,70.918 35.577,0 0,-1.4229 -35.577,0 0,1.4229 z"
         id="path5446" /></clipPath><clipPath
       clipPathUnits="userSpaceOnUse"
       id="clipPath5448"><path
         d="m 495.045,67.6846 35.577,0 0,-1.4229 -35.577,0 0,1.4229 z"
         id="path5450" /></clipPath><clipPath
       clipPathUnits="userSpaceOnUse"
       id="clipPath5452"><path
         d="m 495.045,64.4502 35.577,0 0,-1.4229 -35.577,0 0,1.4229 z"
         id="path5454" /></clipPath><clipPath
       clipPathUnits="userSpaceOnUse"
       id="clipPath5456"><path
         d="m 495.045,61.2158 35.577,0 0,-1.4228 -35.577,0 0,1.4228 z"
         id="path5458" /></clipPath><clipPath
       clipPathUnits="userSpaceOnUse"
       id="clipPath5460"><path
         d="m 495.045,57.9814 35.577,0 0,-1.4228 -35.577,0 0,1.4228 z"
         id="path5462" /></clipPath><clipPath
       clipPathUnits="userSpaceOnUse"
       id="clipPath5464"><path
         d="m 495.045,54.7471 35.577,0 0,-1.4229 -35.577,0 0,1.4229 z"
         id="path5466" /></clipPath><clipPath
       clipPathUnits="userSpaceOnUse"
       id="clipPath5468"><path
         d="m 495.045,51.5127 35.577,0 0,-1.4229 -35.577,0 0,1.4229 z"
         id="path5470" /></clipPath><clipPath
       clipPathUnits="userSpaceOnUse"
       id="clipPath5472"><path
         d="m 495.045,48.2793 35.577,0 0,-1.4229 -35.577,0 0,1.4229 z"
         id="path5474" /></clipPath><clipPath
       clipPathUnits="userSpaceOnUse"
       id="clipPath5476"><path
         d="m 495.045,45.0449 35.577,0 0,-1.4228 -35.577,0 0,1.4228 z"
         id="path5478" /></clipPath><clipPath
       clipPathUnits="userSpaceOnUse"
       id="clipPath5480"><path
         d="m 495.045,41.8105 35.577,0 0,-1.4228 -35.577,0 0,1.4228 z"
         id="path5482" /></clipPath><clipPath
       clipPathUnits="userSpaceOnUse"
       id="clipPath5612"><path
         d="m 0,566.929 566.929,0 L 566.929,0 0,0 0,566.929 z"
         id="path5614" /></clipPath></defs><sodipodi:namedview
     pagecolor="#ffffff"
     bordercolor="#666666"
     borderopacity="1"
     objecttolerance="10"
     gridtolerance="10"
     guidetolerance="10"
     inkscape:pageopacity="0"
     inkscape:pageshadow="2"
     inkscape:window-width="954"
     inkscape:window-height="1128"
     id="namedview4"
     showgrid="false"
     inkscape:zoom="0.9419293"
     inkscape:cx="119.11146"
     inkscape:cy="383.59574"
     inkscape:window-x="0"
     inkscape:window-y="0"
     inkscape:window-maximized="0"
     inkscape:current-layer="svg2" /><g
     inkscape:groupmode="layer"
     id="layer1"
     inkscape:label="layer1"
     style="display:inline"><g
       style="display:inline"
       id="g14685"
       transform="matrix(11.148398,0,0,-11.148398,-976.44472,4548.2963)"><g
         transform="translate(95.702,349.77194)"
         id="g644"><path
           inkscape:connector-curvature="0"
           id="path646"
           style="fill:#fbc66e;fill-opacity:1;fill-rule:nonzero;stroke:none"
           d="m 0,0 c -0.617,-0.846 -1.275,-1.418 -1.469,-1.277 -0.193,0.141 0.149,0.943 0.766,1.79 0.617,0.846 1.275,1.418 1.469,1.276 C 0.96,1.647 0.617,0.847 0,0" /></g><g
         transform="translate(96.247,349.59374)"
         id="g648"><path
           inkscape:connector-curvature="0"
           id="path650"
           style="fill:#fbc66e;fill-opacity:1;fill-rule:nonzero;stroke:none"
           d="m 0,0 c -0.49,-0.926 -1.061,-1.585 -1.271,-1.473 -0.213,0.112 0.013,0.953 0.503,1.88 0.491,0.926 1.061,1.585 1.272,1.472 C 0.716,1.767 0.491,0.926 0,0" /></g><g
         transform="translate(96.7763,349.39694)"
         id="g652"><path
           inkscape:connector-curvature="0"
           id="path654"
           style="fill:#fbc66e;fill-opacity:1;fill-rule:nonzero;stroke:none"
           d="m 0,0 c -0.406,-0.965 -0.916,-1.673 -1.137,-1.58 -0.22,0.094 -0.071,0.952 0.335,1.918 C -0.395,1.302 0.114,2.01 0.336,1.917 0.557,1.824 0.406,0.965 0,0" /></g><g
         transform="translate(96.8505,349.25434)"
         id="g656"><path
           inkscape:connector-curvature="0"
           id="path658"
           style="fill:#fbc66e;fill-opacity:1;fill-rule:nonzero;stroke:none"
           d="M 0,0 C -0.228,-1.023 -0.221,-1.895 0.014,-1.946 0.247,-1.998 0.621,-1.211 0.848,-0.188 1.074,0.834 1.068,1.706 0.834,1.757 0.6,1.81 0.227,1.023 0,0" /></g><g
         transform="translate(96.3544,349.54484)"
         id="g660"><path
           inkscape:connector-curvature="0"
           id="path662"
           style="fill:#fbc66e;fill-opacity:1;fill-rule:nonzero;stroke:none"
           d="m 0,0 c -0.369,-0.98 -0.486,-1.844 -0.262,-1.928 0.223,-0.085 0.705,0.641 1.076,1.621 0.37,0.98 0.488,1.844 0.263,1.928 C 0.853,1.706 0.371,0.98 0,0" /></g><g
         transform="translate(103.912,364.74704)"
         id="g664"><path
           inkscape:connector-curvature="0"
           id="path666"
           style="fill:#fbc66e;fill-opacity:1;fill-rule:nonzero;stroke:none"
           d="m 0,0 c 0.076,-1.57 -0.46,-2.872 -1.198,-2.908 -0.74,-0.036 -1.401,1.207 -1.477,2.777 -0.077,1.57 0.46,2.872 1.199,2.908 C -0.737,2.813 -0.077,1.569 0,0" /></g><g
         transform="translate(102.1845,364.54684)"
         id="g668"><path
           inkscape:connector-curvature="0"
           id="path670"
           style="fill:#fbc66e;fill-opacity:1;fill-rule:nonzero;stroke:none"
           d="m 0,0 c -1.227,-0.981 -1.85,-2.245 -1.387,-2.823 0.461,-0.578 1.831,-0.251 3.059,0.73 C 2.9,-1.112 3.521,0.152 3.06,0.73 2.598,1.308 1.229,0.98 0,0" /></g><g
         transform="translate(102.4423,361.49214)"
         id="g672"><path
           inkscape:connector-curvature="0"
           id="path674"
           style="fill:#fbc66e;fill-opacity:1;fill-rule:nonzero;stroke:none"
           d="m 0,0 c 0.076,-1.57 -0.459,-2.873 -1.199,-2.909 -0.739,-0.035 -1.4,1.208 -1.477,2.778 -0.076,1.57 0.461,2.872 1.2,2.908 C -0.736,2.813 -0.076,1.569 0,0" /></g><g
         transform="translate(100.7157,361.29144)"
         id="g676"><path
           inkscape:connector-curvature="0"
           id="path678"
           style="fill:#fbc66e;fill-opacity:1;fill-rule:nonzero;stroke:none"
           d="M 0,0 C -1.228,-0.981 -1.85,-2.244 -1.388,-2.822 -0.926,-3.4 0.443,-3.073 1.672,-2.093 2.9,-1.112 3.521,0.152 3.059,0.73 2.598,1.308 1.228,0.981 0,0" /></g><g
         transform="translate(101.1259,358.56634)"
         id="g680"><path
           inkscape:connector-curvature="0"
           id="path682"
           style="fill:#fbc66e;fill-opacity:1;fill-rule:nonzero;stroke:none"
           d="m 0,0 c 0.067,-1.393 -0.408,-2.547 -1.064,-2.58 -0.655,-0.031 -1.242,1.072 -1.309,2.464 -0.068,1.392 0.408,2.547 1.063,2.579 C -0.654,2.495 -0.068,1.392 0,0" /></g><g
         transform="translate(99.5946,358.38864)"
         id="g684"><path
           inkscape:connector-curvature="0"
           id="path686"
           style="fill:#fbc66e;fill-opacity:1;fill-rule:nonzero;stroke:none"
           d="m 0,0 c -1.09,-0.87 -1.641,-1.991 -1.231,-2.503 0.409,-0.513 1.624,-0.223 2.713,0.647 1.089,0.87 1.641,1.991 1.231,2.503 C 2.303,1.16 1.088,0.871 0,0" /></g><g
         transform="translate(99.8114,355.89934)"
         id="g688"><path
           inkscape:connector-curvature="0"
           id="path690"
           style="fill:#fbc66e;fill-opacity:1;fill-rule:nonzero;stroke:none"
           d="m 0,0 c 0.063,-1.271 -0.373,-2.324 -0.971,-2.353 -0.597,-0.03 -1.133,0.977 -1.195,2.248 -0.061,1.27 0.373,2.324 0.971,2.353 C -0.597,2.277 -0.062,1.271 0,0" /></g><g
         transform="translate(98.2909,355.50144)"
         id="g692"><path
           inkscape:connector-curvature="0"
           id="path694"
           style="fill:#fbc66e;fill-opacity:1;fill-rule:nonzero;stroke:none"
           d="m 0,0 c -1.089,-0.87 -1.64,-1.991 -1.231,-2.503 0.41,-0.513 1.625,-0.223 2.713,0.647 1.089,0.87 1.64,1.991 1.232,2.504 C 2.304,1.16 1.089,0.87 0,0" /></g><g
         transform="translate(98.6005,353.73824)"
         id="g696"><path
           inkscape:connector-curvature="0"
           id="path698"
           style="fill:#fbc66e;fill-opacity:1;fill-rule:nonzero;stroke:none"
           d="m 0,0 c 0.052,-1.059 -0.311,-1.936 -0.809,-1.96 -0.498,-0.024 -0.943,0.814 -0.996,1.872 -0.05,1.058 0.311,1.937 0.809,1.961 C -0.498,1.897 -0.053,1.058 0,0" /></g><g
         transform="translate(97.3329,353.40764)"
         id="g700"><path
           inkscape:connector-curvature="0"
           id="path702"
           style="fill:#fbc66e;fill-opacity:1;fill-rule:nonzero;stroke:none"
           d="m 0,0 c -0.906,-0.726 -1.365,-1.659 -1.025,-2.086 0.341,-0.427 1.353,-0.185 2.26,0.54 0.908,0.725 1.367,1.657 1.026,2.085 C 1.92,0.966 0.906,0.724 0,0" /></g><g
         transform="translate(98.4169,351.12984)"
         id="g704"><path
           inkscape:connector-curvature="0"
           id="path706"
           style="fill:#19181b;fill-opacity:1;fill-rule:nonzero;stroke:none"
           d="m 0,0 c -0.216,-0.478 -0.777,-0.69 -1.256,-0.475 l -0.712,0.322 c -0.477,0.216 -0.689,0.777 -0.473,1.255 0.214,0.477 0.777,0.69 1.253,0.474 L -0.475,1.255 C 0.003,1.039 0.215,0.478 0,0" /></g><g
         transform="translate(141.6942,349.77194)"
         id="g708"><path
           inkscape:connector-curvature="0"
           id="path710"
           style="fill:#fbc66e;fill-opacity:1;fill-rule:nonzero;stroke:none"
           d="M 0,0 C 0.617,-0.846 1.275,-1.418 1.469,-1.277 1.662,-1.136 1.32,-0.334 0.703,0.513 0.086,1.359 -0.572,1.931 -0.766,1.789 -0.96,1.647 -0.617,0.847 0,0" /></g><g
         transform="translate(141.1493,349.59374)"
         id="g712"><path
           inkscape:connector-curvature="0"
           id="path714"
           style="fill:#fbc66e;fill-opacity:1;fill-rule:nonzero;stroke:none"
           d="M 0,0 C 0.49,-0.926 1.061,-1.585 1.271,-1.473 1.484,-1.361 1.258,-0.52 0.768,0.407 0.277,1.333 -0.293,1.992 -0.504,1.879 -0.716,1.767 -0.491,0.926 0,0" /></g><g
         transform="translate(140.62,349.39694)"
         id="g716"><path
           inkscape:connector-curvature="0"
           id="path718"
           style="fill:#fbc66e;fill-opacity:1;fill-rule:nonzero;stroke:none"
           d="M 0,0 C 0.406,-0.965 0.916,-1.673 1.137,-1.58 1.357,-1.486 1.208,-0.628 0.802,0.338 0.395,1.302 -0.114,2.01 -0.336,1.917 -0.557,1.824 -0.406,0.965 0,0" /></g><g
         transform="translate(140.5458,349.25434)"
         id="g720"><path
           inkscape:connector-curvature="0"
           id="path722"
           style="fill:#fbc66e;fill-opacity:1;fill-rule:nonzero;stroke:none"
           d="m 0,0 c 0.228,-1.023 0.221,-1.895 -0.014,-1.946 -0.233,-0.052 -0.607,0.735 -0.834,1.758 -0.226,1.022 -0.22,1.894 0.014,1.945 C -0.6,1.81 -0.227,1.023 0,0" /></g><g
         transform="translate(141.0419,349.54484)"
         id="g724"><path
           inkscape:connector-curvature="0"
           id="path726"
           style="fill:#fbc66e;fill-opacity:1;fill-rule:nonzero;stroke:none"
           d="m 0,0 c 0.369,-0.98 0.486,-1.844 0.262,-1.928 -0.223,-0.085 -0.705,0.641 -1.076,1.621 -0.37,0.98 -0.488,1.844 -0.263,1.928 C -0.853,1.706 -0.371,0.98 0,0" /></g><g
         transform="translate(133.4843,364.74704)"
         id="g728"><path
           inkscape:connector-curvature="0"
           id="path730"
           style="fill:#fbc66e;fill-opacity:1;fill-rule:nonzero;stroke:none"
           d="m 0,0 c -0.076,-1.57 0.46,-2.872 1.198,-2.908 0.74,-0.036 1.401,1.207 1.477,2.777 C 2.752,1.439 2.215,2.741 1.476,2.777 0.737,2.813 0.077,1.569 0,0" /></g><g
         transform="translate(135.2118,364.54684)"
         id="g732"><path
           inkscape:connector-curvature="0"
           id="path734"
           style="fill:#fbc66e;fill-opacity:1;fill-rule:nonzero;stroke:none"
           d="M 0,0 C 1.227,-0.981 1.85,-2.245 1.387,-2.823 0.926,-3.401 -0.444,-3.074 -1.672,-2.093 -2.9,-1.112 -3.521,0.152 -3.06,0.73 -2.598,1.308 -1.229,0.98 0,0" /></g><g
         transform="translate(134.954,361.49214)"
         id="g736"><path
           inkscape:connector-curvature="0"
           id="path738"
           style="fill:#fbc66e;fill-opacity:1;fill-rule:nonzero;stroke:none"
           d="m 0,0 c -0.076,-1.57 0.459,-2.873 1.199,-2.909 0.739,-0.035 1.4,1.208 1.477,2.778 0.076,1.57 -0.461,2.872 -1.2,2.908 C 0.736,2.813 0.076,1.569 0,0" /></g><g
         transform="translate(136.6805,361.29144)"
         id="g740"><path
           inkscape:connector-curvature="0"
           id="path742"
           style="fill:#fbc66e;fill-opacity:1;fill-rule:nonzero;stroke:none"
           d="M 0,0 C 1.228,-0.981 1.85,-2.244 1.388,-2.822 0.926,-3.4 -0.443,-3.073 -1.672,-2.093 -2.9,-1.112 -3.521,0.152 -3.059,0.73 -2.598,1.308 -1.228,0.981 0,0" /></g><g
         transform="translate(136.2704,358.56634)"
         id="g744"><path
           inkscape:connector-curvature="0"
           id="path746"
           style="fill:#fbc66e;fill-opacity:1;fill-rule:nonzero;stroke:none"
           d="M 0,0 C -0.067,-1.393 0.408,-2.547 1.064,-2.58 1.719,-2.611 2.306,-1.508 2.373,-0.116 2.441,1.276 1.965,2.431 1.31,2.463 0.654,2.495 0.068,1.392 0,0" /></g><g
         transform="translate(137.8016,358.38864)"
         id="g748"><path
           inkscape:connector-curvature="0"
           id="path750"
           style="fill:#fbc66e;fill-opacity:1;fill-rule:nonzero;stroke:none"
           d="M 0,0 C 1.09,-0.87 1.641,-1.991 1.231,-2.503 0.822,-3.016 -0.393,-2.726 -1.482,-1.856 -2.571,-0.986 -3.123,0.135 -2.713,0.647 -2.303,1.16 -1.088,0.871 0,0" /></g><g
         transform="translate(137.5848,355.89934)"
         id="g752"><path
           inkscape:connector-curvature="0"
           id="path754"
           style="fill:#fbc66e;fill-opacity:1;fill-rule:nonzero;stroke:none"
           d="m 0,0 c -0.063,-1.271 0.373,-2.324 0.971,-2.353 0.597,-0.03 1.133,0.977 1.195,2.248 C 2.227,1.165 1.793,2.219 1.195,2.248 0.597,2.277 0.062,1.271 0,0" /></g><g
         transform="translate(139.1054,355.50144)"
         id="g756"><path
           inkscape:connector-curvature="0"
           id="path758"
           style="fill:#fbc66e;fill-opacity:1;fill-rule:nonzero;stroke:none"
           d="m 0,0 c 1.089,-0.87 1.64,-1.991 1.231,-2.503 -0.41,-0.513 -1.625,-0.223 -2.713,0.647 -1.089,0.87 -1.64,1.991 -1.232,2.504 C -2.304,1.16 -1.089,0.87 0,0" /></g><g
         transform="translate(138.7958,353.73824)"
         id="g760"><path
           inkscape:connector-curvature="0"
           id="path762"
           style="fill:#fbc66e;fill-opacity:1;fill-rule:nonzero;stroke:none"
           d="M 0,0 C -0.052,-1.059 0.311,-1.936 0.809,-1.96 1.307,-1.984 1.752,-1.146 1.805,-0.088 1.855,0.97 1.494,1.849 0.996,1.873 0.498,1.897 0.053,1.058 0,0" /></g><g
         transform="translate(140.0634,353.40764)"
         id="g764"><path
           inkscape:connector-curvature="0"
           id="path766"
           style="fill:#fbc66e;fill-opacity:1;fill-rule:nonzero;stroke:none"
           d="m 0,0 c 0.906,-0.726 1.365,-1.659 1.025,-2.086 -0.341,-0.427 -1.353,-0.185 -2.26,0.54 -0.908,0.725 -1.367,1.657 -1.026,2.085 C -1.92,0.966 -0.906,0.724 0,0" /></g><g
         transform="translate(138.9794,351.12984)"
         id="g768"><path
           inkscape:connector-curvature="0"
           id="path770"
           style="fill:#19181b;fill-opacity:1;fill-rule:nonzero;stroke:none"
           d="m 0,0 c 0.216,-0.478 0.777,-0.69 1.256,-0.475 l 0.712,0.322 C 2.445,0.063 2.657,0.624 2.441,1.102 2.227,1.579 1.664,1.792 1.188,1.576 L 0.475,1.255 C -0.003,1.039 -0.215,0.478 0,0" /></g><g
         transform="translate(94.5682,383.14204)"
         id="g772"><path
           inkscape:connector-curvature="0"
           id="path774"
           style="fill:#fbc66e;fill-opacity:1;fill-rule:nonzero;stroke:none"
           d="m 0,0 c 0,-12.118 14.753,-21.938 25.218,-21.938 10.465,0 24.841,9.82 24.841,21.938 0,12.117 -12.793,21.941 -24.841,21.941 C 13.171,21.941 0,12.117 0,0" /></g><g
         transform="translate(143.1571,379.97114)"
         id="g812"><path
           inkscape:connector-curvature="0"
           id="path814"
           style="fill:#f9cdb9;fill-opacity:1;fill-rule:nonzero;stroke:none"
           d="m 0,0 c -1.357,10.597 -13.105,18.884 -23.91,18.884 -10.795,0 -22.219,-8.276 -23.551,-18.864 -0.086,-0.676 -0.131,-1.361 -0.131,-2.055 0,-11.552 13.705,-20.917 23.682,-20.917 9.98,0 24.047,9.365 24.047,20.917 C 0.137,-1.348 0.088,-0.669 0,0" /></g><g
         transform="translate(116.4579,375.11964)"
         id="g816"><path
           inkscape:connector-curvature="0"
           id="path818"
           style="fill:#e3b09f;fill-opacity:1;fill-rule:nonzero;stroke:none"
           d="M 0,0 C 1.381,1.438 3.662,1.484 5.1,0.104" /></g><g
         transform="translate(98.0888,375.59224)"
         id="g840"><path
           inkscape:connector-curvature="0"
           id="path842"
           style="fill:#f9cdb9;fill-opacity:1;fill-rule:nonzero;stroke:none"
           d="m 0,0 c 0,-1.492 -1.238,-2.704 -2.764,-2.704 -1.527,0 -2.765,1.212 -2.765,2.704 0,1.495 1.238,2.706 2.765,2.706 C -1.238,2.706 0,1.495 0,0" /></g><g
         transform="translate(146.1786,375.59224)"
         id="g844"><path
           inkscape:connector-curvature="0"
           id="path846"
           style="fill:#f9cdb9;fill-opacity:1;fill-rule:nonzero;stroke:none"
           d="m 0,0 c 0,-1.492 -1.24,-2.704 -2.766,-2.704 -1.527,0 -2.767,1.212 -2.767,2.704 0,1.495 1.24,2.706 2.767,2.706 C -1.24,2.706 0,1.495 0,0" /></g><g
         transform="translate(119.4696,399.18504)"
         id="g916"><path
           inkscape:connector-curvature="0"
           id="path918"
           style="fill:#fbc66e;fill-opacity:1;fill-rule:nonzero;stroke:none"
           d="m 0,0 c 0,0 -0.084,-2.638 1.376,-5.763 1.461,-3.126 2.749,-6.374 7.734,-6.613 4.985,-0.24 6.273,0.121 8.507,-0.24 2.235,-0.362 3.696,-1.444 4.384,-2.526 0.687,-1.082 1.719,-2.523 1.805,-3.125 0.086,-0.599 -0.602,4.448 -0.602,4.448 L 19.422,-5.284 11.087,1.089 4.041,1.691 0,0 z" /></g><g
         transform="translate(119.2821,399.18504)"
         id="g920"><path
           inkscape:connector-curvature="0"
           id="path922"
           style="fill:#fbc66e;fill-opacity:1;fill-rule:nonzero;stroke:none"
           d="m 0,0 c 0,0 0.084,-2.638 -1.376,-5.763 -1.461,-3.126 -2.749,-6.374 -7.734,-6.613 -4.985,-0.24 -6.273,0.121 -8.507,-0.24 -2.235,-0.362 -3.696,-1.444 -4.384,-2.526 -0.687,-1.082 -1.719,-2.523 -1.805,-3.125 -0.086,-0.599 0.602,4.448 0.602,4.448 l 3.782,8.535 8.335,6.373 7.046,0.602 L 0,0 z" /></g></g></g></svg>