<?xml version="1.0" encoding="UTF-8" standalone="no"?>
<!-- Created with Inkscape (http://www.inkscape.org/) -->

<svg
   xmlns:dc="http://purl.org/dc/elements/1.1/"
   xmlns:cc="http://creativecommons.org/ns#"
   xmlns:rdf="http://www.w3.org/1999/02/22-rdf-syntax-ns#"
   xmlns:svg="http://www.w3.org/2000/svg"
   xmlns="http://www.w3.org/2000/svg"
   xmlns:sodipodi="http://sodipodi.sourceforge.net/DTD/sodipodi-0.dtd"
   xmlns:inkscape="http://www.inkscape.org/namespaces/inkscape"
   id="svg2"
   version="1.1"
   inkscape:version="0.48.4 r9939"
   width="708.66125"
   height="708.66125"
   xml:space="preserve"
   sodipodi:docname="head_M_1.svg"><metadata
     id="metadata8"><rdf:RDF><cc:Work
         rdf:about=""><dc:format>image/svg+xml</dc:format><dc:type
           rdf:resource="http://purl.org/dc/dcmitype/StillImage" /><dc:title /></cc:Work></rdf:RDF></metadata><defs
     id="defs6"><clipPath
       clipPathUnits="userSpaceOnUse"
       id="clipPath18"><path
         d="m 0,566.929 566.929,0 L 566.929,0 0,0 0,566.929 z"
         id="path20" /></clipPath><clipPath
       clipPathUnits="userSpaceOnUse"
       id="clipPath5400"><path
         d="m 512.125,57.678 -12.313,2.001 c 0,0 -2.917,-12.25 -2.999,-13.334 l 0,0 c -0.083,-1.082 5.167,-3.501 15.583,-3.751 l 0,0 c 10.417,-0.249 15.333,1.669 15.333,2.919 l 0,0 c 0,1.25 -2.827,14.166 -2.827,14.166 l 0,0 -12.777,-2.001 z"
         id="path5402" /></clipPath><clipPath
       clipPathUnits="userSpaceOnUse"
       id="clipPath5432"><path
         d="m 495.045,77.3867 35.577,0 0,-36.999 -35.577,0 0,36.999 z"
         id="path5434" /></clipPath><clipPath
       clipPathUnits="userSpaceOnUse"
       id="clipPath5436"><path
         d="m 495.045,77.3867 35.577,0 0,-1.4228 -35.577,0 0,1.4228 z"
         id="path5438" /></clipPath><clipPath
       clipPathUnits="userSpaceOnUse"
       id="clipPath5440"><path
         d="m 495.045,74.1523 35.577,0 0,-1.4228 -35.577,0 0,1.4228 z"
         id="path5442" /></clipPath><clipPath
       clipPathUnits="userSpaceOnUse"
       id="clipPath5444"><path
         d="m 495.045,70.918 35.577,0 0,-1.4229 -35.577,0 0,1.4229 z"
         id="path5446" /></clipPath><clipPath
       clipPathUnits="userSpaceOnUse"
       id="clipPath5448"><path
         d="m 495.045,67.6846 35.577,0 0,-1.4229 -35.577,0 0,1.4229 z"
         id="path5450" /></clipPath><clipPath
       clipPathUnits="userSpaceOnUse"
       id="clipPath5452"><path
         d="m 495.045,64.4502 35.577,0 0,-1.4229 -35.577,0 0,1.4229 z"
         id="path5454" /></clipPath><clipPath
       clipPathUnits="userSpaceOnUse"
       id="clipPath5456"><path
         d="m 495.045,61.2158 35.577,0 0,-1.4228 -35.577,0 0,1.4228 z"
         id="path5458" /></clipPath><clipPath
       clipPathUnits="userSpaceOnUse"
       id="clipPath5460"><path
         d="m 495.045,57.9814 35.577,0 0,-1.4228 -35.577,0 0,1.4228 z"
         id="path5462" /></clipPath><clipPath
       clipPathUnits="userSpaceOnUse"
       id="clipPath5464"><path
         d="m 495.045,54.7471 35.577,0 0,-1.4229 -35.577,0 0,1.4229 z"
         id="path5466" /></clipPath><clipPath
       clipPathUnits="userSpaceOnUse"
       id="clipPath5468"><path
         d="m 495.045,51.5127 35.577,0 0,-1.4229 -35.577,0 0,1.4229 z"
         id="path5470" /></clipPath><clipPath
       clipPathUnits="userSpaceOnUse"
       id="clipPath5472"><path
         d="m 495.045,48.2793 35.577,0 0,-1.4229 -35.577,0 0,1.4229 z"
         id="path5474" /></clipPath><clipPath
       clipPathUnits="userSpaceOnUse"
       id="clipPath5476"><path
         d="m 495.045,45.0449 35.577,0 0,-1.4228 -35.577,0 0,1.4228 z"
         id="path5478" /></clipPath><clipPath
       clipPathUnits="userSpaceOnUse"
       id="clipPath5480"><path
         d="m 495.045,41.8105 35.577,0 0,-1.4228 -35.577,0 0,1.4228 z"
         id="path5482" /></clipPath><clipPath
       clipPathUnits="userSpaceOnUse"
       id="clipPath5612"><path
         d="m 0,566.929 566.929,0 L 566.929,0 0,0 0,566.929 z"
         id="path5614" /></clipPath></defs><sodipodi:namedview
     pagecolor="#ffffff"
     bordercolor="#666666"
     borderopacity="1"
     objecttolerance="10"
     gridtolerance="10"
     guidetolerance="10"
     inkscape:pageopacity="0"
     inkscape:pageshadow="2"
     inkscape:window-width="1920"
     inkscape:window-height="1135"
     id="namedview4"
     showgrid="false"
     inkscape:zoom="5.3283568"
     inkscape:cx="27.631245"
     inkscape:cy="489.62825"
     inkscape:window-x="-3"
     inkscape:window-y="-3"
     inkscape:window-maximized="1"
     inkscape:current-layer="layer1" /><g
     inkscape:groupmode="layer"
     id="layer1"
     inkscape:label="layer1"
     style="display:inline"><path
       style="fill:none;stroke:#232323;stroke-width:5;stroke-linecap:butt;stroke-linejoin:miter;stroke-miterlimit:4;stroke-opacity:1;stroke-dasharray:none"
       d="M 2.1810957,229.95168 C 5.1462542,228.52791 99.093579,186.17957 98.099194,186.27452"
       id="path3907"
       inkscape:connector-curvature="0"
       sodipodi:nodetypes="cc" /><path
       style="fill:none;stroke:#232323;stroke-width:5;stroke-linecap:butt;stroke-linejoin:miter;stroke-miterlimit:4;stroke-opacity:1;stroke-dasharray:none;display:inline"
       d="m -3.5976975,175.43926 c 3.28902224,-0.0403 106.3325775,1.18771 105.3909175,0.85438"
       id="path3907-7"
       inkscape:connector-curvature="0"
       sodipodi:nodetypes="cc" /><path
       style="fill:none;stroke:#232323;stroke-width:5;stroke-linecap:butt;stroke-linejoin:miter;stroke-miterlimit:4;stroke-opacity:1;stroke-dasharray:none;display:inline"
       d="m 603.76584,176.55093 c 3.28717,-0.11737 106.33121,-1.30448 105.382,-1.61565"
       id="path3907-7-2"
       inkscape:connector-curvature="0"
       sodipodi:nodetypes="cc" /><path
       style="fill:none;stroke:#232323;stroke-width:5;stroke-linecap:butt;stroke-linejoin:miter;stroke-miterlimit:4;stroke-opacity:1;stroke-dasharray:none;display:inline"
       d="m 597.87056,183.42686 c 3.0294,1.28142 96.94078,43.70944 96.21168,43.02662"
       id="path3907-7-2-5"
       inkscape:connector-curvature="0"
       sodipodi:nodetypes="cc" /><g
       id="g116"
       transform="matrix(11.148398,0,0,-11.148398,633.4458,270.466)"><path
         d="m 0,0 c 0,-12.118 -14.753,-21.938 -25.218,-21.938 -10.465,0 -24.841,9.82 -24.841,21.938 0,12.117 12.793,21.941 24.841,21.941 C -13.171,21.941 0,12.117 0,0"
         style="fill:#19181b;fill-opacity:1;fill-rule:nonzero;stroke:none"
         id="path118"
         inkscape:connector-curvature="0" /></g><g
       id="g120"
       transform="matrix(11.148398,0,0,-11.148398,619.71766,312.7842)"><path
         d="m 0,0 c -1.357,10.597 -13.106,18.884 -23.91,18.884 -10.795,0 -22.22,-8.276 -23.551,-18.864 -0.086,-0.676 -0.132,-1.361 -0.132,-2.055 0,-11.552 13.705,-20.917 23.683,-20.917 9.98,0 24.046,9.365 24.046,20.917 C 0.136,-1.348 0.087,-0.669 0,0"
         style="fill:#f9cdb9;fill-opacity:1;fill-rule:nonzero;stroke:none"
         id="path122"
         inkscape:connector-curvature="0" /></g><g
       id="g132"
       transform="matrix(11.148398,0,0,-11.148398,322.05321,366.87066)"><path
         d="M 0,0 C 1.382,1.438 3.662,1.484 5.101,0.104"
         style="fill:#e3b09f;fill-opacity:1;fill-rule:nonzero;stroke:none"
         id="path134"
         inkscape:connector-curvature="0" /></g><g
       id="g156"
       transform="matrix(11.148398,0,0,-11.148398,117.2772,361.60192)"><path
         d="m 0,0 c 0,-1.492 -1.238,-2.704 -2.764,-2.704 -1.527,0 -2.765,1.212 -2.765,2.704 0,1.495 1.238,2.706 2.765,2.706 C -1.238,2.706 0,1.495 0,0"
         style="fill:#f9cdb9;fill-opacity:1;fill-rule:nonzero;stroke:none"
         id="path158"
         inkscape:connector-curvature="0" /></g><g
       id="g160"
       transform="matrix(11.148398,0,0,-11.148398,653.3914,361.60192)"><path
         d="m 0,0 c 0,-1.492 -1.239,-2.704 -2.766,-2.704 -1.526,0 -2.766,1.212 -2.766,2.704 0,1.495 1.24,2.706 2.766,2.706 C -1.239,2.706 0,1.495 0,0"
         style="fill:#f9cdb9;fill-opacity:1;fill-rule:nonzero;stroke:none"
         id="path162"
         inkscape:connector-curvature="0" /></g><g
       id="g172"
       transform="matrix(11.148398,0,0,-11.148398,461.74598,125.05744)"><path
         d="m 0,0 c 0,0 0.117,0.362 -1.926,-2.763 -2.043,-3.126 -3.845,-6.374 -10.819,-6.613 -6.973,-0.24 -8.776,0.121 -11.901,-0.24 -3.125,-0.362 -5.17,-1.444 -6.132,-2.526 -0.96,-1.082 -2.405,-2.523 -2.525,-3.125 -0.12,-0.599 0.842,4.448 0.842,4.448 l 5.291,8.535 11.66,6.373 9.857,0.602 L 0,0 z"
         style="fill:#19181b;fill-opacity:1;fill-rule:nonzero;stroke:none"
         id="path174"
         inkscape:connector-curvature="0" /></g><g
       id="g176"
       transform="matrix(11.148398,0,0,-11.148398,455.01792,107.62692)"><path
         d="m 0,0 c -0.6,-1.922 -1.322,-3.366 0.482,-5.168 1.803,-1.804 3.125,-2.285 5.289,-2.766 2.165,-0.482 4.449,-0.482 5.65,-1.804 1.203,-1.323 0.724,-0.842 1.443,-2.283 0.721,-1.442 0.601,0.722 0.362,1.321 -0.242,0.602 -4.33,6.132 -4.33,6.132 0,0 -5.41,3.968 -6.732,4.568 C 0.844,0.602 0,0 0,0"
         style="fill:#19181b;fill-opacity:1;fill-rule:nonzero;stroke:none"
         id="path178"
         inkscape:connector-curvature="0" /></g><g
       id="g232"
       transform="matrix(11.148398,0,0,-11.148398,160.6467,123.86568)"><path
         d="m 0,0 c 0,-2.669 -2.164,-4.833 -4.833,-4.833 -2.67,0 -4.834,2.164 -4.834,4.833 0,2.669 2.164,4.833 4.834,4.833 C -2.164,4.833 0,2.669 0,0"
         style="fill:#19181b;fill-opacity:1;fill-rule:nonzero;stroke:none"
         id="path234"
         inkscape:connector-curvature="0" /></g><g
       id="g236"
       transform="matrix(11.148398,0,0,-11.148398,648.38911,123.86568)"><path
         d="m 0,0 c 0,-2.669 -2.164,-4.833 -4.833,-4.833 -2.67,0 -4.834,2.164 -4.834,4.833 0,2.669 2.164,4.833 4.834,4.833 C -2.164,4.833 0,2.669 0,0"
         style="fill:#19181b;fill-opacity:1;fill-rule:nonzero;stroke:none"
         id="path238"
         inkscape:connector-curvature="0" /></g><g
       id="g296"
       transform="matrix(11.148398,0,0,-11.148398,-6.9173908,217.14656)"><path
         d="M 0,0 C 0.625,0.47 1.514,0.344 1.983,-0.282 2.454,-0.907 2.328,-1.795 1.703,-2.265 1.077,-2.735 0.189,-2.61 -0.281,-1.984 -0.751,-1.359 -0.625,-0.47 0,0"
         style="fill:#b892be;fill-opacity:1;fill-rule:nonzero;stroke:none"
         id="path298"
         inkscape:connector-curvature="0" /></g><g
       id="g304"
       transform="matrix(11.148398,0,0,-11.148398,-14.107784,159.6565)"><path
         d="M 0,0 C 0.77,0.139 1.507,-0.372 1.647,-1.142 1.786,-1.911 1.276,-2.648 0.506,-2.789 -0.264,-2.928 -1.001,-2.417 -1.141,-1.647 -1.281,-0.878 -0.77,-0.14 0,0"
         style="fill:#b892be;fill-opacity:1;fill-rule:nonzero;stroke:none"
         id="path306"
         inkscape:connector-curvature="0" /></g><g
       id="g312"
       transform="matrix(11.148398,0,0,-11.148398,710.51579,217.14656)"><path
         d="m 0,0 c -0.625,0.47 -1.514,0.344 -1.983,-0.282 -0.471,-0.625 -0.345,-1.513 0.28,-1.983 0.626,-0.47 1.514,-0.345 1.984,0.281 C 0.751,-1.359 0.625,-0.47 0,0"
         style="fill:#b892be;fill-opacity:1;fill-rule:nonzero;stroke:none"
         id="path314"
         inkscape:connector-curvature="0" /></g><g
       id="g320"
       transform="matrix(11.148398,0,0,-11.148398,718.76895,159.6565)"><path
         d="m 0,0 c -0.77,0.139 -1.507,-0.372 -1.647,-1.142 -0.139,-0.769 0.371,-1.506 1.141,-1.647 0.77,-0.139 1.507,0.372 1.647,1.142 C 1.281,-0.878 0.77,-0.14 0,0"
         style="fill:#b892be;fill-opacity:1;fill-rule:nonzero;stroke:none"
         id="path322"
         inkscape:connector-curvature="0" /></g></g></svg>