<?xml version="1.0" encoding="UTF-8" standalone="no"?>
<!-- Created with Inkscape (http://www.inkscape.org/) -->

<svg
   xmlns:dc="http://purl.org/dc/elements/1.1/"
   xmlns:cc="http://creativecommons.org/ns#"
   xmlns:rdf="http://www.w3.org/1999/02/22-rdf-syntax-ns#"
   xmlns:svg="http://www.w3.org/2000/svg"
   xmlns="http://www.w3.org/2000/svg"
   xmlns:sodipodi="http://sodipodi.sourceforge.net/DTD/sodipodi-0.dtd"
   xmlns:inkscape="http://www.inkscape.org/namespaces/inkscape"
   id="svg2"
   version="1.1"
   inkscape:version="0.48.4 r9939"
   width="708.66125"
   height="708.66125"
   xml:space="preserve"
   sodipodi:docname="head_M_5.svg"><metadata
     id="metadata8"><rdf:RDF><cc:Work
         rdf:about=""><dc:format>image/svg+xml</dc:format><dc:type
           rdf:resource="http://purl.org/dc/dcmitype/StillImage" /><dc:title /></cc:Work></rdf:RDF></metadata><defs
     id="defs6"><clipPath
       clipPathUnits="userSpaceOnUse"
       id="clipPath18"><path
         d="m 0,566.929 566.929,0 L 566.929,0 0,0 0,566.929 z"
         id="path20" /></clipPath><clipPath
       clipPathUnits="userSpaceOnUse"
       id="clipPath5400"><path
         d="m 512.125,57.678 -12.313,2.001 c 0,0 -2.917,-12.25 -2.999,-13.334 l 0,0 c -0.083,-1.082 5.167,-3.501 15.583,-3.751 l 0,0 c 10.417,-0.249 15.333,1.669 15.333,2.919 l 0,0 c 0,1.25 -2.827,14.166 -2.827,14.166 l 0,0 -12.777,-2.001 z"
         id="path5402" /></clipPath><clipPath
       clipPathUnits="userSpaceOnUse"
       id="clipPath5432"><path
         d="m 495.045,77.3867 35.577,0 0,-36.999 -35.577,0 0,36.999 z"
         id="path5434" /></clipPath><clipPath
       clipPathUnits="userSpaceOnUse"
       id="clipPath5436"><path
         d="m 495.045,77.3867 35.577,0 0,-1.4228 -35.577,0 0,1.4228 z"
         id="path5438" /></clipPath><clipPath
       clipPathUnits="userSpaceOnUse"
       id="clipPath5440"><path
         d="m 495.045,74.1523 35.577,0 0,-1.4228 -35.577,0 0,1.4228 z"
         id="path5442" /></clipPath><clipPath
       clipPathUnits="userSpaceOnUse"
       id="clipPath5444"><path
         d="m 495.045,70.918 35.577,0 0,-1.4229 -35.577,0 0,1.4229 z"
         id="path5446" /></clipPath><clipPath
       clipPathUnits="userSpaceOnUse"
       id="clipPath5448"><path
         d="m 495.045,67.6846 35.577,0 0,-1.4229 -35.577,0 0,1.4229 z"
         id="path5450" /></clipPath><clipPath
       clipPathUnits="userSpaceOnUse"
       id="clipPath5452"><path
         d="m 495.045,64.4502 35.577,0 0,-1.4229 -35.577,0 0,1.4229 z"
         id="path5454" /></clipPath><clipPath
       clipPathUnits="userSpaceOnUse"
       id="clipPath5456"><path
         d="m 495.045,61.2158 35.577,0 0,-1.4228 -35.577,0 0,1.4228 z"
         id="path5458" /></clipPath><clipPath
       clipPathUnits="userSpaceOnUse"
       id="clipPath5460"><path
         d="m 495.045,57.9814 35.577,0 0,-1.4228 -35.577,0 0,1.4228 z"
         id="path5462" /></clipPath><clipPath
       clipPathUnits="userSpaceOnUse"
       id="clipPath5464"><path
         d="m 495.045,54.7471 35.577,0 0,-1.4229 -35.577,0 0,1.4229 z"
         id="path5466" /></clipPath><clipPath
       clipPathUnits="userSpaceOnUse"
       id="clipPath5468"><path
         d="m 495.045,51.5127 35.577,0 0,-1.4229 -35.577,0 0,1.4229 z"
         id="path5470" /></clipPath><clipPath
       clipPathUnits="userSpaceOnUse"
       id="clipPath5472"><path
         d="m 495.045,48.2793 35.577,0 0,-1.4229 -35.577,0 0,1.4229 z"
         id="path5474" /></clipPath><clipPath
       clipPathUnits="userSpaceOnUse"
       id="clipPath5476"><path
         d="m 495.045,45.0449 35.577,0 0,-1.4228 -35.577,0 0,1.4228 z"
         id="path5478" /></clipPath><clipPath
       clipPathUnits="userSpaceOnUse"
       id="clipPath5480"><path
         d="m 495.045,41.8105 35.577,0 0,-1.4228 -35.577,0 0,1.4228 z"
         id="path5482" /></clipPath><clipPath
       clipPathUnits="userSpaceOnUse"
       id="clipPath5612"><path
         d="m 0,566.929 566.929,0 L 566.929,0 0,0 0,566.929 z"
         id="path5614" /></clipPath></defs><sodipodi:namedview
     pagecolor="#ffffff"
     bordercolor="#666666"
     borderopacity="1"
     objecttolerance="10"
     gridtolerance="10"
     guidetolerance="10"
     inkscape:pageopacity="0"
     inkscape:pageshadow="2"
     inkscape:window-width="1920"
     inkscape:window-height="1135"
     id="namedview4"
     showgrid="false"
     inkscape:zoom="0.9419293"
     inkscape:cx="34.179395"
     inkscape:cy="383.59574"
     inkscape:window-x="-3"
     inkscape:window-y="-3"
     inkscape:window-maximized="1"
     inkscape:current-layer="svg2" /><g
     inkscape:groupmode="layer"
     id="layer1"
     inkscape:label="layer1"
     style="display:inline"><g
       style="display:inline"
       id="g15274"
       transform="matrix(11.148398,0,0,-11.148398,-2264.1086,2887.7573)"><g
         transform="translate(259.8895,234.76704)"
         id="g2088"><path
           inkscape:connector-curvature="0"
           id="path2090"
           style="fill:#19181b;fill-opacity:1;fill-rule:nonzero;stroke:none"
           d="m 0,0 c 0,-12.118 -14.754,-21.938 -25.219,-21.938 -10.465,0 -24.84,9.82 -24.84,21.938 0,12.117 12.793,21.94 24.84,21.94 C -13.172,21.94 0,12.117 0,0" /></g><g
         transform="translate(258.6571,230.97114)"
         id="g2092"><path
           inkscape:connector-curvature="0"
           id="path2094"
           style="fill:#f9cdb9;fill-opacity:1;fill-rule:nonzero;stroke:none"
           d="m 0,0 c -1.357,10.597 -13.105,18.885 -23.91,18.885 -10.795,0 -22.219,-8.277 -23.551,-18.865 -0.086,-0.676 -0.131,-1.361 -0.131,-2.055 0,-11.552 13.705,-20.917 23.682,-20.917 9.98,0 24.047,9.365 24.047,20.917 C 0.137,-1.348 0.088,-0.669 0,0" /></g><g
         transform="translate(231.9579,226.11964)"
         id="g2104"><path
           inkscape:connector-curvature="0"
           id="path2106"
           style="fill:#e3b09f;fill-opacity:1;fill-rule:nonzero;stroke:none"
           d="M 0,0 C 1.381,1.438 3.662,1.484 5.1,0.104" /></g><g
         transform="translate(213.5888,226.59224)"
         id="g2128"><path
           inkscape:connector-curvature="0"
           id="path2130"
           style="fill:#f9cdb9;fill-opacity:1;fill-rule:nonzero;stroke:none"
           d="m 0,0 c 0,-1.492 -1.238,-2.704 -2.764,-2.704 -1.527,0 -2.765,1.212 -2.765,2.704 0,1.495 1.238,2.706 2.765,2.706 C -1.238,2.706 0,1.495 0,0" /></g><g
         transform="translate(261.6786,226.59224)"
         id="g2132"><path
           inkscape:connector-curvature="0"
           id="path2134"
           style="fill:#f9cdb9;fill-opacity:1;fill-rule:nonzero;stroke:none"
           d="m 0,0 c 0,-1.492 -1.24,-2.704 -2.766,-2.704 -1.527,0 -2.767,1.212 -2.767,2.704 0,1.495 1.24,2.706 2.767,2.706 C -1.24,2.706 0,1.495 0,0" /></g><g
         transform="translate(244.4872,247.81004)"
         id="g2144"><path
           inkscape:connector-curvature="0"
           id="path2146"
           style="fill:#19181b;fill-opacity:1;fill-rule:nonzero;stroke:none"
           d="m 0,0 c 0,0 0.117,0.362 -1.926,-2.763 -2.043,-3.127 -3.845,-6.374 -10.818,-6.613 -6.973,-0.24 -8.776,0.121 -11.901,-0.24 -3.126,-0.362 -5.171,-1.444 -6.132,-2.526 -0.961,-1.082 -2.405,-2.523 -2.526,-3.125 -0.119,-0.599 0.842,4.448 0.842,4.448 l 5.291,8.535 11.66,6.373 L -5.652,4.69 0,0 z" /></g><g
         transform="translate(243.8837,249.37354)"
         id="g2148"><path
           inkscape:connector-curvature="0"
           id="path2150"
           style="fill:#19181b;fill-opacity:1;fill-rule:nonzero;stroke:none"
           d="m 0,0 c -0.6,-1.922 -1.322,-3.366 0.482,-5.168 1.803,-1.805 3.125,-2.285 5.289,-2.766 2.165,-0.482 4.45,-0.482 5.651,-1.804 1.203,-1.323 0.723,-0.842 1.443,-2.283 0.721,-1.442 0.6,0.722 0.362,1.321 -0.243,0.602 -4.331,6.132 -4.331,6.132 0,0 -5.41,3.968 -6.732,4.568 C 0.844,0.602 0,0 0,0" /></g></g></g></svg>