<?xml version="1.0" encoding="UTF-8" standalone="no"?>
<!-- Created with Inkscape (http://www.inkscape.org/) -->

<svg
   xmlns:dc="http://purl.org/dc/elements/1.1/"
   xmlns:cc="http://creativecommons.org/ns#"
   xmlns:rdf="http://www.w3.org/1999/02/22-rdf-syntax-ns#"
   xmlns:svg="http://www.w3.org/2000/svg"
   xmlns="http://www.w3.org/2000/svg"
   xmlns:sodipodi="http://sodipodi.sourceforge.net/DTD/sodipodi-0.dtd"
   xmlns:inkscape="http://www.inkscape.org/namespaces/inkscape"
   id="svg2"
   version="1.1"
   inkscape:version="0.48.4 r9939"
   width="708.66125"
   height="708.66125"
   xml:space="preserve"
   sodipodi:docname="mouth_M_1.svg"><metadata
     id="metadata8"><rdf:RDF><cc:Work
         rdf:about=""><dc:format>image/svg+xml</dc:format><dc:type
           rdf:resource="http://purl.org/dc/dcmitype/StillImage" /><dc:title></dc:title></cc:Work></rdf:RDF></metadata><defs
     id="defs6"><clipPath
       clipPathUnits="userSpaceOnUse"
       id="clipPath18"><path
         d="m 0,566.929 566.929,0 L 566.929,0 0,0 0,566.929 z"
         id="path20" /></clipPath><clipPath
       clipPathUnits="userSpaceOnUse"
       id="clipPath5400"><path
         d="m 512.125,57.678 -12.313,2.001 c 0,0 -2.917,-12.25 -2.999,-13.334 l 0,0 c -0.083,-1.082 5.167,-3.501 15.583,-3.751 l 0,0 c 10.417,-0.249 15.333,1.669 15.333,2.919 l 0,0 c 0,1.25 -2.827,14.166 -2.827,14.166 l 0,0 -12.777,-2.001 z"
         id="path5402" /></clipPath><clipPath
       clipPathUnits="userSpaceOnUse"
       id="clipPath5432"><path
         d="m 495.045,77.3867 35.577,0 0,-36.999 -35.577,0 0,36.999 z"
         id="path5434" /></clipPath><clipPath
       clipPathUnits="userSpaceOnUse"
       id="clipPath5436"><path
         d="m 495.045,77.3867 35.577,0 0,-1.4228 -35.577,0 0,1.4228 z"
         id="path5438" /></clipPath><clipPath
       clipPathUnits="userSpaceOnUse"
       id="clipPath5440"><path
         d="m 495.045,74.1523 35.577,0 0,-1.4228 -35.577,0 0,1.4228 z"
         id="path5442" /></clipPath><clipPath
       clipPathUnits="userSpaceOnUse"
       id="clipPath5444"><path
         d="m 495.045,70.918 35.577,0 0,-1.4229 -35.577,0 0,1.4229 z"
         id="path5446" /></clipPath><clipPath
       clipPathUnits="userSpaceOnUse"
       id="clipPath5448"><path
         d="m 495.045,67.6846 35.577,0 0,-1.4229 -35.577,0 0,1.4229 z"
         id="path5450" /></clipPath><clipPath
       clipPathUnits="userSpaceOnUse"
       id="clipPath5452"><path
         d="m 495.045,64.4502 35.577,0 0,-1.4229 -35.577,0 0,1.4229 z"
         id="path5454" /></clipPath><clipPath
       clipPathUnits="userSpaceOnUse"
       id="clipPath5456"><path
         d="m 495.045,61.2158 35.577,0 0,-1.4228 -35.577,0 0,1.4228 z"
         id="path5458" /></clipPath><clipPath
       clipPathUnits="userSpaceOnUse"
       id="clipPath5460"><path
         d="m 495.045,57.9814 35.577,0 0,-1.4228 -35.577,0 0,1.4228 z"
         id="path5462" /></clipPath><clipPath
       clipPathUnits="userSpaceOnUse"
       id="clipPath5464"><path
         d="m 495.045,54.7471 35.577,0 0,-1.4229 -35.577,0 0,1.4229 z"
         id="path5466" /></clipPath><clipPath
       clipPathUnits="userSpaceOnUse"
       id="clipPath5468"><path
         d="m 495.045,51.5127 35.577,0 0,-1.4229 -35.577,0 0,1.4229 z"
         id="path5470" /></clipPath><clipPath
       clipPathUnits="userSpaceOnUse"
       id="clipPath5472"><path
         d="m 495.045,48.2793 35.577,0 0,-1.4229 -35.577,0 0,1.4229 z"
         id="path5474" /></clipPath><clipPath
       clipPathUnits="userSpaceOnUse"
       id="clipPath5476"><path
         d="m 495.045,45.0449 35.577,0 0,-1.4228 -35.577,0 0,1.4228 z"
         id="path5478" /></clipPath><clipPath
       clipPathUnits="userSpaceOnUse"
       id="clipPath5480"><path
         d="m 495.045,41.8105 35.577,0 0,-1.4228 -35.577,0 0,1.4228 z"
         id="path5482" /></clipPath><clipPath
       clipPathUnits="userSpaceOnUse"
       id="clipPath5612"><path
         d="m 0,566.929 566.929,0 L 566.929,0 0,0 0,566.929 z"
         id="path5614" /></clipPath></defs><sodipodi:namedview
     pagecolor="#ffffff"
     bordercolor="#666666"
     borderopacity="1"
     objecttolerance="10"
     gridtolerance="10"
     guidetolerance="10"
     inkscape:pageopacity="0"
     inkscape:pageshadow="2"
     inkscape:window-width="1920"
     inkscape:window-height="1135"
     id="namedview4"
     showgrid="false"
     inkscape:zoom="0.9419293"
     inkscape:cx="246.63471"
     inkscape:cy="319.79335"
     inkscape:window-x="-3"
     inkscape:window-y="-3"
     inkscape:window-maximized="1"
     inkscape:current-layer="svg2" /><g
     style="display:inline"
     inkscape:label="layer8"
     id="layer8"
     inkscape:groupmode="layer"><g
       transform="translate(252.75648,-495.55765)"
       style="display:inline"
       id="g4138"><g
         id="g4140"><path
           sodipodi:nodetypes="scsscs"
           inkscape:connector-curvature="0"
           id="path4142"
           d="m 102.48597,911.5201 c -25.670098,0 -49.471438,-2.31291 -64.176641,0.0785 9.760126,11.34147 36.020888,11.03906 60.332894,11.03906 l 0.1875,0 c 25.091247,0 50.543357,0.43624 58.753977,-9.16708 -14.68294,-2.0411 -31.58722,-1.95051 -55.09773,-1.95051 z"
           style="fill:#d8669a;fill-opacity:1;fill-rule:nonzero;stroke:none" /><path
           style="fill:#ea75a5;fill-opacity:1;fill-rule:nonzero;stroke:none"
           d="m 99.088078,906.11288 c -21.954598,0.10487 -51.360963,-0.40919 -69.332517,-0.20162 0,4.85494 9.279188,9.91163 20.910148,12.97898 13.019849,-1.78666 28.656197,-2.04409 51.411341,-2.04409 20.82189,0 33.6314,0.3545 46.63153,1.88294 l 0.16619,0.0295 c 10.76997,-2.9582 21.6902,-8.37818 21.6902,-13.02806 -24.14401,-0.38295 -49.52229,0.27748 -71.476892,0.38235 z"
           id="path4144"
           inkscape:connector-curvature="0"
           sodipodi:nodetypes="zccscccz" /><path
           inkscape:connector-curvature="0"
           id="path4146"
           style="fill:#ffffff;fill-opacity:1;fill-rule:nonzero;stroke:none"
           d="m 29.321842,906.02729 c 17.579914,0.59667 42.278009,0.96682 69.657251,0.96682 28.441177,0 54.011967,-0.39501 71.707527,-1.03311 -19.9982,-6.18763 -119.495029,-5.46666 -141.364778,0.0663" /></g><path
         inkscape:connector-curvature="0"
         id="path4148"
         d="m 100.72298,901.58753 c -29.643419,0.0969 -59.492789,1.62527 -70.843749,4.3125 -0.03884,4.4e-4 -0.08627,-4.5e-4 -0.125,0 0,0.0101 -8e-5,0.0212 0,0.0312 -0.13647,0.0328 -0.30657,0.0606 -0.4375,0.0937 0.13279,0.005 0.3039,-0.004 0.4375,0 0.15215,4.81817 9.37179,9.8331 20.90625,12.875 0.02986,-0.004 0.06386,0.004 0.09375,0 12.61454,3.90141 30.74337,3.75 47.90625,3.75 l 0.1875,0 c 19.450939,0 39.096809,0.23093 50.781249,-4.125 10.35626,-2.95229 20.58674,-8.07081 20.90625,-12.5625 0.0472,-0.002 0.10913,0.002 0.15625,0 -0.0371,-0.0115 -0.0873,-0.0198 -0.125,-0.0312 0.004,-0.0608 0,-0.12698 0,-0.1875 -0.23851,-0.004 -0.48005,0.004 -0.71875,0 -10.70946,-2.93162 -39.77382,-4.25219 -69.125,-4.15625 z"
         style="fill:none;stroke:#000000;stroke-width:2;stroke-linecap:butt;stroke-linejoin:round;stroke-miterlimit:4;stroke-opacity:1;stroke-dasharray:none" /></g></g><g
     inkscape:groupmode="layer"
     id="layer7"
     inkscape:label="layer7"
     style="display:inline"><g
       id="g4124"
       style="display:inline"
       transform="translate(252.75648,-495.55765)"><g
         id="g4126"><path
           inkscape:connector-curvature="0"
           id="path4128"
           style="fill:#ffffff;fill-opacity:1;fill-rule:nonzero;stroke:none"
           d="m 29.519538,905.8417 c 17.579914,1.07722 42.278009,1.7455 69.657251,1.7455 28.441181,0 54.011971,-0.71316 71.707531,-1.86519 -19.9982,-11.17119 -119.495033,-9.86955 -141.364782,0.11969" /><path
           sodipodi:nodetypes="scsscs"
           inkscape:connector-curvature="0"
           transform="matrix(1,0,0,0.34240887,0.50126477,607.80815)"
           id="path4130"
           d="m 102.28125,936.0625 c -25.670099,0 -49.471439,-6.75483 -64.176642,0.22935 9.760126,33.12258 36.020888,32.2394 60.332892,32.2394 l 0.1875,0 c 25.09125,0 50.54336,1.27403 58.75398,-26.7723 -14.68294,-5.96101 -31.58722,-5.69645 -55.09773,-5.69645 z"
           style="fill:#d8669a;fill-opacity:1;fill-rule:nonzero;stroke:none" /><path
           style="fill:#ea75a5;fill-opacity:1;fill-rule:nonzero;stroke:none"
           d="m 171.09375,905.40624 c -17.70288,0.95716 -43.29706,1.53547 -71.75,1.53547 -27.390553,0 -52.100325,-0.54469 -69.6875,-1.43172 -2.734848,1.03968 -4.25,2.16535 -4.25,3.42368 0,10.54941 9.895501,19.10712 22.298975,25.77225 13.884612,-3.88228 30.559507,-4.44165 54.826025,-4.44165 22.20485,0 35.86516,0.77029 49.72874,4.09147 l 0.17722,0.0641 c 11.4853,-6.42792 22.15654,-15.38234 22.15654,-25.48617 0,-1.32022 -1.2385,-2.47951 -3.5,-3.52743 z"
           id="path4132"
           inkscape:connector-curvature="0"
           sodipodi:nodetypes="cscscsccsc" /></g><path
         style="fill:none;stroke:#000000;stroke-width:2;stroke-linejoin:round;stroke-miterlimit:4;stroke-opacity:1;stroke-dasharray:none"
         d="m 100.90625,897.8472 c -29.491273,0.17403 -59.174919,2.9137 -70.65625,7.71875 -0.189841,-0.009 -0.405535,-0.0218 -0.59375,-0.0312 -2.734848,1.03968 -4.25,2.14792 -4.25,3.40625 0,8.6374 6.659313,15.94508 15.875,21.96875 1.45997,1.13553 3.115288,2.14637 4.96875,3 0.488813,0.27335 0.971439,0.54527 1.46875,0.8125 0.09207,-0.0257 0.188931,-0.0371 0.28125,-0.0625 12.620139,4.99177 32.373211,4.78125 50.96875,4.78125 l 0.1875,0 c 20.80595,0 41.82769,0.31046 53.09375,-5.0625 0.01,0.002 0.0213,-0.002 0.0312,0 l 0.15625,0.0625 c 11.4853,-6.42792 22.15625,-15.39617 22.15625,-25.5 0,-1.32022 -1.2385,-2.48333 -3.5,-3.53125 -0.23807,0.0129 -0.50909,0.0185 -0.75,0.0312 -10.50381,-5.37986 -39.85903,-7.76829 -69.4375,-7.59375 z"
         id="path4134"
         inkscape:connector-curvature="0" /></g></g><g
     style="display:inline"
     inkscape:label="layer6"
     id="layer6"
     inkscape:groupmode="layer"><g
       transform="translate(252.75648,-495.55765)"
       style="display:inline"
       id="g4110"><g
         id="g4112"><path
           sodipodi:nodetypes="scsscs"
           inkscape:connector-curvature="0"
           id="path4114"
           d="m 102.48597,911.5201 c -25.670098,0 -49.471438,-2.31291 -64.176641,0.0785 9.760126,11.34147 36.020888,11.03906 60.332894,11.03906 l 0.1875,0 c 25.091247,0 50.543357,0.43624 58.753977,-9.16708 -14.68294,-2.0411 -31.58722,-1.95051 -55.09773,-1.95051 z"
           style="fill:#d8669a;fill-opacity:1;fill-rule:nonzero;stroke:none" /><path
           style="fill:#ea75a5;fill-opacity:1;fill-rule:nonzero;stroke:none"
           d="m 99.088078,906.11288 c -21.954598,0.10487 -51.360963,-0.40919 -69.332517,-0.20162 0,4.85494 9.279188,9.91163 20.910148,12.97898 13.019849,-1.78666 28.656197,-2.04409 51.411341,-2.04409 20.82189,0 33.6314,0.3545 46.63153,1.88294 l 0.16619,0.0295 c 10.76997,-2.9582 21.6902,-8.37818 21.6902,-13.02806 -24.14401,-0.38295 -49.52229,0.27748 -71.476892,0.38235 z"
           id="path4116"
           inkscape:connector-curvature="0"
           sodipodi:nodetypes="zccscccz" /><path
           inkscape:connector-curvature="0"
           id="path4118"
           style="fill:#ffffff;fill-opacity:1;fill-rule:nonzero;stroke:none"
           d="m 29.321842,906.02729 c 17.579914,0.59667 42.278009,0.96682 69.657251,0.96682 28.441177,0 54.011967,-0.39501 71.707527,-1.03311 -19.9982,-6.18763 -119.495029,-5.46666 -141.364778,0.0663" /></g><path
         inkscape:connector-curvature="0"
         id="path4120"
         d="m 100.72298,901.58753 c -29.643419,0.0969 -59.492789,1.62527 -70.843749,4.3125 -0.03884,4.4e-4 -0.08627,-4.5e-4 -0.125,0 0,0.0101 -8e-5,0.0212 0,0.0312 -0.13647,0.0328 -0.30657,0.0606 -0.4375,0.0937 0.13279,0.005 0.3039,-0.004 0.4375,0 0.15215,4.81817 9.37179,9.8331 20.90625,12.875 0.02986,-0.004 0.06386,0.004 0.09375,0 12.61454,3.90141 30.74337,3.75 47.90625,3.75 l 0.1875,0 c 19.450939,0 39.096809,0.23093 50.781249,-4.125 10.35626,-2.95229 20.58674,-8.07081 20.90625,-12.5625 0.0472,-0.002 0.10913,0.002 0.15625,0 -0.0371,-0.0115 -0.0873,-0.0198 -0.125,-0.0312 0.004,-0.0608 0,-0.12698 0,-0.1875 -0.23851,-0.004 -0.48005,0.004 -0.71875,0 -10.70946,-2.93162 -39.77382,-4.25219 -69.125,-4.15625 z"
         style="fill:none;stroke:#000000;stroke-width:2;stroke-linecap:butt;stroke-linejoin:round;stroke-miterlimit:4;stroke-opacity:1;stroke-dasharray:none" /></g></g><g
     inkscape:groupmode="layer"
     id="layer5"
     inkscape:label="layer5"
     style="display:inline"><g
       id="g4096"
       style="display:inline"
       transform="translate(252.75648,-495.55765)"><g
         id="g4098"><path
           inkscape:connector-curvature="0"
           id="path4100"
           style="fill:#ffffff;fill-opacity:1;fill-rule:nonzero;stroke:none"
           d="m 29.519538,905.8417 c 17.579914,1.07722 42.278009,1.7455 69.657251,1.7455 28.441181,0 54.011971,-0.71316 71.707531,-1.86519 -19.9982,-11.17119 -119.495033,-9.86955 -141.364782,0.11969" /><path
           sodipodi:nodetypes="scsscs"
           inkscape:connector-curvature="0"
           transform="matrix(1,0,0,0.34240887,0.50126477,607.80815)"
           id="path4102"
           d="m 102.28125,936.0625 c -25.670099,0 -49.471439,-6.75483 -64.176642,0.22935 9.760126,33.12258 36.020888,32.2394 60.332892,32.2394 l 0.1875,0 c 25.09125,0 50.54336,1.27403 58.75398,-26.7723 -14.68294,-5.96101 -31.58722,-5.69645 -55.09773,-5.69645 z"
           style="fill:#d8669a;fill-opacity:1;fill-rule:nonzero;stroke:none" /><path
           style="fill:#ea75a5;fill-opacity:1;fill-rule:nonzero;stroke:none"
           d="m 171.09375,905.40624 c -17.70288,0.95716 -43.29706,1.53547 -71.75,1.53547 -27.390553,0 -52.100325,-0.54469 -69.6875,-1.43172 -2.734848,1.03968 -4.25,2.16535 -4.25,3.42368 0,10.54941 9.895501,19.10712 22.298975,25.77225 13.884612,-3.88228 30.559507,-4.44165 54.826025,-4.44165 22.20485,0 35.86516,0.77029 49.72874,4.09147 l 0.17722,0.0641 c 11.4853,-6.42792 22.15654,-15.38234 22.15654,-25.48617 0,-1.32022 -1.2385,-2.47951 -3.5,-3.52743 z"
           id="path4104"
           inkscape:connector-curvature="0"
           sodipodi:nodetypes="cscscsccsc" /></g><path
         style="fill:none;stroke:#000000;stroke-width:2;stroke-linejoin:round;stroke-miterlimit:4;stroke-opacity:1;stroke-dasharray:none"
         d="m 100.90625,897.8472 c -29.491273,0.17403 -59.174919,2.9137 -70.65625,7.71875 -0.189841,-0.009 -0.405535,-0.0218 -0.59375,-0.0312 -2.734848,1.03968 -4.25,2.14792 -4.25,3.40625 0,8.6374 6.659313,15.94508 15.875,21.96875 1.45997,1.13553 3.115288,2.14637 4.96875,3 0.488813,0.27335 0.971439,0.54527 1.46875,0.8125 0.09207,-0.0257 0.188931,-0.0371 0.28125,-0.0625 12.620139,4.99177 32.373211,4.78125 50.96875,4.78125 l 0.1875,0 c 20.80595,0 41.82769,0.31046 53.09375,-5.0625 0.01,0.002 0.0213,-0.002 0.0312,0 l 0.15625,0.0625 c 11.4853,-6.42792 22.15625,-15.39617 22.15625,-25.5 0,-1.32022 -1.2385,-2.48333 -3.5,-3.53125 -0.23807,0.0129 -0.50909,0.0185 -0.75,0.0312 -10.50381,-5.37986 -39.85903,-7.76829 -69.4375,-7.59375 z"
         id="path4106"
         inkscape:connector-curvature="0" /></g></g><g
     inkscape:groupmode="layer"
     id="layer4"
     inkscape:label="layer4"
     style="display:inline"><g
       id="g3604"
       style="display:inline"
       transform="translate(252.75648,-495.55765)"><g
         id="g3606"><path
           d="m 29.519538,905.8417 c 17.579914,1.07722 42.278009,1.7455 69.657251,1.7455 28.441181,0 54.011971,-0.71316 71.707531,-1.86519 -19.9982,-11.17119 -119.495033,-9.86955 -141.364782,0.11969"
           style="fill:#ffffff;fill-opacity:1;fill-rule:nonzero;stroke:none"
           id="path3608"
           inkscape:connector-curvature="0" /><path
           transform="translate(0.69896071,-2.7958432)"
           d="m 102.28125,936.0625 c -25.670099,0 -49.076047,1.32832 -63.78125,8.3125 14.504829,16.95628 35.625496,24.15625 59.9375,24.15625 l 0.1875,0 c 25.09125,0 47.87446,-7.96386 62.3125,-25.90625 -14.68294,-5.96101 -35.14574,-6.5625 -58.65625,-6.5625 z"
           id="path3610"
           style="fill:#d8669a;fill-opacity:1;fill-rule:nonzero;stroke:none"
           inkscape:original="M 102.28125 936.0625 C 76.611151 936.0625 53.205203 937.39082 38.5 944.375 C 53.004829 961.33128 74.125496 968.53125 98.4375 968.53125 L 98.625 968.53125 C 123.71625 968.53125 146.49946 960.56739 160.9375 942.625 C 146.25456 936.66399 125.79176 936.0625 102.28125 936.0625 z "
           inkscape:radius="0"
           sodipodi:type="inkscape:offset" /><path
           sodipodi:nodetypes="cscscsccsc"
           inkscape:connector-curvature="0"
           id="path3612"
           d="m 171.09375,905.40625 c -17.70288,1.44153 -43.29706,2.3125 -71.75,2.3125 -27.390553,0 -52.100325,-0.82034 -69.6875,-2.15625 -2.734848,1.56582 -4.25,3.26113 -4.25,5.15625 0,15.88796 9.895501,28.77633 22.298975,38.81437 13.884612,-5.84692 30.559507,-6.68937 54.826025,-6.68937 22.20485,0 35.86516,1.1601 49.72874,6.16198 l 0.17722,0.0965 c 11.4853,-9.68078 22.15654,-23.16662 22.15654,-38.38351 0,-1.98832 -1.2385,-3.73427 -3.5,-5.3125 z"
           style="fill:#ea75a5;fill-opacity:1;fill-rule:nonzero;stroke:none" /></g><path
         style="fill:none;stroke:#000000;stroke-width:2;stroke-linejoin:round;stroke-miterlimit:4;stroke-opacity:1;stroke-dasharray:none;display:inline"
         d="m 100.90625,897.85351 c -29.598341,0.17466 -59.391359,2.91226 -70.781249,7.75 -0.15022,-0.0113 -0.31955,-0.0199 -0.46875,-0.0312 -2.73484,1.56582 -4.25,3.26113 -4.25,5.15625 0,12.61991 6.27813,23.34031 15.0625,32.25 0.04464,0.0492 0.08024,0.10719 0.125,0.15625 0.15518,0.15658 0.31202,0.3133 0.46875,0.46875 14.42403,15.48686 34.786318,22.12496 58.093748,22.12496 l 0.1875,0 c 20.263531,0 39.020731,-5.1756 53.093751,-16.62496 0.63006,-0.5126 1.23276,-1.05598 1.84375,-1.59375 0.36265,-0.32162 0.73416,-0.63968 1.09375,-0.96875 0.1572,-0.14386 0.31222,-0.29224 0.46875,-0.4375 0.28056,-0.26433 0.56765,-0.54249 0.84375,-0.8125 0.23359,-0.2225 0.45581,-0.4619 0.6875,-0.6875 9.42614,-9.17853 17.21875,-20.87964 17.21875,-33.875 0,-1.98832 -1.2385,-3.73427 -3.5,-5.3125 -0.21763,0.0177 -0.46749,0.0449 -0.6875,0.0625 -10.44387,-5.40486 -39.85664,-7.79993 -69.5,-7.625 z"
         id="path3614"
         inkscape:connector-curvature="0"
         sodipodi:nodetypes="cccscccssscsccsscccc" /></g></g><g
     style="display:inline"
     inkscape:label="layer3"
     id="layer3"
     inkscape:groupmode="layer"><g
       transform="translate(252.75648,-495.55765)"
       style="display:inline"
       id="g3690"><g
         id="g3692"><path
           d="m 29.519538,905.8417 c 17.579914,1.07722 42.278009,1.7455 69.657251,1.7455 28.441181,0 54.011971,-0.71316 71.707531,-1.86519 -19.9982,-11.17119 -119.495033,-9.86955 -141.364782,0.11969"
           style="fill:#ffffff;fill-opacity:1;fill-rule:nonzero;stroke:none"
           id="path3694"
           inkscape:connector-curvature="0" /><path
           style="fill:#d8669a;fill-opacity:1;fill-rule:nonzero;stroke:none"
           d="m 102.28125,936.0625 c -25.670099,0 -49.471439,-6.75483 -64.176642,0.22935 9.760126,33.12258 36.020888,32.2394 60.332892,32.2394 l 0.1875,0 c 25.09125,0 50.54336,1.27403 58.75398,-26.7723 -14.68294,-5.96101 -31.58722,-5.69645 -55.09773,-5.69645 z"
           id="path3696"
           transform="matrix(1,0,0,0.34240887,0.50126477,607.80815)"
           inkscape:connector-curvature="0"
           sodipodi:nodetypes="scsscs" /><path
           sodipodi:nodetypes="cscscsccsc"
           inkscape:connector-curvature="0"
           id="path3698"
           d="m 171.09375,905.40624 c -17.70288,0.95716 -43.29706,1.53547 -71.75,1.53547 -27.390553,0 -52.100325,-0.54469 -69.6875,-1.43172 -2.734848,1.03968 -4.25,2.16535 -4.25,3.42368 0,10.54941 9.895501,19.10712 22.298975,25.77225 13.884612,-3.88228 30.559507,-4.44165 54.826025,-4.44165 22.20485,0 35.86516,0.77029 49.72874,4.09147 l 0.17722,0.0641 c 11.4853,-6.42792 22.15654,-15.38234 22.15654,-25.48617 0,-1.32022 -1.2385,-2.47951 -3.5,-3.52743 z"
           style="fill:#ea75a5;fill-opacity:1;fill-rule:nonzero;stroke:none" /></g><path
         inkscape:connector-curvature="0"
         id="path3700"
         d="m 100.90625,897.8472 c -29.491273,0.17403 -59.174919,2.9137 -70.65625,7.71875 -0.189841,-0.009 -0.405535,-0.0218 -0.59375,-0.0312 -2.734848,1.03968 -4.25,2.14792 -4.25,3.40625 0,8.6374 6.659313,15.94508 15.875,21.96875 1.45997,1.13553 3.115288,2.14637 4.96875,3 0.488813,0.27335 0.971439,0.54527 1.46875,0.8125 0.09207,-0.0257 0.188931,-0.0371 0.28125,-0.0625 12.620139,4.99177 32.373211,4.78125 50.96875,4.78125 l 0.1875,0 c 20.80595,0 41.82769,0.31046 53.09375,-5.0625 0.01,0.002 0.0213,-0.002 0.0312,0 l 0.15625,0.0625 c 11.4853,-6.42792 22.15625,-15.39617 22.15625,-25.5 0,-1.32022 -1.2385,-2.48333 -3.5,-3.53125 -0.23807,0.0129 -0.50909,0.0185 -0.75,0.0312 -10.50381,-5.37986 -39.85903,-7.76829 -69.4375,-7.59375 z"
         style="fill:none;stroke:#000000;stroke-width:2;stroke-linejoin:round;stroke-miterlimit:4;stroke-opacity:1;stroke-dasharray:none" /></g></g><g
     inkscape:groupmode="layer"
     id="layer2"
     inkscape:label="layer2"
     style="display:inline"><g
       id="g3776"
       style="display:inline"
       transform="translate(252.75648,-495.55765)"><g
         id="g3778"><path
           style="fill:#d8669a;fill-opacity:1;fill-rule:nonzero;stroke:none"
           d="m 102.48597,911.5201 c -25.670098,0 -49.471438,-2.31291 -64.176641,0.0785 9.760126,11.34147 36.020888,11.03906 60.332894,11.03906 l 0.1875,0 c 25.091247,0 50.543357,0.43624 58.753977,-9.16708 -14.68294,-2.0411 -31.58722,-1.95051 -55.09773,-1.95051 z"
           id="path3780"
           inkscape:connector-curvature="0"
           sodipodi:nodetypes="scsscs" /><path
           sodipodi:nodetypes="zccscccz"
           inkscape:connector-curvature="0"
           id="path3782"
           d="m 99.088078,906.11288 c -21.954598,0.10487 -51.360963,-0.40919 -69.332517,-0.20162 0,4.85494 9.279188,9.91163 20.910148,12.97898 13.019849,-1.78666 28.656197,-2.04409 51.411341,-2.04409 20.82189,0 33.6314,0.3545 46.63153,1.88294 l 0.16619,0.0295 c 10.76997,-2.9582 21.6902,-8.37818 21.6902,-13.02806 -24.14401,-0.38295 -49.52229,0.27748 -71.476892,0.38235 z"
           style="fill:#ea75a5;fill-opacity:1;fill-rule:nonzero;stroke:none" /><path
           d="m 29.321842,906.02729 c 17.579914,0.59667 42.278009,0.96682 69.657251,0.96682 28.441177,0 54.011967,-0.39501 71.707527,-1.03311 -19.9982,-6.18763 -119.495029,-5.46666 -141.364778,0.0663"
           style="fill:#ffffff;fill-opacity:1;fill-rule:nonzero;stroke:none"
           id="path3784"
           inkscape:connector-curvature="0" /></g><path
         style="fill:none;stroke:#000000;stroke-width:2;stroke-linecap:butt;stroke-linejoin:round;stroke-miterlimit:4;stroke-opacity:1;stroke-dasharray:none"
         d="m 100.72298,901.58753 c -29.643419,0.0969 -59.492789,1.62527 -70.843749,4.3125 -0.03884,4.4e-4 -0.08627,-4.5e-4 -0.125,0 0,0.0101 -8e-5,0.0212 0,0.0312 -0.13647,0.0328 -0.30657,0.0606 -0.4375,0.0937 0.13279,0.005 0.3039,-0.004 0.4375,0 0.15215,4.81817 9.37179,9.8331 20.90625,12.875 0.02986,-0.004 0.06386,0.004 0.09375,0 12.61454,3.90141 30.74337,3.75 47.90625,3.75 l 0.1875,0 c 19.450939,0 39.096809,0.23093 50.781249,-4.125 10.35626,-2.95229 20.58674,-8.07081 20.90625,-12.5625 0.0472,-0.002 0.10913,0.002 0.15625,0 -0.0371,-0.0115 -0.0873,-0.0198 -0.125,-0.0312 0.004,-0.0608 0,-0.12698 0,-0.1875 -0.23851,-0.004 -0.48005,0.004 -0.71875,0 -10.70946,-2.93162 -39.77382,-4.25219 -69.125,-4.15625 z"
         id="path3786"
         inkscape:connector-curvature="0" /></g></g><g
     style="display:inline"
     inkscape:label="layer1"
     id="layer1"
     inkscape:groupmode="layer"><path
       style="fill:#000000;fill-opacity:1;fill-rule:nonzero;stroke:#000000;stroke-width:3;stroke-linecap:butt;stroke-linejoin:round;stroke-miterlimit:4;stroke-opacity:1;stroke-dasharray:none;display:inline"
       d="m 293.02244,410.37057 c 20.97915,3.70693 40.54919,5.98954 59.67995,5.97918 22.85157,0.45885 36.93785,-2.83118 59.6844,-6.19727 -39.46112,0.28064 -80.53067,0.1137 -119.36435,0.21809 z"
       id="path3955"
       inkscape:connector-curvature="0"
       sodipodi:nodetypes="cccc" /></g></svg>