<?xml version="1.0" encoding="UTF-8" standalone="no"?>
<!-- Created with Inkscape (http://www.inkscape.org/) -->

<svg
   xmlns:dc="http://purl.org/dc/elements/1.1/"
   xmlns:cc="http://creativecommons.org/ns#"
   xmlns:rdf="http://www.w3.org/1999/02/22-rdf-syntax-ns#"
   xmlns:svg="http://www.w3.org/2000/svg"
   xmlns="http://www.w3.org/2000/svg"
   xmlns:sodipodi="http://sodipodi.sourceforge.net/DTD/sodipodi-0.dtd"
   xmlns:inkscape="http://www.inkscape.org/namespaces/inkscape"
   id="svg2"
   version="1.1"
   inkscape:version="0.48.4 r9939"
   width="708.66125"
   height="708.66125"
   xml:space="preserve"
   sodipodi:docname="head_space.svg"><metadata
     id="metadata8"><rdf:RDF><cc:Work
         rdf:about=""><dc:format>image/svg+xml</dc:format><dc:type
           rdf:resource="http://purl.org/dc/dcmitype/StillImage" /><dc:title></dc:title></cc:Work></rdf:RDF></metadata><defs
     id="defs6"><clipPath
       clipPathUnits="userSpaceOnUse"
       id="clipPath18"><path
         d="m 0,566.929 566.929,0 L 566.929,0 0,0 0,566.929 z"
         id="path20" /></clipPath><clipPath
       clipPathUnits="userSpaceOnUse"
       id="clipPath5400"><path
         d="m 512.125,57.678 -12.313,2.001 c 0,0 -2.917,-12.25 -2.999,-13.334 l 0,0 c -0.083,-1.082 5.167,-3.501 15.583,-3.751 l 0,0 c 10.417,-0.249 15.333,1.669 15.333,2.919 l 0,0 c 0,1.25 -2.827,14.166 -2.827,14.166 l 0,0 -12.777,-2.001 z"
         id="path5402" /></clipPath><clipPath
       clipPathUnits="userSpaceOnUse"
       id="clipPath5432"><path
         d="m 495.045,77.3867 35.577,0 0,-36.999 -35.577,0 0,36.999 z"
         id="path5434" /></clipPath><clipPath
       clipPathUnits="userSpaceOnUse"
       id="clipPath5436"><path
         d="m 495.045,77.3867 35.577,0 0,-1.4228 -35.577,0 0,1.4228 z"
         id="path5438" /></clipPath><clipPath
       clipPathUnits="userSpaceOnUse"
       id="clipPath5440"><path
         d="m 495.045,74.1523 35.577,0 0,-1.4228 -35.577,0 0,1.4228 z"
         id="path5442" /></clipPath><clipPath
       clipPathUnits="userSpaceOnUse"
       id="clipPath5444"><path
         d="m 495.045,70.918 35.577,0 0,-1.4229 -35.577,0 0,1.4229 z"
         id="path5446" /></clipPath><clipPath
       clipPathUnits="userSpaceOnUse"
       id="clipPath5448"><path
         d="m 495.045,67.6846 35.577,0 0,-1.4229 -35.577,0 0,1.4229 z"
         id="path5450" /></clipPath><clipPath
       clipPathUnits="userSpaceOnUse"
       id="clipPath5452"><path
         d="m 495.045,64.4502 35.577,0 0,-1.4229 -35.577,0 0,1.4229 z"
         id="path5454" /></clipPath><clipPath
       clipPathUnits="userSpaceOnUse"
       id="clipPath5456"><path
         d="m 495.045,61.2158 35.577,0 0,-1.4228 -35.577,0 0,1.4228 z"
         id="path5458" /></clipPath><clipPath
       clipPathUnits="userSpaceOnUse"
       id="clipPath5460"><path
         d="m 495.045,57.9814 35.577,0 0,-1.4228 -35.577,0 0,1.4228 z"
         id="path5462" /></clipPath><clipPath
       clipPathUnits="userSpaceOnUse"
       id="clipPath5464"><path
         d="m 495.045,54.7471 35.577,0 0,-1.4229 -35.577,0 0,1.4229 z"
         id="path5466" /></clipPath><clipPath
       clipPathUnits="userSpaceOnUse"
       id="clipPath5468"><path
         d="m 495.045,51.5127 35.577,0 0,-1.4229 -35.577,0 0,1.4229 z"
         id="path5470" /></clipPath><clipPath
       clipPathUnits="userSpaceOnUse"
       id="clipPath5472"><path
         d="m 495.045,48.2793 35.577,0 0,-1.4229 -35.577,0 0,1.4229 z"
         id="path5474" /></clipPath><clipPath
       clipPathUnits="userSpaceOnUse"
       id="clipPath5476"><path
         d="m 495.045,45.0449 35.577,0 0,-1.4228 -35.577,0 0,1.4228 z"
         id="path5478" /></clipPath><clipPath
       clipPathUnits="userSpaceOnUse"
       id="clipPath5480"><path
         d="m 495.045,41.8105 35.577,0 0,-1.4228 -35.577,0 0,1.4228 z"
         id="path5482" /></clipPath><clipPath
       clipPathUnits="userSpaceOnUse"
       id="clipPath5612"><path
         d="m 0,566.929 566.929,0 L 566.929,0 0,0 0,566.929 z"
         id="path5614" /></clipPath></defs><sodipodi:namedview
     pagecolor="#ffffff"
     bordercolor="#666666"
     borderopacity="1"
     objecttolerance="10"
     gridtolerance="10"
     guidetolerance="10"
     inkscape:pageopacity="0"
     inkscape:pageshadow="2"
     inkscape:window-width="1920"
     inkscape:window-height="1135"
     id="namedview4"
     showgrid="false"
     inkscape:zoom="0.9419293"
     inkscape:cx="225.27654"
     inkscape:cy="383.59574"
     inkscape:window-x="-3"
     inkscape:window-y="-3"
     inkscape:window-maximized="1"
     inkscape:current-layer="layer1
" /><g
     id="layer1
"
     inkscape:groupmode="layer"
     inkscape:label="layer1"
     transform="matrix(1.25,0,0,-1.25,0,708.66125)"
     style="display:inline"><g
       id="g58"
       transform="translate(539.3291,168.9287)" /></g></svg>