<?xml version="1.0" encoding="UTF-8" standalone="no"?>
<!-- Created with Inkscape (http://www.inkscape.org/) -->

<svg
   xmlns:dc="http://purl.org/dc/elements/1.1/"
   xmlns:cc="http://creativecommons.org/ns#"
   xmlns:rdf="http://www.w3.org/1999/02/22-rdf-syntax-ns#"
   xmlns:svg="http://www.w3.org/2000/svg"
   xmlns="http://www.w3.org/2000/svg"
   xmlns:sodipodi="http://sodipodi.sourceforge.net/DTD/sodipodi-0.dtd"
   xmlns:inkscape="http://www.inkscape.org/namespaces/inkscape"
   id="svg2"
   version="1.1"
   inkscape:version="0.48.4 r9939"
   width="708.66125"
   height="708.66125"
   xml:space="preserve"
   sodipodi:docname="mouth_F_1_light.svg"><metadata
     id="metadata8"><rdf:RDF><cc:Work
         rdf:about=""><dc:format>image/svg+xml</dc:format><dc:type
           rdf:resource="http://purl.org/dc/dcmitype/StillImage" /><dc:title /></cc:Work></rdf:RDF></metadata><defs
     id="defs6"><clipPath
       clipPathUnits="userSpaceOnUse"
       id="clipPath18"><path
         d="m 0,566.929 566.929,0 L 566.929,0 0,0 0,566.929 z"
         id="path20" /></clipPath><clipPath
       clipPathUnits="userSpaceOnUse"
       id="clipPath5400"><path
         d="m 512.125,57.678 -12.313,2.001 c 0,0 -2.917,-12.25 -2.999,-13.334 l 0,0 c -0.083,-1.082 5.167,-3.501 15.583,-3.751 l 0,0 c 10.417,-0.249 15.333,1.669 15.333,2.919 l 0,0 c 0,1.25 -2.827,14.166 -2.827,14.166 l 0,0 -12.777,-2.001 z"
         id="path5402" /></clipPath><clipPath
       clipPathUnits="userSpaceOnUse"
       id="clipPath5432"><path
         d="m 495.045,77.3867 35.577,0 0,-36.999 -35.577,0 0,36.999 z"
         id="path5434" /></clipPath><clipPath
       clipPathUnits="userSpaceOnUse"
       id="clipPath5436"><path
         d="m 495.045,77.3867 35.577,0 0,-1.4228 -35.577,0 0,1.4228 z"
         id="path5438" /></clipPath><clipPath
       clipPathUnits="userSpaceOnUse"
       id="clipPath5440"><path
         d="m 495.045,74.1523 35.577,0 0,-1.4228 -35.577,0 0,1.4228 z"
         id="path5442" /></clipPath><clipPath
       clipPathUnits="userSpaceOnUse"
       id="clipPath5444"><path
         d="m 495.045,70.918 35.577,0 0,-1.4229 -35.577,0 0,1.4229 z"
         id="path5446" /></clipPath><clipPath
       clipPathUnits="userSpaceOnUse"
       id="clipPath5448"><path
         d="m 495.045,67.6846 35.577,0 0,-1.4229 -35.577,0 0,1.4229 z"
         id="path5450" /></clipPath><clipPath
       clipPathUnits="userSpaceOnUse"
       id="clipPath5452"><path
         d="m 495.045,64.4502 35.577,0 0,-1.4229 -35.577,0 0,1.4229 z"
         id="path5454" /></clipPath><clipPath
       clipPathUnits="userSpaceOnUse"
       id="clipPath5456"><path
         d="m 495.045,61.2158 35.577,0 0,-1.4228 -35.577,0 0,1.4228 z"
         id="path5458" /></clipPath><clipPath
       clipPathUnits="userSpaceOnUse"
       id="clipPath5460"><path
         d="m 495.045,57.9814 35.577,0 0,-1.4228 -35.577,0 0,1.4228 z"
         id="path5462" /></clipPath><clipPath
       clipPathUnits="userSpaceOnUse"
       id="clipPath5464"><path
         d="m 495.045,54.7471 35.577,0 0,-1.4229 -35.577,0 0,1.4229 z"
         id="path5466" /></clipPath><clipPath
       clipPathUnits="userSpaceOnUse"
       id="clipPath5468"><path
         d="m 495.045,51.5127 35.577,0 0,-1.4229 -35.577,0 0,1.4229 z"
         id="path5470" /></clipPath><clipPath
       clipPathUnits="userSpaceOnUse"
       id="clipPath5472"><path
         d="m 495.045,48.2793 35.577,0 0,-1.4229 -35.577,0 0,1.4229 z"
         id="path5474" /></clipPath><clipPath
       clipPathUnits="userSpaceOnUse"
       id="clipPath5476"><path
         d="m 495.045,45.0449 35.577,0 0,-1.4228 -35.577,0 0,1.4228 z"
         id="path5478" /></clipPath><clipPath
       clipPathUnits="userSpaceOnUse"
       id="clipPath5480"><path
         d="m 495.045,41.8105 35.577,0 0,-1.4228 -35.577,0 0,1.4228 z"
         id="path5482" /></clipPath><clipPath
       clipPathUnits="userSpaceOnUse"
       id="clipPath5612"><path
         d="m 0,566.929 566.929,0 L 566.929,0 0,0 0,566.929 z"
         id="path5614" /></clipPath></defs><sodipodi:namedview
     pagecolor="#ffffff"
     bordercolor="#666666"
     borderopacity="1"
     objecttolerance="10"
     gridtolerance="10"
     guidetolerance="10"
     inkscape:pageopacity="0"
     inkscape:pageshadow="2"
     inkscape:window-width="1920"
     inkscape:window-height="1135"
     id="namedview4"
     showgrid="false"
     inkscape:zoom="1.8838586"
     inkscape:cx="214.38768"
     inkscape:cy="277.82991"
     inkscape:window-x="-3"
     inkscape:window-y="-3"
     inkscape:window-maximized="1"
     inkscape:current-layer="layer8" /><g
     style="display:inline"
     inkscape:label="layer8"
     id="layer8"
     inkscape:groupmode="layer"><g
       transform="translate(252.62075,-492.80782)"
       style="display:inline"
       id="g3868"><g
         id="g3870"><path
           sodipodi:nodetypes="scsscs"
           inkscape:connector-curvature="0"
           id="path3872"
           d="m 102.48597,911.5201 c -25.670098,0 -49.471438,-2.31291 -64.176641,0.0785 9.760126,11.34147 36.020888,11.03906 60.332894,11.03906 l 0.1875,0 c 25.091247,0 50.543357,0.43624 58.753977,-9.16708 -14.68294,-2.0411 -31.58722,-1.95051 -55.09773,-1.95051 z"
           style="fill:#d8669a;fill-opacity:1;fill-rule:nonzero;stroke:none" /><path
           style="fill:#ea75a5;fill-opacity:1;fill-rule:nonzero;stroke:none"
           d="m 99.088078,906.11288 c -21.954598,0.10487 -51.360963,-0.40919 -69.332517,-0.20162 0,4.85494 9.279188,9.91163 20.910148,12.97898 13.019849,-1.78666 28.656197,-2.04409 51.411341,-2.04409 20.82189,0 33.6314,0.3545 46.63153,1.88294 l 0.16619,0.0295 c 10.76997,-2.9582 21.6902,-8.37818 21.6902,-13.02806 -24.14401,-0.38295 -49.52229,0.27748 -71.476892,0.38235 z"
           id="path3874"
           inkscape:connector-curvature="0"
           sodipodi:nodetypes="zccscccz" /><path
           inkscape:connector-curvature="0"
           id="path3876"
           style="fill:#ffffff;fill-opacity:1;fill-rule:nonzero;stroke:none"
           d="m 29.321842,906.02729 c 17.579914,0.59667 42.278009,0.96682 69.657251,0.96682 28.441177,0 54.011967,-0.39501 71.707527,-1.03311 -19.9982,-6.18763 -119.495029,-5.46666 -141.364778,0.0663" /></g><path
         inkscape:connector-curvature="0"
         id="path3878"
         d="m 100.72298,901.58753 c -29.643419,0.0969 -59.492789,1.62527 -70.843749,4.3125 -0.03884,4.4e-4 -0.08627,-4.5e-4 -0.125,0 0,0.0101 -8e-5,0.0212 0,0.0312 -0.13647,0.0328 -0.30657,0.0606 -0.4375,0.0937 0.13279,0.005 0.3039,-0.004 0.4375,0 0.15215,4.81817 9.37179,9.8331 20.90625,12.875 0.02986,-0.004 0.06386,0.004 0.09375,0 12.61454,3.90141 30.74337,3.75 47.90625,3.75 l 0.1875,0 c 19.450939,0 39.096809,0.23093 50.781249,-4.125 10.35626,-2.95229 20.58674,-8.07081 20.90625,-12.5625 0.0472,-0.002 0.10913,0.002 0.15625,0 -0.0371,-0.0115 -0.0873,-0.0198 -0.125,-0.0312 0.004,-0.0608 0,-0.12698 0,-0.1875 -0.23851,-0.004 -0.48005,0.004 -0.71875,0 -10.70946,-2.93162 -39.77382,-4.25219 -69.125,-4.15625 z"
         style="fill:none;stroke:#000000;stroke-width:2;stroke-linecap:butt;stroke-linejoin:round;stroke-miterlimit:4;stroke-opacity:1;stroke-dasharray:none" /></g><path
       style="fill:#ff84a0;fill-opacity:1;stroke:#080000;stroke-width:1.28451859999999995;stroke-linecap:round;stroke-linejoin:round;stroke-miterlimit:4;stroke-opacity:1;stroke-dasharray:none;display:inline"
       d="m 302.2741,404.41157 c -7.06508,3.20285 -20.69433,5.21663 -20.49923,9.03995 0.57992,11.36395 25.47029,15.30795 33.38202,16.12732 7.91174,0.81937 29.5212,1.58297 34.79497,1.72276 5.27377,0.13979 25.1013,0.0371 32.19416,-0.7103 7.09286,-0.74741 39.62078,-4.30672 41.3262,-16.35892 0.80542,-5.69191 -16.72784,-6.73721 -22.34632,-9.8208 -16.57951,-5.96794 -31.01006,-6.27824 -49.4259,-4.10769 -17.39727,-2.46481 -36.73136,-1.64721 -49.4259,4.10768 z m 50.80977,5.39272 c 50.20544,-0.7076 69.69875,0.6297 68.398,4.65143 -4.27865,13.22891 -57.80759,13.88189 -71.0342,14.02168 -13.22659,0.13979 -65.72522,-1.38911 -66.0174,-14.59658 -0.081,-3.65993 39.27218,-3.66242 68.6536,-4.07653 z"
       id="path3880"
       inkscape:connector-curvature="0"
       sodipodi:nodetypes="sszzzsccssszss" /></g><g
     style="display:inline"
     inkscape:label="layer7"
     id="layer7"
     inkscape:groupmode="layer"><g
       transform="translate(252.62075,-492.80782)"
       id="g3852"
       style="stroke:none;display:inline"><g
         id="g3854"
         style="stroke:none"><path
           d="m 29.519538,905.8417 c 17.579914,1.07722 42.278009,1.7455 69.657251,1.7455 28.441181,0 54.011971,-0.71316 71.707531,-1.86519 -19.9982,-11.17119 -119.495033,-9.86955 -141.364782,0.11969"
           style="fill:#ffffff;fill-opacity:1;fill-rule:nonzero;stroke:none"
           id="path3856"
           inkscape:connector-curvature="0" /><path
           style="fill:#d8669a;fill-opacity:1;fill-rule:nonzero;stroke:none"
           d="m 102.28125,936.0625 c -25.670099,0 -49.471439,-6.75483 -64.176642,0.22935 9.760126,33.12258 36.020888,32.2394 60.332892,32.2394 l 0.1875,0 c 25.09125,0 50.54336,1.27403 58.75398,-26.7723 -14.68294,-5.96101 -31.58722,-5.69645 -55.09773,-5.69645 z"
           id="path3858"
           transform="matrix(1,0,0,0.34240887,0.50126477,607.80815)"
           inkscape:connector-curvature="0"
           sodipodi:nodetypes="scsscs" /><path
           sodipodi:nodetypes="cscscsccsc"
           inkscape:connector-curvature="0"
           id="path3860"
           d="m 171.09375,905.40624 c -17.70288,0.95716 -43.29706,1.53547 -71.75,1.53547 -27.390553,0 -52.100325,-0.54469 -69.6875,-1.43172 -2.734848,1.03968 -4.25,2.16535 -4.25,3.42368 0,10.54941 9.895501,19.10712 22.298975,25.77225 13.884612,-3.88228 30.559507,-4.44165 54.826025,-4.44165 22.20485,0 35.86516,0.77029 49.72874,4.09147 l 0.17722,0.0641 c 11.4853,-6.42792 22.15654,-15.38234 22.15654,-25.48617 0,-1.32022 -1.2385,-2.47951 -3.5,-3.52743 z"
           style="fill:#ea75a5;fill-opacity:1;fill-rule:nonzero;stroke:none" /></g><path
         inkscape:connector-curvature="0"
         id="path3862"
         d="m 100.90625,897.8472 c -29.491273,0.17403 -59.174919,2.9137 -70.65625,7.71875 -0.189841,-0.009 -0.405535,-0.0218 -0.59375,-0.0312 -2.734848,1.03968 -4.25,2.14792 -4.25,3.40625 0,8.6374 6.659313,15.94508 15.875,21.96875 1.45997,1.13553 3.115288,2.14637 4.96875,3 0.488813,0.27335 0.971439,0.54527 1.46875,0.8125 0.09207,-0.0257 0.188931,-0.0371 0.28125,-0.0625 12.620139,4.99177 32.373211,4.78125 50.96875,4.78125 l 0.1875,0 c 20.80595,0 41.82769,0.31046 53.09375,-5.0625 0.01,0.002 0.0213,-0.002 0.0312,0 l 0.15625,0.0625 c 11.4853,-6.42792 22.15625,-15.39617 22.15625,-25.5 0,-1.32022 -1.2385,-2.48333 -3.5,-3.53125 -0.23807,0.0129 -0.50909,0.0185 -0.75,0.0312 -10.50381,-5.37986 -39.85903,-7.76829 -69.4375,-7.59375 z"
         style="fill:none;stroke:none" /></g><path
       style="fill:#ff84a0;fill-opacity:1;stroke:#080000;stroke-width:1.2845186;stroke-linecap:round;stroke-linejoin:round;stroke-miterlimit:4;stroke-opacity:1;stroke-dasharray:none;display:inline"
       d="m 301.58126,399.79213 c -6.21157,3.28131 -26.276,10.1093 -26.23069,17.98665 0.0799,13.89471 30.64259,28.02903 43.72663,30.24632 13.08403,2.21729 25.32742,3.54006 35.35414,3.54006 10.0267,0 19.92898,-0.80164 31.91456,-2.24801 11.98558,-1.44637 41.60312,-13.72164 42.16496,-31.73606 0.30017,-9.62444 -22.45932,-14.70536 -28.0778,-17.78895 -16.57951,-5.96794 -31.10089,-5.96845 -49.4259,-4.10769 -17.22034,-1.17893 -36.69344,-1.31822 -49.4259,4.10768 z m 50.80977,5.39272 c 50.21043,0.005 76.64223,5.81175 74.12948,12.61958 -11.62205,31.48777 -58.78613,28.83965 -72.01273,28.97944 -13.2266,0.13979 -67.6031,-4.74808 -76.9212,-28.99517 -2.3884,-6.21496 24.59401,-12.60912 74.80445,-12.60385 z"
       id="path3864"
       inkscape:connector-curvature="0"
       sodipodi:nodetypes="cszzzscccsszss" /></g><g
     inkscape:groupmode="layer"
     id="layer6"
     inkscape:label="layer6"
     style="display:inline"><g
       id="g3836"
       style="display:inline"
       transform="translate(252.62075,-492.80782)"><g
         id="g3838"><path
           style="fill:#d8669a;fill-opacity:1;fill-rule:nonzero;stroke:none"
           d="m 102.48597,911.5201 c -25.670098,0 -49.471438,-2.31291 -64.176641,0.0785 9.760126,11.34147 36.020888,11.03906 60.332894,11.03906 l 0.1875,0 c 25.091247,0 50.543357,0.43624 58.753977,-9.16708 -14.68294,-2.0411 -31.58722,-1.95051 -55.09773,-1.95051 z"
           id="path3840"
           inkscape:connector-curvature="0"
           sodipodi:nodetypes="scsscs" /><path
           sodipodi:nodetypes="zccscccz"
           inkscape:connector-curvature="0"
           id="path3842"
           d="m 99.088078,906.11288 c -21.954598,0.10487 -51.360963,-0.40919 -69.332517,-0.20162 0,4.85494 9.279188,9.91163 20.910148,12.97898 13.019849,-1.78666 28.656197,-2.04409 51.411341,-2.04409 20.82189,0 33.6314,0.3545 46.63153,1.88294 l 0.16619,0.0295 c 10.76997,-2.9582 21.6902,-8.37818 21.6902,-13.02806 -24.14401,-0.38295 -49.52229,0.27748 -71.476892,0.38235 z"
           style="fill:#ea75a5;fill-opacity:1;fill-rule:nonzero;stroke:none" /><path
           d="m 29.321842,906.02729 c 17.579914,0.59667 42.278009,0.96682 69.657251,0.96682 28.441177,0 54.011967,-0.39501 71.707527,-1.03311 -19.9982,-6.18763 -119.495029,-5.46666 -141.364778,0.0663"
           style="fill:#ffffff;fill-opacity:1;fill-rule:nonzero;stroke:none"
           id="path3844"
           inkscape:connector-curvature="0" /></g><path
         style="fill:none;stroke:#000000;stroke-width:2;stroke-linecap:butt;stroke-linejoin:round;stroke-miterlimit:4;stroke-opacity:1;stroke-dasharray:none"
         d="m 100.72298,901.58753 c -29.643419,0.0969 -59.492789,1.62527 -70.843749,4.3125 -0.03884,4.4e-4 -0.08627,-4.5e-4 -0.125,0 0,0.0101 -8e-5,0.0212 0,0.0312 -0.13647,0.0328 -0.30657,0.0606 -0.4375,0.0937 0.13279,0.005 0.3039,-0.004 0.4375,0 0.15215,4.81817 9.37179,9.8331 20.90625,12.875 0.02986,-0.004 0.06386,0.004 0.09375,0 12.61454,3.90141 30.74337,3.75 47.90625,3.75 l 0.1875,0 c 19.450939,0 39.096809,0.23093 50.781249,-4.125 10.35626,-2.95229 20.58674,-8.07081 20.90625,-12.5625 0.0472,-0.002 0.10913,0.002 0.15625,0 -0.0371,-0.0115 -0.0873,-0.0198 -0.125,-0.0312 0.004,-0.0608 0,-0.12698 0,-0.1875 -0.23851,-0.004 -0.48005,0.004 -0.71875,0 -10.70946,-2.93162 -39.77382,-4.25219 -69.125,-4.15625 z"
         id="path3846"
         inkscape:connector-curvature="0" /></g><path
       sodipodi:nodetypes="sszzzsccssszss"
       inkscape:connector-curvature="0"
       id="path3848"
       d="m 302.2741,404.41157 c -7.06508,3.20285 -20.69433,5.21663 -20.49923,9.03995 0.57992,11.36395 25.47029,15.30795 33.38202,16.12732 7.91174,0.81937 29.5212,1.58297 34.79497,1.72276 5.27377,0.13979 25.1013,0.0371 32.19416,-0.7103 7.09286,-0.74741 39.62078,-4.30672 41.3262,-16.35892 0.80542,-5.69191 -16.72784,-6.73721 -22.34632,-9.8208 -16.57951,-5.96794 -31.01006,-6.27824 -49.4259,-4.10769 -17.39727,-2.46481 -36.73136,-1.64721 -49.4259,4.10768 z m 50.80977,5.39272 c 50.20544,-0.7076 69.69875,0.6297 68.398,4.65143 -4.27865,13.22891 -57.80759,13.88189 -71.0342,14.02168 -13.22659,0.13979 -65.72522,-1.38911 -66.0174,-14.59658 -0.081,-3.65993 39.27218,-3.66242 68.6536,-4.07653 z"
       style="fill:#ff84a0;fill-opacity:1;stroke:#080000;stroke-width:1.2845186;stroke-linecap:round;stroke-linejoin:round;stroke-miterlimit:4;stroke-opacity:1;stroke-dasharray:none;display:inline" /></g><g
     style="display:inline"
     inkscape:label="layer5"
     id="layer5"
     inkscape:groupmode="layer"><g
       transform="translate(252.62075,-492.80782)"
       id="g3820"
       style="stroke:none;display:inline"><g
         id="g3822"
         style="stroke:none"><path
           d="m 29.519538,905.8417 c 17.579914,1.07722 42.278009,1.7455 69.657251,1.7455 28.441181,0 54.011971,-0.71316 71.707531,-1.86519 -19.9982,-11.17119 -119.495033,-9.86955 -141.364782,0.11969"
           style="fill:#ffffff;fill-opacity:1;fill-rule:nonzero;stroke:none"
           id="path3824"
           inkscape:connector-curvature="0" /><path
           style="fill:#d8669a;fill-opacity:1;fill-rule:nonzero;stroke:none"
           d="m 102.28125,936.0625 c -25.670099,0 -49.471439,-6.75483 -64.176642,0.22935 9.760126,33.12258 36.020888,32.2394 60.332892,32.2394 l 0.1875,0 c 25.09125,0 50.54336,1.27403 58.75398,-26.7723 -14.68294,-5.96101 -31.58722,-5.69645 -55.09773,-5.69645 z"
           id="path3826"
           transform="matrix(1,0,0,0.34240887,0.50126477,607.80815)"
           inkscape:connector-curvature="0"
           sodipodi:nodetypes="scsscs" /><path
           sodipodi:nodetypes="cscscsccsc"
           inkscape:connector-curvature="0"
           id="path3828"
           d="m 171.09375,905.40624 c -17.70288,0.95716 -43.29706,1.53547 -71.75,1.53547 -27.390553,0 -52.100325,-0.54469 -69.6875,-1.43172 -2.734848,1.03968 -4.25,2.16535 -4.25,3.42368 0,10.54941 9.895501,19.10712 22.298975,25.77225 13.884612,-3.88228 30.559507,-4.44165 54.826025,-4.44165 22.20485,0 35.86516,0.77029 49.72874,4.09147 l 0.17722,0.0641 c 11.4853,-6.42792 22.15654,-15.38234 22.15654,-25.48617 0,-1.32022 -1.2385,-2.47951 -3.5,-3.52743 z"
           style="fill:#ea75a5;fill-opacity:1;fill-rule:nonzero;stroke:none" /></g><path
         inkscape:connector-curvature="0"
         id="path3830"
         d="m 100.90625,897.8472 c -29.491273,0.17403 -59.174919,2.9137 -70.65625,7.71875 -0.189841,-0.009 -0.405535,-0.0218 -0.59375,-0.0312 -2.734848,1.03968 -4.25,2.14792 -4.25,3.40625 0,8.6374 6.659313,15.94508 15.875,21.96875 1.45997,1.13553 3.115288,2.14637 4.96875,3 0.488813,0.27335 0.971439,0.54527 1.46875,0.8125 0.09207,-0.0257 0.188931,-0.0371 0.28125,-0.0625 12.620139,4.99177 32.373211,4.78125 50.96875,4.78125 l 0.1875,0 c 20.80595,0 41.82769,0.31046 53.09375,-5.0625 0.01,0.002 0.0213,-0.002 0.0312,0 l 0.15625,0.0625 c 11.4853,-6.42792 22.15625,-15.39617 22.15625,-25.5 0,-1.32022 -1.2385,-2.48333 -3.5,-3.53125 -0.23807,0.0129 -0.50909,0.0185 -0.75,0.0312 -10.50381,-5.37986 -39.85903,-7.76829 -69.4375,-7.59375 z"
         style="fill:none;stroke:none" /></g><path
       style="fill:#ff84a0;fill-opacity:1;stroke:#080000;stroke-width:1.2845186;stroke-linecap:round;stroke-linejoin:round;stroke-miterlimit:4;stroke-opacity:1;stroke-dasharray:none;display:inline"
       d="m 301.58126,399.79213 c -6.21157,3.28131 -26.276,10.1093 -26.23069,17.98665 0.0799,13.89471 30.64259,28.02903 43.72663,30.24632 13.08403,2.21729 25.32742,3.54006 35.35414,3.54006 10.0267,0 19.92898,-0.80164 31.91456,-2.24801 11.98558,-1.44637 41.60312,-13.72164 42.16496,-31.73606 0.30017,-9.62444 -22.45932,-14.70536 -28.0778,-17.78895 -16.57951,-5.96794 -31.10089,-5.96845 -49.4259,-4.10769 -17.22034,-1.17893 -36.69344,-1.31822 -49.4259,4.10768 z m 50.80977,5.39272 c 50.21043,0.005 76.64223,5.81175 74.12948,12.61958 -11.62205,31.48777 -58.78613,28.83965 -72.01273,28.97944 -13.2266,0.13979 -67.6031,-4.74808 -76.9212,-28.99517 -2.3884,-6.21496 24.59401,-12.60912 74.80445,-12.60385 z"
       id="path3832"
       inkscape:connector-curvature="0"
       sodipodi:nodetypes="cszzzscccsszss" /></g><g
     style="display:inline"
     inkscape:label="layer4"
     id="layer4"
     inkscape:groupmode="layer"><g
       id="g3392"
       transform="translate(252.62075,-492.80782)"><path
         d="m 29.519538,905.8417 c 17.579914,1.07722 42.278009,1.7455 69.657251,1.7455 28.441181,0 54.011971,-0.71316 71.707531,-1.86519 -19.9982,-11.17119 -119.495033,-9.86955 -141.364782,0.11969"
         style="fill:#ffffff;fill-opacity:1;fill-rule:nonzero;stroke:none"
         id="path3394"
         inkscape:connector-curvature="0" /><path
         transform="translate(0.69896071,-2.7958432)"
         d="m 102.28125,936.0625 c -25.670099,0 -49.076047,1.32832 -63.78125,8.3125 14.504829,16.95628 35.625496,24.15625 59.9375,24.15625 l 0.1875,0 c 25.09125,0 47.87446,-7.96386 62.3125,-25.90625 -14.68294,-5.96101 -35.14574,-6.5625 -58.65625,-6.5625 z"
         id="path3396"
         style="fill:#d8669a;fill-opacity:1;fill-rule:nonzero;stroke:none"
         inkscape:original="M 102.28125 936.0625 C 76.611151 936.0625 53.205203 937.39082 38.5 944.375 C 53.004829 961.33128 74.125496 968.53125 98.4375 968.53125 L 98.625 968.53125 C 123.71625 968.53125 146.49946 960.56739 160.9375 942.625 C 146.25456 936.66399 125.79176 936.0625 102.28125 936.0625 z "
         inkscape:radius="0"
         sodipodi:type="inkscape:offset" /><path
         sodipodi:nodetypes="cscscsccsc"
         inkscape:connector-curvature="0"
         id="path3398"
         d="m 171.09375,905.40625 c -17.70288,1.44153 -43.29706,2.3125 -71.75,2.3125 -27.390553,0 -52.100325,-0.82034 -69.6875,-2.15625 -2.734848,1.56582 -4.25,3.26113 -4.25,5.15625 0,15.88796 9.895501,28.77633 22.298975,38.81437 13.884612,-5.84692 30.559507,-6.68937 54.826025,-6.68937 22.20485,0 35.86516,1.1601 49.72874,6.16198 l 0.17722,0.0965 c 11.4853,-9.68078 22.15654,-23.16662 22.15654,-38.38351 0,-1.98832 -1.2385,-3.73427 -3.5,-5.3125 z"
         style="fill:#ea75a5;fill-opacity:1;fill-rule:nonzero;stroke:none" /></g><path
       style="fill:#ff84a0;fill-opacity:1;stroke:#080000;stroke-width:1.2845186;stroke-linecap:round;stroke-linejoin:round;stroke-miterlimit:4;stroke-opacity:1;stroke-dasharray:none;display:inline"
       d="m 300.85665,397.22073 c -6.21157,3.28129 -26.44244,13.1759 -26.64014,21.05091 -0.61904,24.65871 30.81049,48.74102 41.51806,51.65727 10.70758,2.91624 25.32742,7.54006 35.35414,7.54006 10.02671,0 20.06879,-2.84455 32.75332,-6.94697 12.68454,-4.10242 48.28504,-26.74506 47.44896,-52.44805 -0.31306,-9.62403 -25.96406,-17.76963 -31.58254,-20.85322 -16.9749,-7.5495 -31.29859,-7.35232 -49.4259,-4.10769 -16.79054,-2.89814 -34.87596,-2.45959 -49.4259,4.10769 z m 51.79825,8.45698 c 50.21043,0.005 74.491,5.37183 74.12948,12.61958 -1.41723,28.41234 -38.20857,53.97307 -74.92027,53.97101 -36.71168,0 -72.9433,-25.40609 -73.73408,-53.0082 -0.19067,-6.65536 24.31443,-13.58766 74.52487,-13.58239 z"
       id="path3432"
       inkscape:connector-curvature="0"
       sodipodi:nodetypes="cszzzscccsszss" /></g><g
     inkscape:groupmode="layer"
     id="layer3"
     inkscape:label="layer3"
     style="display:inline"><g
       style="stroke:none;display:inline"
       id="g3456"
       transform="translate(252.62075,-492.80782)"><g
         style="stroke:none"
         id="g3458"><path
           inkscape:connector-curvature="0"
           id="path3460"
           style="fill:#ffffff;fill-opacity:1;fill-rule:nonzero;stroke:none"
           d="m 29.519538,905.8417 c 17.579914,1.07722 42.278009,1.7455 69.657251,1.7455 28.441181,0 54.011971,-0.71316 71.707531,-1.86519 -19.9982,-11.17119 -119.495033,-9.86955 -141.364782,0.11969" /><path
           sodipodi:nodetypes="scsscs"
           inkscape:connector-curvature="0"
           transform="matrix(1,0,0,0.34240887,0.50126477,607.80815)"
           id="path3462"
           d="m 102.28125,936.0625 c -25.670099,0 -49.471439,-6.75483 -64.176642,0.22935 9.760126,33.12258 36.020888,32.2394 60.332892,32.2394 l 0.1875,0 c 25.09125,0 50.54336,1.27403 58.75398,-26.7723 -14.68294,-5.96101 -31.58722,-5.69645 -55.09773,-5.69645 z"
           style="fill:#d8669a;fill-opacity:1;fill-rule:nonzero;stroke:none" /><path
           style="fill:#ea75a5;fill-opacity:1;fill-rule:nonzero;stroke:none"
           d="m 171.09375,905.40624 c -17.70288,0.95716 -43.29706,1.53547 -71.75,1.53547 -27.390553,0 -52.100325,-0.54469 -69.6875,-1.43172 -2.734848,1.03968 -4.25,2.16535 -4.25,3.42368 0,10.54941 9.895501,19.10712 22.298975,25.77225 13.884612,-3.88228 30.559507,-4.44165 54.826025,-4.44165 22.20485,0 35.86516,0.77029 49.72874,4.09147 l 0.17722,0.0641 c 11.4853,-6.42792 22.15654,-15.38234 22.15654,-25.48617 0,-1.32022 -1.2385,-2.47951 -3.5,-3.52743 z"
           id="path3464"
           inkscape:connector-curvature="0"
           sodipodi:nodetypes="cscscsccsc" /></g><path
         style="fill:none;stroke:none"
         d="m 100.90625,897.8472 c -29.491273,0.17403 -59.174919,2.9137 -70.65625,7.71875 -0.189841,-0.009 -0.405535,-0.0218 -0.59375,-0.0312 -2.734848,1.03968 -4.25,2.14792 -4.25,3.40625 0,8.6374 6.659313,15.94508 15.875,21.96875 1.45997,1.13553 3.115288,2.14637 4.96875,3 0.488813,0.27335 0.971439,0.54527 1.46875,0.8125 0.09207,-0.0257 0.188931,-0.0371 0.28125,-0.0625 12.620139,4.99177 32.373211,4.78125 50.96875,4.78125 l 0.1875,0 c 20.80595,0 41.82769,0.31046 53.09375,-5.0625 0.01,0.002 0.0213,-0.002 0.0312,0 l 0.15625,0.0625 c 11.4853,-6.42792 22.15625,-15.39617 22.15625,-25.5 0,-1.32022 -1.2385,-2.48333 -3.5,-3.53125 -0.23807,0.0129 -0.50909,0.0185 -0.75,0.0312 -10.50381,-5.37986 -39.85903,-7.76829 -69.4375,-7.59375 z"
         id="path3466"
         inkscape:connector-curvature="0" /></g><path
       sodipodi:nodetypes="cszzzscccsszss"
       inkscape:connector-curvature="0"
       id="path3488"
       d="m 301.58126,399.79213 c -6.21157,3.28131 -26.276,10.1093 -26.23069,17.98665 0.0799,13.89471 30.64259,28.02903 43.72663,30.24632 13.08403,2.21729 25.32742,3.54006 35.35414,3.54006 10.0267,0 19.92898,-0.80164 31.91456,-2.24801 11.98558,-1.44637 41.60312,-13.72164 42.16496,-31.73606 0.30017,-9.62444 -22.45932,-14.70536 -28.0778,-17.78895 -16.57951,-5.96794 -31.10089,-5.96845 -49.4259,-4.10769 -17.22034,-1.17893 -36.69344,-1.31822 -49.4259,4.10768 z m 50.80977,5.39272 c 50.21043,0.005 76.64223,5.81175 74.12948,12.61958 -11.62205,31.48777 -58.78613,28.83965 -72.01273,28.97944 -13.2266,0.13979 -67.6031,-4.74808 -76.9212,-28.99517 -2.3884,-6.21496 24.59401,-12.60912 74.80445,-12.60385 z"
       style="fill:#ff84a0;fill-opacity:1;stroke:#080000;stroke-width:1.2845186;stroke-linecap:round;stroke-linejoin:round;stroke-miterlimit:4;stroke-opacity:1;stroke-dasharray:none;display:inline" /></g><g
     style="display:inline"
     inkscape:label="layer2"
     id="layer2"
     inkscape:groupmode="layer"><g
       transform="translate(252.62075,-492.80782)"
       style="display:inline"
       id="g3522"><g
         id="g3524"><path
           sodipodi:nodetypes="scsscs"
           inkscape:connector-curvature="0"
           id="path3526"
           d="m 102.48597,911.5201 c -25.670098,0 -49.471438,-2.31291 -64.176641,0.0785 9.760126,11.34147 36.020888,11.03906 60.332894,11.03906 l 0.1875,0 c 25.091247,0 50.543357,0.43624 58.753977,-9.16708 -14.68294,-2.0411 -31.58722,-1.95051 -55.09773,-1.95051 z"
           style="fill:#d8669a;fill-opacity:1;fill-rule:nonzero;stroke:none" /><path
           style="fill:#ea75a5;fill-opacity:1;fill-rule:nonzero;stroke:none"
           d="m 99.088078,906.11288 c -21.954598,0.10487 -51.360963,-0.40919 -69.332517,-0.20162 0,4.85494 9.279188,9.91163 20.910148,12.97898 13.019849,-1.78666 28.656197,-2.04409 51.411341,-2.04409 20.82189,0 33.6314,0.3545 46.63153,1.88294 l 0.16619,0.0295 c 10.76997,-2.9582 21.6902,-8.37818 21.6902,-13.02806 -24.14401,-0.38295 -49.52229,0.27748 -71.476892,0.38235 z"
           id="path3528"
           inkscape:connector-curvature="0"
           sodipodi:nodetypes="zccscccz" /><path
           inkscape:connector-curvature="0"
           id="path3530"
           style="fill:#ffffff;fill-opacity:1;fill-rule:nonzero;stroke:none"
           d="m 29.321842,906.02729 c 17.579914,0.59667 42.278009,0.96682 69.657251,0.96682 28.441177,0 54.011967,-0.39501 71.707527,-1.03311 -19.9982,-6.18763 -119.495029,-5.46666 -141.364778,0.0663" /></g><path
         inkscape:connector-curvature="0"
         id="path3532"
         d="m 100.72298,901.58753 c -29.643419,0.0969 -59.492789,1.62527 -70.843749,4.3125 -0.03884,4.4e-4 -0.08627,-4.5e-4 -0.125,0 0,0.0101 -8e-5,0.0212 0,0.0312 -0.13647,0.0328 -0.30657,0.0606 -0.4375,0.0937 0.13279,0.005 0.3039,-0.004 0.4375,0 0.15215,4.81817 9.37179,9.8331 20.90625,12.875 0.02986,-0.004 0.06386,0.004 0.09375,0 12.61454,3.90141 30.74337,3.75 47.90625,3.75 l 0.1875,0 c 19.450939,0 39.096809,0.23093 50.781249,-4.125 10.35626,-2.95229 20.58674,-8.07081 20.90625,-12.5625 0.0472,-0.002 0.10913,0.002 0.15625,0 -0.0371,-0.0115 -0.0873,-0.0198 -0.125,-0.0312 0.004,-0.0608 0,-0.12698 0,-0.1875 -0.23851,-0.004 -0.48005,0.004 -0.71875,0 -10.70946,-2.93162 -39.77382,-4.25219 -69.125,-4.15625 z"
         style="fill:none;stroke:#000000;stroke-width:2;stroke-linecap:butt;stroke-linejoin:round;stroke-miterlimit:4;stroke-opacity:1;stroke-dasharray:none" /></g><path
       style="fill:#ff84a0;fill-opacity:1;stroke:#080000;stroke-width:1.2845186;stroke-linecap:round;stroke-linejoin:round;stroke-miterlimit:4;stroke-opacity:1;stroke-dasharray:none;display:inline"
       d="m 302.2741,404.41157 c -7.06508,3.20285 -20.69433,5.21663 -20.49923,9.03995 0.57992,11.36395 25.47029,15.30795 33.38202,16.12732 7.91174,0.81937 29.5212,1.58297 34.79497,1.72276 5.27377,0.13979 25.1013,0.0371 32.19416,-0.7103 7.09286,-0.74741 39.62078,-4.30672 41.3262,-16.35892 0.80542,-5.69191 -16.72784,-6.73721 -22.34632,-9.8208 -16.57951,-5.96794 -31.01006,-6.27824 -49.4259,-4.10769 -17.39727,-2.46481 -36.73136,-1.64721 -49.4259,4.10768 z m 50.80977,5.39272 c 50.20544,-0.7076 69.69875,0.6297 68.398,4.65143 -4.27865,13.22891 -57.80759,13.88189 -71.0342,14.02168 -13.22659,0.13979 -65.72522,-1.38911 -66.0174,-14.59658 -0.081,-3.65993 39.27218,-3.66242 68.6536,-4.07653 z"
       id="path3544"
       inkscape:connector-curvature="0"
       sodipodi:nodetypes="sszzzsccssszss" /></g><g
     inkscape:groupmode="layer"
     id="layer1"
     inkscape:label="layer1"
     style="display:inline"><path
       sodipodi:nodetypes="sszzzsccssszss"
       inkscape:connector-curvature="0"
       id="path3600"
       d="m 302.00934,408.81874 c -2.61692,1.32474 -11.49911,1.19087 -10.17397,4.49294 2.28939,5.70487 19.88974,7.49896 24.63833,7.72524 4.7486,0.22628 30.11429,1.68182 35.38806,1.82161 5.27377,0.13979 24.50821,-0.0617 31.60107,-0.80915 7.09286,-0.74741 29.83316,-3.23387 30.77928,-8.69674 0.43589,-2.51684 -7.76249,-1.4503 -13.38097,-4.53389 -16.57951,-5.96794 -30.12043,-6.17939 -48.53626,-4.00884 -17.39727,-2.46481 -37.88003,-2.28627 -50.31554,4.00883 z m 50.80977,5.39272 c 50.20544,-0.7076 64.59353,-0.7123 60.58901,-0.88406 -1.48193,-0.0636 -47.32972,0.33972 -60.55631,0.47951 -13.22659,0.13979 -61.15204,-0.45386 -60.67961,-0.46132 1.58223,-0.025 31.26549,1.27998 60.64691,0.86587 z"
       style="fill:#ff84a0;fill-opacity:1;stroke:#080000;stroke-width:1.2845186;stroke-linecap:round;stroke-linejoin:round;stroke-miterlimit:4;stroke-opacity:1;stroke-dasharray:none;display:inline" /></g></svg>